%TF.GenerationSoftware,KiCad,Pcbnew,7.0.5-0*%
%TF.CreationDate,2024-02-04T17:51:19+01:00*%
%TF.ProjectId,AmplifierBoard,416d706c-6966-4696-9572-426f6172642e,rev?*%
%TF.SameCoordinates,Original*%
%TF.FileFunction,Profile,NP*%
%FSLAX46Y46*%
G04 Gerber Fmt 4.6, Leading zero omitted, Abs format (unit mm)*
G04 Created by KiCad (PCBNEW 7.0.5-0) date 2024-02-04 17:51:19*
%MOMM*%
%LPD*%
G01*
G04 APERTURE LIST*
%TA.AperFunction,Profile*%
%ADD10C,0.100000*%
%TD*%
%TA.AperFunction,Profile*%
%ADD11C,0.200000*%
%TD*%
%TA.AperFunction,Profile*%
%ADD12C,0.120000*%
%TD*%
G04 APERTURE END LIST*
D10*
X240000000Y-51000000D02*
X240000000Y-70000000D01*
D11*
X255000000Y-155000000D02*
X255000000Y-51000000D01*
D10*
X186000000Y-70000000D02*
X186000000Y-51000000D01*
X186000000Y-51000000D02*
X45000000Y-51000000D01*
D11*
X45000000Y-51000000D02*
X45000000Y-155000000D01*
D10*
X240000000Y-70000000D02*
X186000000Y-70000000D01*
D11*
X45000000Y-155000000D02*
X255000000Y-155000000D01*
D10*
X255000000Y-51000000D02*
X240000000Y-51000000D01*
D12*
%TO.C,J3*%
X98900000Y-57000000D02*
X100600000Y-57000000D01*
X100600000Y-57000000D02*
X100600000Y-60000000D01*
X100600000Y-60000000D02*
X98900000Y-60000000D01*
X98900000Y-60000000D02*
X98900000Y-57000000D01*
X115100000Y-57000000D02*
X113400000Y-57000000D01*
X113400000Y-57000000D02*
X113400000Y-60000000D01*
X113400000Y-60000000D02*
X115100000Y-60000000D01*
X115100000Y-60000000D02*
X115100000Y-57000000D01*
%TO.C,J4*%
X73900000Y-57000000D02*
X75600000Y-57000000D01*
X75600000Y-57000000D02*
X75600000Y-60000000D01*
X75600000Y-60000000D02*
X73900000Y-60000000D01*
X73900000Y-60000000D02*
X73900000Y-57000000D01*
X90100000Y-57000000D02*
X88400000Y-57000000D01*
X88400000Y-57000000D02*
X88400000Y-60000000D01*
X88400000Y-60000000D02*
X90100000Y-60000000D01*
X90100000Y-60000000D02*
X90100000Y-57000000D01*
%TD*%
M02*
