%TF.GenerationSoftware,KiCad,Pcbnew,7.0.5-0*%
%TF.CreationDate,2024-02-04T17:51:19+01:00*%
%TF.ProjectId,AmplifierBoard,416d706c-6966-4696-9572-426f6172642e,rev?*%
%TF.SameCoordinates,Original*%
%TF.FileFunction,Soldermask,Bot*%
%TF.FilePolarity,Negative*%
%FSLAX46Y46*%
G04 Gerber Fmt 4.6, Leading zero omitted, Abs format (unit mm)*
G04 Created by KiCad (PCBNEW 7.0.5-0) date 2024-02-04 17:51:19*
%MOMM*%
%LPD*%
G01*
G04 APERTURE LIST*
G04 Aperture macros list*
%AMRoundRect*
0 Rectangle with rounded corners*
0 $1 Rounding radius*
0 $2 $3 $4 $5 $6 $7 $8 $9 X,Y pos of 4 corners*
0 Add a 4 corners polygon primitive as box body*
4,1,4,$2,$3,$4,$5,$6,$7,$8,$9,$2,$3,0*
0 Add four circle primitives for the rounded corners*
1,1,$1+$1,$2,$3*
1,1,$1+$1,$4,$5*
1,1,$1+$1,$6,$7*
1,1,$1+$1,$8,$9*
0 Add four rect primitives between the rounded corners*
20,1,$1+$1,$2,$3,$4,$5,0*
20,1,$1+$1,$4,$5,$6,$7,0*
20,1,$1+$1,$6,$7,$8,$9,0*
20,1,$1+$1,$8,$9,$2,$3,0*%
%AMFreePoly0*
4,1,19,0.500000,-0.750000,0.000000,-0.750000,0.000000,-0.744911,-0.071157,-0.744911,-0.207708,-0.704816,-0.327430,-0.627875,-0.420627,-0.520320,-0.479746,-0.390866,-0.500000,-0.250000,-0.500000,0.250000,-0.479746,0.390866,-0.420627,0.520320,-0.327430,0.627875,-0.207708,0.704816,-0.071157,0.744911,0.000000,0.744911,0.000000,0.750000,0.500000,0.750000,0.500000,-0.750000,0.500000,-0.750000,
$1*%
%AMFreePoly1*
4,1,19,0.000000,0.744911,0.071157,0.744911,0.207708,0.704816,0.327430,0.627875,0.420627,0.520320,0.479746,0.390866,0.500000,0.250000,0.500000,-0.250000,0.479746,-0.390866,0.420627,-0.520320,0.327430,-0.627875,0.207708,-0.704816,0.071157,-0.744911,0.000000,-0.744911,0.000000,-0.750000,-0.500000,-0.750000,-0.500000,0.750000,0.000000,0.750000,0.000000,0.744911,0.000000,0.744911,
$1*%
G04 Aperture macros list end*
%ADD10C,2.000000*%
%ADD11C,2.286000*%
%ADD12C,1.600000*%
%ADD13O,6.200000X9.200000*%
%ADD14C,3.000000*%
%ADD15O,2.000000X1.500000*%
%ADD16R,3.200000X3.200000*%
%ADD17O,3.200000X3.200000*%
%ADD18C,2.800000*%
%ADD19R,2.000000X1.905000*%
%ADD20O,2.000000X1.905000*%
%ADD21C,1.440000*%
%ADD22RoundRect,0.250000X-0.750000X-1.550000X0.750000X-1.550000X0.750000X1.550000X-0.750000X1.550000X0*%
%ADD23O,2.000000X3.600000*%
%ADD24R,1.905000X2.000000*%
%ADD25O,1.905000X2.000000*%
%ADD26R,1.700000X1.700000*%
%ADD27O,1.700000X1.700000*%
%ADD28RoundRect,0.250000X0.600000X0.600000X-0.600000X0.600000X-0.600000X-0.600000X0.600000X-0.600000X0*%
%ADD29C,1.700000*%
%ADD30RoundRect,0.250000X0.475000X-0.337500X0.475000X0.337500X-0.475000X0.337500X-0.475000X-0.337500X0*%
%ADD31FreePoly0,270.000000*%
%ADD32FreePoly1,270.000000*%
%ADD33RoundRect,0.250000X-0.337500X-0.475000X0.337500X-0.475000X0.337500X0.475000X-0.337500X0.475000X0*%
%ADD34FreePoly0,180.000000*%
%ADD35FreePoly1,180.000000*%
%ADD36RoundRect,0.237500X-0.250000X-0.237500X0.250000X-0.237500X0.250000X0.237500X-0.250000X0.237500X0*%
%ADD37RoundRect,0.250000X-0.325000X-0.450000X0.325000X-0.450000X0.325000X0.450000X-0.325000X0.450000X0*%
%ADD38RoundRect,0.250000X0.400000X0.625000X-0.400000X0.625000X-0.400000X-0.625000X0.400000X-0.625000X0*%
%ADD39RoundRect,0.250000X0.337500X0.475000X-0.337500X0.475000X-0.337500X-0.475000X0.337500X-0.475000X0*%
%ADD40RoundRect,0.250000X-0.400000X-0.625000X0.400000X-0.625000X0.400000X0.625000X-0.400000X0.625000X0*%
%ADD41RoundRect,0.250000X0.325000X0.450000X-0.325000X0.450000X-0.325000X-0.450000X0.325000X-0.450000X0*%
G04 APERTURE END LIST*
D10*
%TO.C,C26*%
X242000000Y-88000000D03*
X234500000Y-88000000D03*
%TD*%
D11*
%TO.C,J3*%
X107000000Y-58000000D03*
X103000000Y-61250000D03*
X111000000Y-62500000D03*
%TD*%
D10*
%TO.C,C25*%
X227000000Y-88000000D03*
X219500000Y-88000000D03*
%TD*%
D12*
%TO.C,C29*%
X215000000Y-96000000D03*
X215000000Y-91000000D03*
%TD*%
D13*
%TO.C,H2*%
X250000000Y-56000000D03*
%TD*%
D14*
%TO.C,HS5*%
X124000000Y-61110000D03*
X124000000Y-78890000D03*
%TD*%
D12*
%TO.C,C27*%
X226000000Y-83500000D03*
X221000000Y-83500000D03*
%TD*%
D15*
%TO.C,J1*%
X175000000Y-53000000D03*
D10*
X175000000Y-57400000D03*
%TD*%
D16*
%TO.C,D1*%
X146050000Y-72000000D03*
D17*
X161290000Y-72000000D03*
%TD*%
D12*
%TO.C,C20*%
X204900000Y-83500000D03*
X199900000Y-83500000D03*
%TD*%
D13*
%TO.C,H1*%
X50000000Y-56000000D03*
%TD*%
D12*
%TO.C,C24*%
X249500000Y-99000000D03*
X249500000Y-104000000D03*
%TD*%
D10*
%TO.C,J2*%
X56900000Y-61600000D03*
D18*
X57750000Y-56000000D03*
D10*
X61500000Y-55600000D03*
D18*
X65250000Y-56000000D03*
D10*
X66100000Y-61600000D03*
D12*
X58960000Y-59500000D03*
X61500000Y-59500000D03*
X64040000Y-59500000D03*
%TD*%
D14*
%TO.C,HS1*%
X194000000Y-110000000D03*
X194000000Y-148000000D03*
X232000000Y-110000000D03*
X232000000Y-148000000D03*
%TD*%
D11*
%TO.C,J4*%
X82000000Y-58000000D03*
X78000000Y-61250000D03*
X86000000Y-62500000D03*
%TD*%
D12*
%TO.C,C19*%
X191000000Y-83500000D03*
X186000000Y-83500000D03*
%TD*%
D19*
%TO.C,U14*%
X125500000Y-72540000D03*
D20*
X125500000Y-70000000D03*
X125500000Y-67460000D03*
%TD*%
D21*
%TO.C,RV2*%
X136500000Y-143000000D03*
X136500000Y-140460000D03*
X136500000Y-137920000D03*
%TD*%
D12*
%TO.C,C22*%
X196000000Y-88500000D03*
X196000000Y-83500000D03*
%TD*%
D13*
%TO.C,H4*%
X250000000Y-137000000D03*
%TD*%
D22*
%TO.C,J5*%
X194500000Y-76000000D03*
D23*
X199500000Y-76000000D03*
%TD*%
D21*
%TO.C,RV1*%
X155500000Y-143040000D03*
X155500000Y-140500000D03*
X155500000Y-137960000D03*
%TD*%
D12*
%TO.C,C15*%
X176500000Y-99000000D03*
X176500000Y-104000000D03*
%TD*%
%TO.C,C21*%
X211000000Y-91000000D03*
X211000000Y-96000000D03*
%TD*%
D19*
%TO.C,U3*%
X129500000Y-90000000D03*
D20*
X129500000Y-92540000D03*
X129500000Y-95080000D03*
%TD*%
D24*
%TO.C,U2*%
X152540000Y-96000000D03*
D25*
X150000000Y-96000000D03*
X147460000Y-96000000D03*
%TD*%
D12*
%TO.C,C45*%
X100225000Y-121100000D03*
X100225000Y-126100000D03*
%TD*%
D10*
%TO.C,C17*%
X192000000Y-88000000D03*
X184500000Y-88000000D03*
%TD*%
D26*
%TO.C,J9*%
X56000000Y-111000000D03*
D27*
X53460000Y-111000000D03*
X50920000Y-111000000D03*
%TD*%
D10*
%TO.C,C18*%
X207000000Y-88000000D03*
X199500000Y-88000000D03*
%TD*%
D12*
%TO.C,C16*%
X179500000Y-99000000D03*
X179500000Y-104000000D03*
%TD*%
D14*
%TO.C,HS2*%
X141110000Y-97500000D03*
X158890000Y-97500000D03*
%TD*%
D12*
%TO.C,C23*%
X246500000Y-99000000D03*
X246500000Y-104000000D03*
%TD*%
%TO.C,C28*%
X240100000Y-83500000D03*
X235100000Y-83500000D03*
%TD*%
%TO.C,C41*%
X100225000Y-105200000D03*
X100225000Y-110200000D03*
%TD*%
D22*
%TO.C,J6*%
X226500000Y-76000000D03*
D23*
X231500000Y-76000000D03*
%TD*%
D28*
%TO.C,J8*%
X54727500Y-124545000D03*
D29*
X52187500Y-124545000D03*
X54727500Y-122005000D03*
X52187500Y-122005000D03*
X54727500Y-119465000D03*
X52187500Y-119465000D03*
%TD*%
D19*
%TO.C,U9*%
X122000000Y-89960000D03*
D20*
X122000000Y-92500000D03*
X122000000Y-95040000D03*
%TD*%
D12*
%TO.C,C30*%
X230600000Y-83500000D03*
X230600000Y-88500000D03*
%TD*%
D13*
%TO.C,H3*%
X50000000Y-137000000D03*
%TD*%
D30*
%TO.C,C12*%
X204000000Y-132037500D03*
X204000000Y-129962500D03*
%TD*%
D31*
%TO.C,JP6*%
X225500000Y-130350000D03*
D32*
X225500000Y-131650000D03*
%TD*%
D33*
%TO.C,C8*%
X214462500Y-139000000D03*
X216537500Y-139000000D03*
%TD*%
D34*
%TO.C,JP1*%
X118650000Y-52500000D03*
D35*
X117350000Y-52500000D03*
%TD*%
D36*
%TO.C,R7*%
X206587500Y-134750000D03*
X208412500Y-134750000D03*
%TD*%
D37*
%TO.C,L17*%
X201475000Y-137000000D03*
X203525000Y-137000000D03*
%TD*%
D36*
%TO.C,R8*%
X206587500Y-136500000D03*
X208412500Y-136500000D03*
%TD*%
D30*
%TO.C,C13*%
X222000000Y-132037500D03*
X222000000Y-129962500D03*
%TD*%
D33*
%TO.C,C5*%
X216262500Y-129500000D03*
X218337500Y-129500000D03*
%TD*%
D38*
%TO.C,R6*%
X240550000Y-80500000D03*
X237450000Y-80500000D03*
%TD*%
D33*
%TO.C,C14*%
X201462500Y-139000000D03*
X203537500Y-139000000D03*
%TD*%
D39*
%TO.C,C2*%
X209737500Y-129500000D03*
X207662500Y-129500000D03*
%TD*%
D40*
%TO.C,R3*%
X185650000Y-80500000D03*
X188750000Y-80500000D03*
%TD*%
D39*
%TO.C,C1*%
X209737500Y-131500000D03*
X207662500Y-131500000D03*
%TD*%
D33*
%TO.C,C9*%
X214462500Y-137000000D03*
X216537500Y-137000000D03*
%TD*%
%TO.C,C4*%
X216262500Y-131500000D03*
X218337500Y-131500000D03*
%TD*%
D39*
%TO.C,C7*%
X211037500Y-139000000D03*
X208962500Y-139000000D03*
%TD*%
D41*
%TO.C,L19*%
X225025000Y-139000000D03*
X222975000Y-139000000D03*
%TD*%
D33*
%TO.C,C10*%
X218962500Y-138000000D03*
X221037500Y-138000000D03*
%TD*%
M02*
