%TF.GenerationSoftware,KiCad,Pcbnew,7.0.5-0*%
%TF.CreationDate,2024-02-04T17:51:19+01:00*%
%TF.ProjectId,AmplifierBoard,416d706c-6966-4696-9572-426f6172642e,rev?*%
%TF.SameCoordinates,Original*%
%TF.FileFunction,Legend,Bot*%
%TF.FilePolarity,Positive*%
%FSLAX46Y46*%
G04 Gerber Fmt 4.6, Leading zero omitted, Abs format (unit mm)*
G04 Created by KiCad (PCBNEW 7.0.5-0) date 2024-02-04 17:51:19*
%MOMM*%
%LPD*%
G01*
G04 APERTURE LIST*
G04 Aperture macros list*
%AMRoundRect*
0 Rectangle with rounded corners*
0 $1 Rounding radius*
0 $2 $3 $4 $5 $6 $7 $8 $9 X,Y pos of 4 corners*
0 Add a 4 corners polygon primitive as box body*
4,1,4,$2,$3,$4,$5,$6,$7,$8,$9,$2,$3,0*
0 Add four circle primitives for the rounded corners*
1,1,$1+$1,$2,$3*
1,1,$1+$1,$4,$5*
1,1,$1+$1,$6,$7*
1,1,$1+$1,$8,$9*
0 Add four rect primitives between the rounded corners*
20,1,$1+$1,$2,$3,$4,$5,0*
20,1,$1+$1,$4,$5,$6,$7,0*
20,1,$1+$1,$6,$7,$8,$9,0*
20,1,$1+$1,$8,$9,$2,$3,0*%
%AMFreePoly0*
4,1,19,0.500000,-0.750000,0.000000,-0.750000,0.000000,-0.744911,-0.071157,-0.744911,-0.207708,-0.704816,-0.327430,-0.627875,-0.420627,-0.520320,-0.479746,-0.390866,-0.500000,-0.250000,-0.500000,0.250000,-0.479746,0.390866,-0.420627,0.520320,-0.327430,0.627875,-0.207708,0.704816,-0.071157,0.744911,0.000000,0.744911,0.000000,0.750000,0.500000,0.750000,0.500000,-0.750000,0.500000,-0.750000,
$1*%
%AMFreePoly1*
4,1,19,0.000000,0.744911,0.071157,0.744911,0.207708,0.704816,0.327430,0.627875,0.420627,0.520320,0.479746,0.390866,0.500000,0.250000,0.500000,-0.250000,0.479746,-0.390866,0.420627,-0.520320,0.327430,-0.627875,0.207708,-0.704816,0.071157,-0.744911,0.000000,-0.744911,0.000000,-0.750000,-0.500000,-0.750000,-0.500000,0.750000,0.000000,0.750000,0.000000,0.744911,0.000000,0.744911,
$1*%
G04 Aperture macros list end*
%ADD10C,0.150000*%
%ADD11C,0.120000*%
%ADD12C,2.000000*%
%ADD13C,2.286000*%
%ADD14C,1.600000*%
%ADD15O,6.200000X9.200000*%
%ADD16C,3.000000*%
%ADD17O,2.000000X1.500000*%
%ADD18R,3.200000X3.200000*%
%ADD19O,3.200000X3.200000*%
%ADD20C,2.800000*%
%ADD21R,2.000000X1.905000*%
%ADD22O,2.000000X1.905000*%
%ADD23C,1.440000*%
%ADD24RoundRect,0.250000X-0.750000X-1.550000X0.750000X-1.550000X0.750000X1.550000X-0.750000X1.550000X0*%
%ADD25O,2.000000X3.600000*%
%ADD26R,1.905000X2.000000*%
%ADD27O,1.905000X2.000000*%
%ADD28R,1.700000X1.700000*%
%ADD29O,1.700000X1.700000*%
%ADD30RoundRect,0.250000X0.600000X0.600000X-0.600000X0.600000X-0.600000X-0.600000X0.600000X-0.600000X0*%
%ADD31C,1.700000*%
%ADD32RoundRect,0.250000X0.475000X-0.337500X0.475000X0.337500X-0.475000X0.337500X-0.475000X-0.337500X0*%
%ADD33FreePoly0,270.000000*%
%ADD34FreePoly1,270.000000*%
%ADD35RoundRect,0.250000X-0.337500X-0.475000X0.337500X-0.475000X0.337500X0.475000X-0.337500X0.475000X0*%
%ADD36FreePoly0,180.000000*%
%ADD37FreePoly1,180.000000*%
%ADD38RoundRect,0.237500X-0.250000X-0.237500X0.250000X-0.237500X0.250000X0.237500X-0.250000X0.237500X0*%
%ADD39RoundRect,0.250000X-0.325000X-0.450000X0.325000X-0.450000X0.325000X0.450000X-0.325000X0.450000X0*%
%ADD40RoundRect,0.250000X0.400000X0.625000X-0.400000X0.625000X-0.400000X-0.625000X0.400000X-0.625000X0*%
%ADD41RoundRect,0.250000X0.337500X0.475000X-0.337500X0.475000X-0.337500X-0.475000X0.337500X-0.475000X0*%
%ADD42RoundRect,0.250000X-0.400000X-0.625000X0.400000X-0.625000X0.400000X0.625000X-0.400000X0.625000X0*%
%ADD43RoundRect,0.250000X0.325000X0.450000X-0.325000X0.450000X-0.325000X-0.450000X0.325000X-0.450000X0*%
G04 APERTURE END LIST*
D10*
%TO.C,C12*%
X206039580Y-130357142D02*
X206087200Y-130309523D01*
X206087200Y-130309523D02*
X206134819Y-130166666D01*
X206134819Y-130166666D02*
X206134819Y-130071428D01*
X206134819Y-130071428D02*
X206087200Y-129928571D01*
X206087200Y-129928571D02*
X205991961Y-129833333D01*
X205991961Y-129833333D02*
X205896723Y-129785714D01*
X205896723Y-129785714D02*
X205706247Y-129738095D01*
X205706247Y-129738095D02*
X205563390Y-129738095D01*
X205563390Y-129738095D02*
X205372914Y-129785714D01*
X205372914Y-129785714D02*
X205277676Y-129833333D01*
X205277676Y-129833333D02*
X205182438Y-129928571D01*
X205182438Y-129928571D02*
X205134819Y-130071428D01*
X205134819Y-130071428D02*
X205134819Y-130166666D01*
X205134819Y-130166666D02*
X205182438Y-130309523D01*
X205182438Y-130309523D02*
X205230057Y-130357142D01*
X206134819Y-131309523D02*
X206134819Y-130738095D01*
X206134819Y-131023809D02*
X205134819Y-131023809D01*
X205134819Y-131023809D02*
X205277676Y-130928571D01*
X205277676Y-130928571D02*
X205372914Y-130833333D01*
X205372914Y-130833333D02*
X205420533Y-130738095D01*
X205230057Y-131690476D02*
X205182438Y-131738095D01*
X205182438Y-131738095D02*
X205134819Y-131833333D01*
X205134819Y-131833333D02*
X205134819Y-132071428D01*
X205134819Y-132071428D02*
X205182438Y-132166666D01*
X205182438Y-132166666D02*
X205230057Y-132214285D01*
X205230057Y-132214285D02*
X205325295Y-132261904D01*
X205325295Y-132261904D02*
X205420533Y-132261904D01*
X205420533Y-132261904D02*
X205563390Y-132214285D01*
X205563390Y-132214285D02*
X206134819Y-131642857D01*
X206134819Y-131642857D02*
X206134819Y-132261904D01*
%TO.C,JP6*%
X226333333Y-133054819D02*
X226333333Y-133769104D01*
X226333333Y-133769104D02*
X226380952Y-133911961D01*
X226380952Y-133911961D02*
X226476190Y-134007200D01*
X226476190Y-134007200D02*
X226619047Y-134054819D01*
X226619047Y-134054819D02*
X226714285Y-134054819D01*
X225857142Y-134054819D02*
X225857142Y-133054819D01*
X225857142Y-133054819D02*
X225476190Y-133054819D01*
X225476190Y-133054819D02*
X225380952Y-133102438D01*
X225380952Y-133102438D02*
X225333333Y-133150057D01*
X225333333Y-133150057D02*
X225285714Y-133245295D01*
X225285714Y-133245295D02*
X225285714Y-133388152D01*
X225285714Y-133388152D02*
X225333333Y-133483390D01*
X225333333Y-133483390D02*
X225380952Y-133531009D01*
X225380952Y-133531009D02*
X225476190Y-133578628D01*
X225476190Y-133578628D02*
X225857142Y-133578628D01*
X224428571Y-133054819D02*
X224619047Y-133054819D01*
X224619047Y-133054819D02*
X224714285Y-133102438D01*
X224714285Y-133102438D02*
X224761904Y-133150057D01*
X224761904Y-133150057D02*
X224857142Y-133292914D01*
X224857142Y-133292914D02*
X224904761Y-133483390D01*
X224904761Y-133483390D02*
X224904761Y-133864342D01*
X224904761Y-133864342D02*
X224857142Y-133959580D01*
X224857142Y-133959580D02*
X224809523Y-134007200D01*
X224809523Y-134007200D02*
X224714285Y-134054819D01*
X224714285Y-134054819D02*
X224523809Y-134054819D01*
X224523809Y-134054819D02*
X224428571Y-134007200D01*
X224428571Y-134007200D02*
X224380952Y-133959580D01*
X224380952Y-133959580D02*
X224333333Y-133864342D01*
X224333333Y-133864342D02*
X224333333Y-133626247D01*
X224333333Y-133626247D02*
X224380952Y-133531009D01*
X224380952Y-133531009D02*
X224428571Y-133483390D01*
X224428571Y-133483390D02*
X224523809Y-133435771D01*
X224523809Y-133435771D02*
X224714285Y-133435771D01*
X224714285Y-133435771D02*
X224809523Y-133483390D01*
X224809523Y-133483390D02*
X224857142Y-133531009D01*
X224857142Y-133531009D02*
X224904761Y-133626247D01*
%TO.C,C8*%
X215666666Y-141059580D02*
X215714285Y-141107200D01*
X215714285Y-141107200D02*
X215857142Y-141154819D01*
X215857142Y-141154819D02*
X215952380Y-141154819D01*
X215952380Y-141154819D02*
X216095237Y-141107200D01*
X216095237Y-141107200D02*
X216190475Y-141011961D01*
X216190475Y-141011961D02*
X216238094Y-140916723D01*
X216238094Y-140916723D02*
X216285713Y-140726247D01*
X216285713Y-140726247D02*
X216285713Y-140583390D01*
X216285713Y-140583390D02*
X216238094Y-140392914D01*
X216238094Y-140392914D02*
X216190475Y-140297676D01*
X216190475Y-140297676D02*
X216095237Y-140202438D01*
X216095237Y-140202438D02*
X215952380Y-140154819D01*
X215952380Y-140154819D02*
X215857142Y-140154819D01*
X215857142Y-140154819D02*
X215714285Y-140202438D01*
X215714285Y-140202438D02*
X215666666Y-140250057D01*
X215095237Y-140583390D02*
X215190475Y-140535771D01*
X215190475Y-140535771D02*
X215238094Y-140488152D01*
X215238094Y-140488152D02*
X215285713Y-140392914D01*
X215285713Y-140392914D02*
X215285713Y-140345295D01*
X215285713Y-140345295D02*
X215238094Y-140250057D01*
X215238094Y-140250057D02*
X215190475Y-140202438D01*
X215190475Y-140202438D02*
X215095237Y-140154819D01*
X215095237Y-140154819D02*
X214904761Y-140154819D01*
X214904761Y-140154819D02*
X214809523Y-140202438D01*
X214809523Y-140202438D02*
X214761904Y-140250057D01*
X214761904Y-140250057D02*
X214714285Y-140345295D01*
X214714285Y-140345295D02*
X214714285Y-140392914D01*
X214714285Y-140392914D02*
X214761904Y-140488152D01*
X214761904Y-140488152D02*
X214809523Y-140535771D01*
X214809523Y-140535771D02*
X214904761Y-140583390D01*
X214904761Y-140583390D02*
X215095237Y-140583390D01*
X215095237Y-140583390D02*
X215190475Y-140631009D01*
X215190475Y-140631009D02*
X215238094Y-140678628D01*
X215238094Y-140678628D02*
X215285713Y-140773866D01*
X215285713Y-140773866D02*
X215285713Y-140964342D01*
X215285713Y-140964342D02*
X215238094Y-141059580D01*
X215238094Y-141059580D02*
X215190475Y-141107200D01*
X215190475Y-141107200D02*
X215095237Y-141154819D01*
X215095237Y-141154819D02*
X214904761Y-141154819D01*
X214904761Y-141154819D02*
X214809523Y-141107200D01*
X214809523Y-141107200D02*
X214761904Y-141059580D01*
X214761904Y-141059580D02*
X214714285Y-140964342D01*
X214714285Y-140964342D02*
X214714285Y-140773866D01*
X214714285Y-140773866D02*
X214761904Y-140678628D01*
X214761904Y-140678628D02*
X214809523Y-140631009D01*
X214809523Y-140631009D02*
X214904761Y-140583390D01*
%TO.C,JP1*%
X118833333Y-53954819D02*
X118833333Y-54669104D01*
X118833333Y-54669104D02*
X118880952Y-54811961D01*
X118880952Y-54811961D02*
X118976190Y-54907200D01*
X118976190Y-54907200D02*
X119119047Y-54954819D01*
X119119047Y-54954819D02*
X119214285Y-54954819D01*
X118357142Y-54954819D02*
X118357142Y-53954819D01*
X118357142Y-53954819D02*
X117976190Y-53954819D01*
X117976190Y-53954819D02*
X117880952Y-54002438D01*
X117880952Y-54002438D02*
X117833333Y-54050057D01*
X117833333Y-54050057D02*
X117785714Y-54145295D01*
X117785714Y-54145295D02*
X117785714Y-54288152D01*
X117785714Y-54288152D02*
X117833333Y-54383390D01*
X117833333Y-54383390D02*
X117880952Y-54431009D01*
X117880952Y-54431009D02*
X117976190Y-54478628D01*
X117976190Y-54478628D02*
X118357142Y-54478628D01*
X116833333Y-54954819D02*
X117404761Y-54954819D01*
X117119047Y-54954819D02*
X117119047Y-53954819D01*
X117119047Y-53954819D02*
X117214285Y-54097676D01*
X117214285Y-54097676D02*
X117309523Y-54192914D01*
X117309523Y-54192914D02*
X117404761Y-54240533D01*
%TO.C,R7*%
X210316666Y-135254819D02*
X210649999Y-134778628D01*
X210888094Y-135254819D02*
X210888094Y-134254819D01*
X210888094Y-134254819D02*
X210507142Y-134254819D01*
X210507142Y-134254819D02*
X210411904Y-134302438D01*
X210411904Y-134302438D02*
X210364285Y-134350057D01*
X210364285Y-134350057D02*
X210316666Y-134445295D01*
X210316666Y-134445295D02*
X210316666Y-134588152D01*
X210316666Y-134588152D02*
X210364285Y-134683390D01*
X210364285Y-134683390D02*
X210411904Y-134731009D01*
X210411904Y-134731009D02*
X210507142Y-134778628D01*
X210507142Y-134778628D02*
X210888094Y-134778628D01*
X209983332Y-134254819D02*
X209316666Y-134254819D01*
X209316666Y-134254819D02*
X209745237Y-135254819D01*
%TO.C,L17*%
X199792857Y-137454819D02*
X200269047Y-137454819D01*
X200269047Y-137454819D02*
X200269047Y-136454819D01*
X198935714Y-137454819D02*
X199507142Y-137454819D01*
X199221428Y-137454819D02*
X199221428Y-136454819D01*
X199221428Y-136454819D02*
X199316666Y-136597676D01*
X199316666Y-136597676D02*
X199411904Y-136692914D01*
X199411904Y-136692914D02*
X199507142Y-136740533D01*
X198602380Y-136454819D02*
X197935714Y-136454819D01*
X197935714Y-136454819D02*
X198364285Y-137454819D01*
%TO.C,R8*%
X210216666Y-136954819D02*
X210549999Y-136478628D01*
X210788094Y-136954819D02*
X210788094Y-135954819D01*
X210788094Y-135954819D02*
X210407142Y-135954819D01*
X210407142Y-135954819D02*
X210311904Y-136002438D01*
X210311904Y-136002438D02*
X210264285Y-136050057D01*
X210264285Y-136050057D02*
X210216666Y-136145295D01*
X210216666Y-136145295D02*
X210216666Y-136288152D01*
X210216666Y-136288152D02*
X210264285Y-136383390D01*
X210264285Y-136383390D02*
X210311904Y-136431009D01*
X210311904Y-136431009D02*
X210407142Y-136478628D01*
X210407142Y-136478628D02*
X210788094Y-136478628D01*
X209645237Y-136383390D02*
X209740475Y-136335771D01*
X209740475Y-136335771D02*
X209788094Y-136288152D01*
X209788094Y-136288152D02*
X209835713Y-136192914D01*
X209835713Y-136192914D02*
X209835713Y-136145295D01*
X209835713Y-136145295D02*
X209788094Y-136050057D01*
X209788094Y-136050057D02*
X209740475Y-136002438D01*
X209740475Y-136002438D02*
X209645237Y-135954819D01*
X209645237Y-135954819D02*
X209454761Y-135954819D01*
X209454761Y-135954819D02*
X209359523Y-136002438D01*
X209359523Y-136002438D02*
X209311904Y-136050057D01*
X209311904Y-136050057D02*
X209264285Y-136145295D01*
X209264285Y-136145295D02*
X209264285Y-136192914D01*
X209264285Y-136192914D02*
X209311904Y-136288152D01*
X209311904Y-136288152D02*
X209359523Y-136335771D01*
X209359523Y-136335771D02*
X209454761Y-136383390D01*
X209454761Y-136383390D02*
X209645237Y-136383390D01*
X209645237Y-136383390D02*
X209740475Y-136431009D01*
X209740475Y-136431009D02*
X209788094Y-136478628D01*
X209788094Y-136478628D02*
X209835713Y-136573866D01*
X209835713Y-136573866D02*
X209835713Y-136764342D01*
X209835713Y-136764342D02*
X209788094Y-136859580D01*
X209788094Y-136859580D02*
X209740475Y-136907200D01*
X209740475Y-136907200D02*
X209645237Y-136954819D01*
X209645237Y-136954819D02*
X209454761Y-136954819D01*
X209454761Y-136954819D02*
X209359523Y-136907200D01*
X209359523Y-136907200D02*
X209311904Y-136859580D01*
X209311904Y-136859580D02*
X209264285Y-136764342D01*
X209264285Y-136764342D02*
X209264285Y-136573866D01*
X209264285Y-136573866D02*
X209311904Y-136478628D01*
X209311904Y-136478628D02*
X209359523Y-136431009D01*
X209359523Y-136431009D02*
X209454761Y-136383390D01*
%TO.C,C13*%
X222642857Y-133959580D02*
X222690476Y-134007200D01*
X222690476Y-134007200D02*
X222833333Y-134054819D01*
X222833333Y-134054819D02*
X222928571Y-134054819D01*
X222928571Y-134054819D02*
X223071428Y-134007200D01*
X223071428Y-134007200D02*
X223166666Y-133911961D01*
X223166666Y-133911961D02*
X223214285Y-133816723D01*
X223214285Y-133816723D02*
X223261904Y-133626247D01*
X223261904Y-133626247D02*
X223261904Y-133483390D01*
X223261904Y-133483390D02*
X223214285Y-133292914D01*
X223214285Y-133292914D02*
X223166666Y-133197676D01*
X223166666Y-133197676D02*
X223071428Y-133102438D01*
X223071428Y-133102438D02*
X222928571Y-133054819D01*
X222928571Y-133054819D02*
X222833333Y-133054819D01*
X222833333Y-133054819D02*
X222690476Y-133102438D01*
X222690476Y-133102438D02*
X222642857Y-133150057D01*
X221690476Y-134054819D02*
X222261904Y-134054819D01*
X221976190Y-134054819D02*
X221976190Y-133054819D01*
X221976190Y-133054819D02*
X222071428Y-133197676D01*
X222071428Y-133197676D02*
X222166666Y-133292914D01*
X222166666Y-133292914D02*
X222261904Y-133340533D01*
X221357142Y-133054819D02*
X220738095Y-133054819D01*
X220738095Y-133054819D02*
X221071428Y-133435771D01*
X221071428Y-133435771D02*
X220928571Y-133435771D01*
X220928571Y-133435771D02*
X220833333Y-133483390D01*
X220833333Y-133483390D02*
X220785714Y-133531009D01*
X220785714Y-133531009D02*
X220738095Y-133626247D01*
X220738095Y-133626247D02*
X220738095Y-133864342D01*
X220738095Y-133864342D02*
X220785714Y-133959580D01*
X220785714Y-133959580D02*
X220833333Y-134007200D01*
X220833333Y-134007200D02*
X220928571Y-134054819D01*
X220928571Y-134054819D02*
X221214285Y-134054819D01*
X221214285Y-134054819D02*
X221309523Y-134007200D01*
X221309523Y-134007200D02*
X221357142Y-133959580D01*
%TO.C,C5*%
X214516666Y-129859580D02*
X214564285Y-129907200D01*
X214564285Y-129907200D02*
X214707142Y-129954819D01*
X214707142Y-129954819D02*
X214802380Y-129954819D01*
X214802380Y-129954819D02*
X214945237Y-129907200D01*
X214945237Y-129907200D02*
X215040475Y-129811961D01*
X215040475Y-129811961D02*
X215088094Y-129716723D01*
X215088094Y-129716723D02*
X215135713Y-129526247D01*
X215135713Y-129526247D02*
X215135713Y-129383390D01*
X215135713Y-129383390D02*
X215088094Y-129192914D01*
X215088094Y-129192914D02*
X215040475Y-129097676D01*
X215040475Y-129097676D02*
X214945237Y-129002438D01*
X214945237Y-129002438D02*
X214802380Y-128954819D01*
X214802380Y-128954819D02*
X214707142Y-128954819D01*
X214707142Y-128954819D02*
X214564285Y-129002438D01*
X214564285Y-129002438D02*
X214516666Y-129050057D01*
X213611904Y-128954819D02*
X214088094Y-128954819D01*
X214088094Y-128954819D02*
X214135713Y-129431009D01*
X214135713Y-129431009D02*
X214088094Y-129383390D01*
X214088094Y-129383390D02*
X213992856Y-129335771D01*
X213992856Y-129335771D02*
X213754761Y-129335771D01*
X213754761Y-129335771D02*
X213659523Y-129383390D01*
X213659523Y-129383390D02*
X213611904Y-129431009D01*
X213611904Y-129431009D02*
X213564285Y-129526247D01*
X213564285Y-129526247D02*
X213564285Y-129764342D01*
X213564285Y-129764342D02*
X213611904Y-129859580D01*
X213611904Y-129859580D02*
X213659523Y-129907200D01*
X213659523Y-129907200D02*
X213754761Y-129954819D01*
X213754761Y-129954819D02*
X213992856Y-129954819D01*
X213992856Y-129954819D02*
X214088094Y-129907200D01*
X214088094Y-129907200D02*
X214135713Y-129859580D01*
%TO.C,R6*%
X239166666Y-79134819D02*
X239499999Y-78658628D01*
X239738094Y-79134819D02*
X239738094Y-78134819D01*
X239738094Y-78134819D02*
X239357142Y-78134819D01*
X239357142Y-78134819D02*
X239261904Y-78182438D01*
X239261904Y-78182438D02*
X239214285Y-78230057D01*
X239214285Y-78230057D02*
X239166666Y-78325295D01*
X239166666Y-78325295D02*
X239166666Y-78468152D01*
X239166666Y-78468152D02*
X239214285Y-78563390D01*
X239214285Y-78563390D02*
X239261904Y-78611009D01*
X239261904Y-78611009D02*
X239357142Y-78658628D01*
X239357142Y-78658628D02*
X239738094Y-78658628D01*
X238309523Y-78134819D02*
X238499999Y-78134819D01*
X238499999Y-78134819D02*
X238595237Y-78182438D01*
X238595237Y-78182438D02*
X238642856Y-78230057D01*
X238642856Y-78230057D02*
X238738094Y-78372914D01*
X238738094Y-78372914D02*
X238785713Y-78563390D01*
X238785713Y-78563390D02*
X238785713Y-78944342D01*
X238785713Y-78944342D02*
X238738094Y-79039580D01*
X238738094Y-79039580D02*
X238690475Y-79087200D01*
X238690475Y-79087200D02*
X238595237Y-79134819D01*
X238595237Y-79134819D02*
X238404761Y-79134819D01*
X238404761Y-79134819D02*
X238309523Y-79087200D01*
X238309523Y-79087200D02*
X238261904Y-79039580D01*
X238261904Y-79039580D02*
X238214285Y-78944342D01*
X238214285Y-78944342D02*
X238214285Y-78706247D01*
X238214285Y-78706247D02*
X238261904Y-78611009D01*
X238261904Y-78611009D02*
X238309523Y-78563390D01*
X238309523Y-78563390D02*
X238404761Y-78515771D01*
X238404761Y-78515771D02*
X238595237Y-78515771D01*
X238595237Y-78515771D02*
X238690475Y-78563390D01*
X238690475Y-78563390D02*
X238738094Y-78611009D01*
X238738094Y-78611009D02*
X238785713Y-78706247D01*
%TO.C,C14*%
X199692857Y-139359580D02*
X199740476Y-139407200D01*
X199740476Y-139407200D02*
X199883333Y-139454819D01*
X199883333Y-139454819D02*
X199978571Y-139454819D01*
X199978571Y-139454819D02*
X200121428Y-139407200D01*
X200121428Y-139407200D02*
X200216666Y-139311961D01*
X200216666Y-139311961D02*
X200264285Y-139216723D01*
X200264285Y-139216723D02*
X200311904Y-139026247D01*
X200311904Y-139026247D02*
X200311904Y-138883390D01*
X200311904Y-138883390D02*
X200264285Y-138692914D01*
X200264285Y-138692914D02*
X200216666Y-138597676D01*
X200216666Y-138597676D02*
X200121428Y-138502438D01*
X200121428Y-138502438D02*
X199978571Y-138454819D01*
X199978571Y-138454819D02*
X199883333Y-138454819D01*
X199883333Y-138454819D02*
X199740476Y-138502438D01*
X199740476Y-138502438D02*
X199692857Y-138550057D01*
X198740476Y-139454819D02*
X199311904Y-139454819D01*
X199026190Y-139454819D02*
X199026190Y-138454819D01*
X199026190Y-138454819D02*
X199121428Y-138597676D01*
X199121428Y-138597676D02*
X199216666Y-138692914D01*
X199216666Y-138692914D02*
X199311904Y-138740533D01*
X197883333Y-138788152D02*
X197883333Y-139454819D01*
X198121428Y-138407200D02*
X198359523Y-139121485D01*
X198359523Y-139121485D02*
X197740476Y-139121485D01*
%TO.C,C2*%
X211716666Y-129859580D02*
X211764285Y-129907200D01*
X211764285Y-129907200D02*
X211907142Y-129954819D01*
X211907142Y-129954819D02*
X212002380Y-129954819D01*
X212002380Y-129954819D02*
X212145237Y-129907200D01*
X212145237Y-129907200D02*
X212240475Y-129811961D01*
X212240475Y-129811961D02*
X212288094Y-129716723D01*
X212288094Y-129716723D02*
X212335713Y-129526247D01*
X212335713Y-129526247D02*
X212335713Y-129383390D01*
X212335713Y-129383390D02*
X212288094Y-129192914D01*
X212288094Y-129192914D02*
X212240475Y-129097676D01*
X212240475Y-129097676D02*
X212145237Y-129002438D01*
X212145237Y-129002438D02*
X212002380Y-128954819D01*
X212002380Y-128954819D02*
X211907142Y-128954819D01*
X211907142Y-128954819D02*
X211764285Y-129002438D01*
X211764285Y-129002438D02*
X211716666Y-129050057D01*
X211335713Y-129050057D02*
X211288094Y-129002438D01*
X211288094Y-129002438D02*
X211192856Y-128954819D01*
X211192856Y-128954819D02*
X210954761Y-128954819D01*
X210954761Y-128954819D02*
X210859523Y-129002438D01*
X210859523Y-129002438D02*
X210811904Y-129050057D01*
X210811904Y-129050057D02*
X210764285Y-129145295D01*
X210764285Y-129145295D02*
X210764285Y-129240533D01*
X210764285Y-129240533D02*
X210811904Y-129383390D01*
X210811904Y-129383390D02*
X211383332Y-129954819D01*
X211383332Y-129954819D02*
X210764285Y-129954819D01*
%TO.C,R3*%
X187366666Y-79154819D02*
X187699999Y-78678628D01*
X187938094Y-79154819D02*
X187938094Y-78154819D01*
X187938094Y-78154819D02*
X187557142Y-78154819D01*
X187557142Y-78154819D02*
X187461904Y-78202438D01*
X187461904Y-78202438D02*
X187414285Y-78250057D01*
X187414285Y-78250057D02*
X187366666Y-78345295D01*
X187366666Y-78345295D02*
X187366666Y-78488152D01*
X187366666Y-78488152D02*
X187414285Y-78583390D01*
X187414285Y-78583390D02*
X187461904Y-78631009D01*
X187461904Y-78631009D02*
X187557142Y-78678628D01*
X187557142Y-78678628D02*
X187938094Y-78678628D01*
X187033332Y-78154819D02*
X186414285Y-78154819D01*
X186414285Y-78154819D02*
X186747618Y-78535771D01*
X186747618Y-78535771D02*
X186604761Y-78535771D01*
X186604761Y-78535771D02*
X186509523Y-78583390D01*
X186509523Y-78583390D02*
X186461904Y-78631009D01*
X186461904Y-78631009D02*
X186414285Y-78726247D01*
X186414285Y-78726247D02*
X186414285Y-78964342D01*
X186414285Y-78964342D02*
X186461904Y-79059580D01*
X186461904Y-79059580D02*
X186509523Y-79107200D01*
X186509523Y-79107200D02*
X186604761Y-79154819D01*
X186604761Y-79154819D02*
X186890475Y-79154819D01*
X186890475Y-79154819D02*
X186985713Y-79107200D01*
X186985713Y-79107200D02*
X187033332Y-79059580D01*
%TO.C,C1*%
X211666666Y-131859580D02*
X211714285Y-131907200D01*
X211714285Y-131907200D02*
X211857142Y-131954819D01*
X211857142Y-131954819D02*
X211952380Y-131954819D01*
X211952380Y-131954819D02*
X212095237Y-131907200D01*
X212095237Y-131907200D02*
X212190475Y-131811961D01*
X212190475Y-131811961D02*
X212238094Y-131716723D01*
X212238094Y-131716723D02*
X212285713Y-131526247D01*
X212285713Y-131526247D02*
X212285713Y-131383390D01*
X212285713Y-131383390D02*
X212238094Y-131192914D01*
X212238094Y-131192914D02*
X212190475Y-131097676D01*
X212190475Y-131097676D02*
X212095237Y-131002438D01*
X212095237Y-131002438D02*
X211952380Y-130954819D01*
X211952380Y-130954819D02*
X211857142Y-130954819D01*
X211857142Y-130954819D02*
X211714285Y-131002438D01*
X211714285Y-131002438D02*
X211666666Y-131050057D01*
X210714285Y-131954819D02*
X211285713Y-131954819D01*
X210999999Y-131954819D02*
X210999999Y-130954819D01*
X210999999Y-130954819D02*
X211095237Y-131097676D01*
X211095237Y-131097676D02*
X211190475Y-131192914D01*
X211190475Y-131192914D02*
X211285713Y-131240533D01*
%TO.C,C9*%
X215666666Y-135759580D02*
X215714285Y-135807200D01*
X215714285Y-135807200D02*
X215857142Y-135854819D01*
X215857142Y-135854819D02*
X215952380Y-135854819D01*
X215952380Y-135854819D02*
X216095237Y-135807200D01*
X216095237Y-135807200D02*
X216190475Y-135711961D01*
X216190475Y-135711961D02*
X216238094Y-135616723D01*
X216238094Y-135616723D02*
X216285713Y-135426247D01*
X216285713Y-135426247D02*
X216285713Y-135283390D01*
X216285713Y-135283390D02*
X216238094Y-135092914D01*
X216238094Y-135092914D02*
X216190475Y-134997676D01*
X216190475Y-134997676D02*
X216095237Y-134902438D01*
X216095237Y-134902438D02*
X215952380Y-134854819D01*
X215952380Y-134854819D02*
X215857142Y-134854819D01*
X215857142Y-134854819D02*
X215714285Y-134902438D01*
X215714285Y-134902438D02*
X215666666Y-134950057D01*
X215190475Y-135854819D02*
X214999999Y-135854819D01*
X214999999Y-135854819D02*
X214904761Y-135807200D01*
X214904761Y-135807200D02*
X214857142Y-135759580D01*
X214857142Y-135759580D02*
X214761904Y-135616723D01*
X214761904Y-135616723D02*
X214714285Y-135426247D01*
X214714285Y-135426247D02*
X214714285Y-135045295D01*
X214714285Y-135045295D02*
X214761904Y-134950057D01*
X214761904Y-134950057D02*
X214809523Y-134902438D01*
X214809523Y-134902438D02*
X214904761Y-134854819D01*
X214904761Y-134854819D02*
X215095237Y-134854819D01*
X215095237Y-134854819D02*
X215190475Y-134902438D01*
X215190475Y-134902438D02*
X215238094Y-134950057D01*
X215238094Y-134950057D02*
X215285713Y-135045295D01*
X215285713Y-135045295D02*
X215285713Y-135283390D01*
X215285713Y-135283390D02*
X215238094Y-135378628D01*
X215238094Y-135378628D02*
X215190475Y-135426247D01*
X215190475Y-135426247D02*
X215095237Y-135473866D01*
X215095237Y-135473866D02*
X214904761Y-135473866D01*
X214904761Y-135473866D02*
X214809523Y-135426247D01*
X214809523Y-135426247D02*
X214761904Y-135378628D01*
X214761904Y-135378628D02*
X214714285Y-135283390D01*
%TO.C,C4*%
X214516666Y-131859580D02*
X214564285Y-131907200D01*
X214564285Y-131907200D02*
X214707142Y-131954819D01*
X214707142Y-131954819D02*
X214802380Y-131954819D01*
X214802380Y-131954819D02*
X214945237Y-131907200D01*
X214945237Y-131907200D02*
X215040475Y-131811961D01*
X215040475Y-131811961D02*
X215088094Y-131716723D01*
X215088094Y-131716723D02*
X215135713Y-131526247D01*
X215135713Y-131526247D02*
X215135713Y-131383390D01*
X215135713Y-131383390D02*
X215088094Y-131192914D01*
X215088094Y-131192914D02*
X215040475Y-131097676D01*
X215040475Y-131097676D02*
X214945237Y-131002438D01*
X214945237Y-131002438D02*
X214802380Y-130954819D01*
X214802380Y-130954819D02*
X214707142Y-130954819D01*
X214707142Y-130954819D02*
X214564285Y-131002438D01*
X214564285Y-131002438D02*
X214516666Y-131050057D01*
X213659523Y-131288152D02*
X213659523Y-131954819D01*
X213897618Y-130907200D02*
X214135713Y-131621485D01*
X214135713Y-131621485D02*
X213516666Y-131621485D01*
%TO.C,C7*%
X207266666Y-139359580D02*
X207314285Y-139407200D01*
X207314285Y-139407200D02*
X207457142Y-139454819D01*
X207457142Y-139454819D02*
X207552380Y-139454819D01*
X207552380Y-139454819D02*
X207695237Y-139407200D01*
X207695237Y-139407200D02*
X207790475Y-139311961D01*
X207790475Y-139311961D02*
X207838094Y-139216723D01*
X207838094Y-139216723D02*
X207885713Y-139026247D01*
X207885713Y-139026247D02*
X207885713Y-138883390D01*
X207885713Y-138883390D02*
X207838094Y-138692914D01*
X207838094Y-138692914D02*
X207790475Y-138597676D01*
X207790475Y-138597676D02*
X207695237Y-138502438D01*
X207695237Y-138502438D02*
X207552380Y-138454819D01*
X207552380Y-138454819D02*
X207457142Y-138454819D01*
X207457142Y-138454819D02*
X207314285Y-138502438D01*
X207314285Y-138502438D02*
X207266666Y-138550057D01*
X206933332Y-138454819D02*
X206266666Y-138454819D01*
X206266666Y-138454819D02*
X206695237Y-139454819D01*
%TO.C,L19*%
X224642857Y-141204819D02*
X225119047Y-141204819D01*
X225119047Y-141204819D02*
X225119047Y-140204819D01*
X223785714Y-141204819D02*
X224357142Y-141204819D01*
X224071428Y-141204819D02*
X224071428Y-140204819D01*
X224071428Y-140204819D02*
X224166666Y-140347676D01*
X224166666Y-140347676D02*
X224261904Y-140442914D01*
X224261904Y-140442914D02*
X224357142Y-140490533D01*
X223309523Y-141204819D02*
X223119047Y-141204819D01*
X223119047Y-141204819D02*
X223023809Y-141157200D01*
X223023809Y-141157200D02*
X222976190Y-141109580D01*
X222976190Y-141109580D02*
X222880952Y-140966723D01*
X222880952Y-140966723D02*
X222833333Y-140776247D01*
X222833333Y-140776247D02*
X222833333Y-140395295D01*
X222833333Y-140395295D02*
X222880952Y-140300057D01*
X222880952Y-140300057D02*
X222928571Y-140252438D01*
X222928571Y-140252438D02*
X223023809Y-140204819D01*
X223023809Y-140204819D02*
X223214285Y-140204819D01*
X223214285Y-140204819D02*
X223309523Y-140252438D01*
X223309523Y-140252438D02*
X223357142Y-140300057D01*
X223357142Y-140300057D02*
X223404761Y-140395295D01*
X223404761Y-140395295D02*
X223404761Y-140633390D01*
X223404761Y-140633390D02*
X223357142Y-140728628D01*
X223357142Y-140728628D02*
X223309523Y-140776247D01*
X223309523Y-140776247D02*
X223214285Y-140823866D01*
X223214285Y-140823866D02*
X223023809Y-140823866D01*
X223023809Y-140823866D02*
X222928571Y-140776247D01*
X222928571Y-140776247D02*
X222880952Y-140728628D01*
X222880952Y-140728628D02*
X222833333Y-140633390D01*
%TO.C,C10*%
X220642857Y-140039580D02*
X220690476Y-140087200D01*
X220690476Y-140087200D02*
X220833333Y-140134819D01*
X220833333Y-140134819D02*
X220928571Y-140134819D01*
X220928571Y-140134819D02*
X221071428Y-140087200D01*
X221071428Y-140087200D02*
X221166666Y-139991961D01*
X221166666Y-139991961D02*
X221214285Y-139896723D01*
X221214285Y-139896723D02*
X221261904Y-139706247D01*
X221261904Y-139706247D02*
X221261904Y-139563390D01*
X221261904Y-139563390D02*
X221214285Y-139372914D01*
X221214285Y-139372914D02*
X221166666Y-139277676D01*
X221166666Y-139277676D02*
X221071428Y-139182438D01*
X221071428Y-139182438D02*
X220928571Y-139134819D01*
X220928571Y-139134819D02*
X220833333Y-139134819D01*
X220833333Y-139134819D02*
X220690476Y-139182438D01*
X220690476Y-139182438D02*
X220642857Y-139230057D01*
X219690476Y-140134819D02*
X220261904Y-140134819D01*
X219976190Y-140134819D02*
X219976190Y-139134819D01*
X219976190Y-139134819D02*
X220071428Y-139277676D01*
X220071428Y-139277676D02*
X220166666Y-139372914D01*
X220166666Y-139372914D02*
X220261904Y-139420533D01*
X219071428Y-139134819D02*
X218976190Y-139134819D01*
X218976190Y-139134819D02*
X218880952Y-139182438D01*
X218880952Y-139182438D02*
X218833333Y-139230057D01*
X218833333Y-139230057D02*
X218785714Y-139325295D01*
X218785714Y-139325295D02*
X218738095Y-139515771D01*
X218738095Y-139515771D02*
X218738095Y-139753866D01*
X218738095Y-139753866D02*
X218785714Y-139944342D01*
X218785714Y-139944342D02*
X218833333Y-140039580D01*
X218833333Y-140039580D02*
X218880952Y-140087200D01*
X218880952Y-140087200D02*
X218976190Y-140134819D01*
X218976190Y-140134819D02*
X219071428Y-140134819D01*
X219071428Y-140134819D02*
X219166666Y-140087200D01*
X219166666Y-140087200D02*
X219214285Y-140039580D01*
X219214285Y-140039580D02*
X219261904Y-139944342D01*
X219261904Y-139944342D02*
X219309523Y-139753866D01*
X219309523Y-139753866D02*
X219309523Y-139515771D01*
X219309523Y-139515771D02*
X219261904Y-139325295D01*
X219261904Y-139325295D02*
X219214285Y-139230057D01*
X219214285Y-139230057D02*
X219166666Y-139182438D01*
X219166666Y-139182438D02*
X219071428Y-139134819D01*
%TO.C,kibuzzard-65BCFB90*%
G36*
X222845414Y-75330869D02*
G01*
X222845414Y-75833313D01*
X222776357Y-75833313D01*
X222635864Y-75816941D01*
X222538232Y-75767828D01*
X222481082Y-75682401D01*
X222462032Y-75557088D01*
X222491401Y-75420827D01*
X222579507Y-75339071D01*
X222726351Y-75311819D01*
X222845414Y-75330869D01*
G37*
G36*
X222845414Y-76669131D02*
G01*
X222712064Y-76688181D01*
X222583178Y-76668834D01*
X222491798Y-76610791D01*
X222437327Y-76510480D01*
X222419170Y-76364331D01*
X222438815Y-76216098D01*
X222497751Y-76114300D01*
X222598954Y-76055364D01*
X222745401Y-76035719D01*
X222845414Y-76035719D01*
X222845414Y-76669131D01*
G37*
G36*
X224534249Y-76000000D02*
G01*
X223608207Y-77389062D01*
X223112114Y-77389062D01*
X222712064Y-77389062D01*
X221345226Y-77389062D01*
X220961845Y-77389062D01*
X220465751Y-77389062D01*
X220465751Y-76250031D01*
X220961845Y-76250031D01*
X221345226Y-76250031D01*
X221345226Y-76750094D01*
X221600020Y-76750094D01*
X221600020Y-76369094D01*
X222159614Y-76369094D01*
X222174959Y-76529167D01*
X222220997Y-76660135D01*
X222297726Y-76762000D01*
X222405147Y-76834760D01*
X222543259Y-76878417D01*
X222712064Y-76892969D01*
X222847530Y-76887677D01*
X222980880Y-76871802D01*
X223112114Y-76845344D01*
X223112114Y-75154656D01*
X222922804Y-75118938D01*
X222726351Y-75107031D01*
X222539471Y-75124367D01*
X222394119Y-75176373D01*
X222290297Y-75263051D01*
X222228003Y-75384399D01*
X222207239Y-75540419D01*
X222225991Y-75674959D01*
X222282248Y-75788069D01*
X222369461Y-75872603D01*
X222481082Y-75921419D01*
X222481082Y-75923800D01*
X222354578Y-75974402D01*
X222251292Y-76073819D01*
X222182533Y-76209550D01*
X222159614Y-76369094D01*
X221600020Y-76369094D01*
X221600020Y-76250031D01*
X221985782Y-76250031D01*
X221985782Y-76052388D01*
X221600020Y-76052388D01*
X221600020Y-75559469D01*
X221345226Y-75559469D01*
X221345226Y-76052388D01*
X220961845Y-76052388D01*
X220961845Y-76250031D01*
X220465751Y-76250031D01*
X220465751Y-74610938D01*
X220961845Y-74610938D01*
X223112114Y-74610938D01*
X223608207Y-74610938D01*
X224534249Y-76000000D01*
G37*
D11*
%TO.C,C12*%
X203265000Y-131261252D02*
X203265000Y-130738748D01*
X204735000Y-131261252D02*
X204735000Y-130738748D01*
%TO.C,JP6*%
X225800000Y-129600000D02*
X225200000Y-129600000D01*
X224500000Y-130300000D02*
X224500000Y-131700000D01*
X226500000Y-131700000D02*
X226500000Y-130300000D01*
X225200000Y-132400000D02*
X225800000Y-132400000D01*
X226500000Y-130300000D02*
G75*
G03*
X225800000Y-129600000I-699999J1D01*
G01*
X225200000Y-129600000D02*
G75*
G03*
X224500000Y-130300000I-1J-699999D01*
G01*
X225800000Y-132400000D02*
G75*
G03*
X226500000Y-131700000I0J700000D01*
G01*
X224500000Y-131700000D02*
G75*
G03*
X225200000Y-132400000I700000J0D01*
G01*
%TO.C,C8*%
X215238748Y-138265000D02*
X215761252Y-138265000D01*
X215238748Y-139735000D02*
X215761252Y-139735000D01*
%TO.C,JP1*%
X119400000Y-52800000D02*
X119400000Y-52200000D01*
X118700000Y-51500000D02*
X117300000Y-51500000D01*
X117300000Y-53500000D02*
X118700000Y-53500000D01*
X116600000Y-52200000D02*
X116600000Y-52800000D01*
X118700000Y-53500000D02*
G75*
G03*
X119400000Y-52800000I1J699999D01*
G01*
X119400000Y-52200000D02*
G75*
G03*
X118700000Y-51500000I-699999J1D01*
G01*
X116600000Y-52800000D02*
G75*
G03*
X117300000Y-53500000I700000J0D01*
G01*
X117300000Y-51500000D02*
G75*
G03*
X116600000Y-52200000I0J-700000D01*
G01*
%TO.C,kibuzzard-65BCFBA1*%
G36*
X236694065Y-75330869D02*
G01*
X236694065Y-75833313D01*
X236625008Y-75833313D01*
X236484515Y-75816941D01*
X236386883Y-75767828D01*
X236329733Y-75682401D01*
X236310683Y-75557088D01*
X236340052Y-75420827D01*
X236428158Y-75339071D01*
X236575002Y-75311819D01*
X236694065Y-75330869D01*
G37*
G36*
X236694065Y-76669131D02*
G01*
X236560715Y-76688181D01*
X236431829Y-76668834D01*
X236340449Y-76610791D01*
X236285978Y-76510480D01*
X236267821Y-76364331D01*
X236287466Y-76216098D01*
X236346402Y-76114300D01*
X236447605Y-76055364D01*
X236594052Y-76035719D01*
X236694065Y-76035719D01*
X236694065Y-76669131D01*
G37*
G36*
X237456858Y-77389062D02*
G01*
X236960765Y-77389062D01*
X236560715Y-77389062D01*
X235679652Y-77389062D01*
X234965277Y-77389062D01*
X234469183Y-77389062D01*
X233789205Y-76369094D01*
X236008265Y-76369094D01*
X236023610Y-76529167D01*
X236069648Y-76660135D01*
X236146377Y-76762000D01*
X236253798Y-76834760D01*
X236391910Y-76878417D01*
X236560715Y-76892969D01*
X236696181Y-76887677D01*
X236829531Y-76871802D01*
X236960765Y-76845344D01*
X236960765Y-75154656D01*
X236771455Y-75118938D01*
X236575002Y-75107031D01*
X236388122Y-75124367D01*
X236242770Y-75176373D01*
X236138948Y-75263051D01*
X236076654Y-75384399D01*
X236055890Y-75540419D01*
X236074642Y-75674959D01*
X236130899Y-75788069D01*
X236218112Y-75872603D01*
X236329733Y-75921419D01*
X236329733Y-75923800D01*
X236203229Y-75974402D01*
X236099943Y-76073819D01*
X236031184Y-76209550D01*
X236008265Y-76369094D01*
X233789205Y-76369094D01*
X233587592Y-76066675D01*
X234965277Y-76066675D01*
X234965277Y-76264319D01*
X235679652Y-76264319D01*
X235679652Y-76066675D01*
X234965277Y-76066675D01*
X233587592Y-76066675D01*
X233543142Y-76000000D01*
X234469183Y-74610938D01*
X234965277Y-74610938D01*
X236960765Y-74610938D01*
X237456858Y-74610938D01*
X237456858Y-77389062D01*
G37*
%TO.C,R7*%
X207245276Y-134227500D02*
X207754724Y-134227500D01*
X207245276Y-135272500D02*
X207754724Y-135272500D01*
%TO.C,kibuzzard-65BD00A1*%
G36*
X85136639Y-51913059D02*
G01*
X85242663Y-51928786D01*
X85346634Y-51954830D01*
X85447552Y-51990939D01*
X85544445Y-52036766D01*
X85636379Y-52091869D01*
X85722469Y-52155718D01*
X85801887Y-52227698D01*
X85873867Y-52307116D01*
X85937716Y-52393206D01*
X85992819Y-52485140D01*
X86038646Y-52582033D01*
X86074755Y-52682951D01*
X86100799Y-52786922D01*
X86116526Y-52892946D01*
X86121785Y-53000000D01*
X86116526Y-53107054D01*
X86100799Y-53213078D01*
X86074755Y-53317049D01*
X86038646Y-53417967D01*
X85992819Y-53514860D01*
X85937716Y-53606794D01*
X85873867Y-53692884D01*
X85801887Y-53772302D01*
X85722469Y-53844282D01*
X85636379Y-53908131D01*
X85544445Y-53963234D01*
X85447552Y-54009061D01*
X85346634Y-54045170D01*
X85242663Y-54071214D01*
X85136639Y-54086941D01*
X85029585Y-54092200D01*
X84632710Y-54092200D01*
X83975485Y-54092200D01*
X83061085Y-54092200D01*
X82794385Y-54092200D01*
X81142750Y-54092200D01*
X79580650Y-54092200D01*
X79367290Y-54092200D01*
X78970415Y-54092200D01*
X78863361Y-54086941D01*
X78757337Y-54071214D01*
X78653366Y-54045170D01*
X78552448Y-54009061D01*
X78455555Y-53963234D01*
X78363621Y-53908131D01*
X78277531Y-53844282D01*
X78198113Y-53772302D01*
X78126133Y-53692884D01*
X78062284Y-53606794D01*
X78007181Y-53514860D01*
X77961354Y-53417967D01*
X77925245Y-53317049D01*
X77899201Y-53213078D01*
X77883474Y-53107054D01*
X77878215Y-53000000D01*
X77883474Y-52892946D01*
X77899201Y-52786922D01*
X77925245Y-52682951D01*
X77961354Y-52582033D01*
X78007181Y-52485140D01*
X78062284Y-52393206D01*
X78126133Y-52307116D01*
X78128345Y-52304675D01*
X79367290Y-52304675D01*
X79367290Y-53695325D01*
X79580650Y-53695325D01*
X79580650Y-52504700D01*
X79584460Y-52502795D01*
X79912120Y-52685675D01*
X79912120Y-52498985D01*
X79578745Y-52304675D01*
X81142750Y-52304675D01*
X81142750Y-52470410D01*
X81596140Y-52470410D01*
X81596140Y-52866650D01*
X81161800Y-52866650D01*
X81161800Y-53028575D01*
X81596140Y-53028575D01*
X81596140Y-53529590D01*
X81142750Y-53529590D01*
X81142750Y-53695325D01*
X81809500Y-53695325D01*
X81809500Y-52304675D01*
X82070485Y-52304675D01*
X82070485Y-53695325D01*
X82283845Y-53695325D01*
X82581025Y-52685675D01*
X82584835Y-52685675D01*
X82584835Y-53695325D01*
X82794385Y-53695325D01*
X82794385Y-52304675D01*
X83061085Y-52304675D01*
X83061085Y-52470410D01*
X83274445Y-52470410D01*
X83274445Y-53529590D01*
X83061085Y-53529590D01*
X83061085Y-53695325D01*
X83708785Y-53695325D01*
X83975485Y-53695325D01*
X84632710Y-53695325D01*
X84632710Y-52304675D01*
X84419350Y-52304675D01*
X84419350Y-53529590D01*
X83975485Y-53529590D01*
X83975485Y-53695325D01*
X83708785Y-53695325D01*
X83708785Y-53529590D01*
X83495425Y-53529590D01*
X83495425Y-52470410D01*
X83708785Y-52470410D01*
X83708785Y-52304675D01*
X83061085Y-52304675D01*
X82794385Y-52304675D01*
X82573405Y-52304675D01*
X82276225Y-53314325D01*
X82270510Y-53314325D01*
X82270510Y-52304675D01*
X82070485Y-52304675D01*
X81809500Y-52304675D01*
X81142750Y-52304675D01*
X79578745Y-52304675D01*
X79367290Y-52304675D01*
X78128345Y-52304675D01*
X78198113Y-52227698D01*
X78277531Y-52155718D01*
X78363621Y-52091869D01*
X78455555Y-52036766D01*
X78552448Y-51990939D01*
X78653366Y-51954830D01*
X78757337Y-51928786D01*
X78863361Y-51913059D01*
X78970415Y-51907800D01*
X79367290Y-51907800D01*
X84632710Y-51907800D01*
X85029585Y-51907800D01*
X85136639Y-51913059D01*
G37*
%TO.C,kibuzzard-65BD008D*%
G36*
X63519776Y-52480649D02*
G01*
X63586928Y-52568517D01*
X63615503Y-52668530D01*
X63632648Y-52812357D01*
X63638363Y-53000000D01*
X63632648Y-53187642D01*
X63615503Y-53331470D01*
X63586928Y-53431482D01*
X63519776Y-53519351D01*
X63421193Y-53548640D01*
X63322609Y-53519351D01*
X63255458Y-53431482D01*
X63226883Y-53331470D01*
X63209738Y-53187642D01*
X63204023Y-53000000D01*
X63209738Y-52812357D01*
X63226883Y-52668530D01*
X63255458Y-52568517D01*
X63322609Y-52480649D01*
X63421193Y-52451360D01*
X63519776Y-52480649D01*
G37*
G36*
X65270014Y-51894101D02*
G01*
X65377887Y-51910102D01*
X65483671Y-51936600D01*
X65586349Y-51973339D01*
X65684932Y-52019965D01*
X65778470Y-52076029D01*
X65866062Y-52140992D01*
X65946865Y-52214228D01*
X66020100Y-52295030D01*
X66085063Y-52382623D01*
X66141128Y-52476160D01*
X66187754Y-52574743D01*
X66224492Y-52677421D01*
X66250990Y-52783206D01*
X66266992Y-52891078D01*
X66272342Y-53000000D01*
X66266992Y-53108922D01*
X66250990Y-53216794D01*
X66224492Y-53322579D01*
X66187754Y-53425257D01*
X66141128Y-53523840D01*
X66085063Y-53617377D01*
X66020100Y-53704970D01*
X65946865Y-53785772D01*
X65866062Y-53859008D01*
X65778470Y-53923971D01*
X65684932Y-53980035D01*
X65586349Y-54026661D01*
X65483671Y-54063400D01*
X65377887Y-54089898D01*
X65270014Y-54105899D01*
X65161093Y-54111250D01*
X64764218Y-54111250D01*
X64267013Y-54111250D01*
X63421193Y-54111250D01*
X62497268Y-54111250D01*
X61154243Y-54111250D01*
X60239843Y-54111250D01*
X59973143Y-54111250D01*
X58803473Y-54111250D01*
X58235783Y-54111250D01*
X57838908Y-54111250D01*
X57729986Y-54105899D01*
X57622113Y-54089898D01*
X57516329Y-54063400D01*
X57413651Y-54026661D01*
X57315068Y-53980035D01*
X57221530Y-53923971D01*
X57133938Y-53859008D01*
X57053135Y-53785772D01*
X56979900Y-53704970D01*
X56972747Y-53695325D01*
X58235783Y-53695325D01*
X58466288Y-53695325D01*
X58799663Y-53028575D01*
X58803473Y-53028575D01*
X58803473Y-53695325D01*
X59016833Y-53695325D01*
X59016833Y-52304675D01*
X59249243Y-52304675D01*
X59249243Y-53695325D01*
X59462603Y-53695325D01*
X59759783Y-52685675D01*
X59763593Y-52685675D01*
X59763593Y-53695325D01*
X59973143Y-53695325D01*
X59973143Y-52304675D01*
X60239843Y-52304675D01*
X60239843Y-52470410D01*
X60453203Y-52470410D01*
X60453203Y-53529590D01*
X60239843Y-53529590D01*
X60239843Y-53695325D01*
X60887543Y-53695325D01*
X61154243Y-53695325D01*
X61811468Y-53695325D01*
X61811468Y-53333375D01*
X62087693Y-53333375D01*
X62104076Y-53470535D01*
X62153225Y-53577215D01*
X62235140Y-53653415D01*
X62349821Y-53699135D01*
X62497268Y-53714375D01*
X62615378Y-53704215D01*
X62723328Y-53673735D01*
X62821118Y-53622935D01*
X62821118Y-53424815D01*
X62720576Y-53493607D01*
X62614531Y-53534882D01*
X62502983Y-53548640D01*
X62418210Y-53535543D01*
X62354393Y-53496253D01*
X62314388Y-53431721D01*
X62301053Y-53342900D01*
X62311292Y-53258128D01*
X62342010Y-53190500D01*
X62396541Y-53134779D01*
X62478218Y-53085725D01*
X62594952Y-53024765D01*
X62630490Y-53000000D01*
X63002093Y-53000000D01*
X63007278Y-53166793D01*
X63022836Y-53309033D01*
X63048765Y-53426720D01*
X63106153Y-53561499D01*
X63184973Y-53649605D01*
X63288795Y-53698183D01*
X63421193Y-53714375D01*
X63553590Y-53698183D01*
X63657413Y-53649605D01*
X63736232Y-53561499D01*
X63793620Y-53426720D01*
X63819549Y-53309033D01*
X63835107Y-53166793D01*
X63840293Y-53000000D01*
X63835107Y-52833207D01*
X63819549Y-52690967D01*
X63793620Y-52573280D01*
X63736232Y-52438501D01*
X63657413Y-52350395D01*
X63559698Y-52304675D01*
X63983168Y-52304675D01*
X63983168Y-52470410D01*
X64267013Y-52470410D01*
X64267013Y-53695325D01*
X64480373Y-53695325D01*
X64480373Y-52470410D01*
X64764218Y-52470410D01*
X64764218Y-52304675D01*
X63983168Y-52304675D01*
X63559698Y-52304675D01*
X63553590Y-52301817D01*
X63421193Y-52285625D01*
X63288795Y-52301817D01*
X63184973Y-52350395D01*
X63106153Y-52438501D01*
X63048765Y-52573280D01*
X63022836Y-52690967D01*
X63007278Y-52833207D01*
X63002093Y-53000000D01*
X62630490Y-53000000D01*
X62686074Y-52961265D01*
X62751585Y-52895225D01*
X62810878Y-52782830D01*
X62830643Y-52647575D01*
X62805639Y-52495175D01*
X62730630Y-52380875D01*
X62654536Y-52327958D01*
X62559603Y-52296208D01*
X62445833Y-52285625D01*
X62334919Y-52291975D01*
X62228239Y-52311025D01*
X62125793Y-52342775D01*
X62125793Y-52533275D01*
X62272954Y-52471839D01*
X62421068Y-52451360D01*
X62504411Y-52463742D01*
X62567753Y-52500890D01*
X62607758Y-52559945D01*
X62621093Y-52638050D01*
X62604159Y-52734782D01*
X62553359Y-52811617D01*
X62468693Y-52868555D01*
X62338941Y-52933960D01*
X62239246Y-53000635D01*
X62169608Y-53068580D01*
X62108171Y-53186214D01*
X62087693Y-53333375D01*
X61811468Y-53333375D01*
X61811468Y-52304675D01*
X61598108Y-52304675D01*
X61598108Y-53529590D01*
X61154243Y-53529590D01*
X61154243Y-53695325D01*
X60887543Y-53695325D01*
X60887543Y-53529590D01*
X60674183Y-53529590D01*
X60674183Y-52470410D01*
X60887543Y-52470410D01*
X60887543Y-52304675D01*
X60239843Y-52304675D01*
X59973143Y-52304675D01*
X59752163Y-52304675D01*
X59454983Y-53314325D01*
X59449268Y-53314325D01*
X59449268Y-52304675D01*
X59249243Y-52304675D01*
X59016833Y-52304675D01*
X58803473Y-52304675D01*
X58803473Y-52914275D01*
X58799663Y-52914275D01*
X58473908Y-52304675D01*
X58245308Y-52304675D01*
X58609163Y-52967615D01*
X58235783Y-53695325D01*
X56972747Y-53695325D01*
X56914937Y-53617377D01*
X56858873Y-53523840D01*
X56812246Y-53425257D01*
X56775508Y-53322579D01*
X56749010Y-53216794D01*
X56733008Y-53108922D01*
X56727658Y-53000000D01*
X56733008Y-52891078D01*
X56749010Y-52783206D01*
X56775508Y-52677421D01*
X56812246Y-52574743D01*
X56858873Y-52476160D01*
X56914937Y-52382623D01*
X56979900Y-52295030D01*
X57053135Y-52214228D01*
X57133938Y-52140992D01*
X57221530Y-52076029D01*
X57315068Y-52019965D01*
X57413651Y-51973339D01*
X57516329Y-51936600D01*
X57622113Y-51910102D01*
X57729986Y-51894101D01*
X57838908Y-51888750D01*
X58235783Y-51888750D01*
X64764218Y-51888750D01*
X65161093Y-51888750D01*
X65270014Y-51894101D01*
G37*
%TO.C,L17*%
X202238748Y-136290000D02*
X202761252Y-136290000D01*
X202238748Y-137710000D02*
X202761252Y-137710000D01*
%TO.C,kibuzzard-65BCFB77*%
G36*
X190781914Y-76209550D02*
G01*
X190455682Y-76209550D01*
X190617607Y-75392781D01*
X190619989Y-75392781D01*
X190781914Y-76209550D01*
G37*
G36*
X192585843Y-76000000D02*
G01*
X191675676Y-77365250D01*
X191179582Y-77365250D01*
X189293632Y-77365250D01*
X188910251Y-77365250D01*
X188414157Y-77365250D01*
X188414157Y-76869156D01*
X190048489Y-76869156D01*
X190324714Y-76869156D01*
X190415201Y-76411956D01*
X190822395Y-76411956D01*
X190912882Y-76869156D01*
X191179582Y-76869156D01*
X190770007Y-75130844D01*
X190460445Y-75130844D01*
X190048489Y-76869156D01*
X188414157Y-76869156D01*
X188414157Y-76250031D01*
X188910251Y-76250031D01*
X189293632Y-76250031D01*
X189293632Y-76750094D01*
X189548426Y-76750094D01*
X189548426Y-76250031D01*
X189934189Y-76250031D01*
X189934189Y-76052388D01*
X189548426Y-76052388D01*
X189548426Y-75559469D01*
X189293632Y-75559469D01*
X189293632Y-76052388D01*
X188910251Y-76052388D01*
X188910251Y-76250031D01*
X188414157Y-76250031D01*
X188414157Y-74634750D01*
X188910251Y-74634750D01*
X191179582Y-74634750D01*
X191675676Y-74634750D01*
X192585843Y-76000000D01*
G37*
%TO.C,R8*%
X207245276Y-135977500D02*
X207754724Y-135977500D01*
X207245276Y-137022500D02*
X207754724Y-137022500D01*
%TO.C,kibuzzard-65BCFB63*%
G36*
X204614690Y-76209550D02*
G01*
X204288458Y-76209550D01*
X204450383Y-75392781D01*
X204452765Y-75392781D01*
X204614690Y-76209550D01*
G37*
G36*
X205508452Y-77365250D02*
G01*
X205012358Y-77365250D01*
X203612183Y-77365250D01*
X202897808Y-77365250D01*
X202401715Y-77365250D01*
X202070986Y-76869156D01*
X203881265Y-76869156D01*
X204157490Y-76869156D01*
X204247977Y-76411956D01*
X204655171Y-76411956D01*
X204745658Y-76869156D01*
X205012358Y-76869156D01*
X204602783Y-75130844D01*
X204293221Y-75130844D01*
X203881265Y-76869156D01*
X202070986Y-76869156D01*
X201535998Y-76066675D01*
X202897808Y-76066675D01*
X202897808Y-76264319D01*
X203612183Y-76264319D01*
X203612183Y-76066675D01*
X202897808Y-76066675D01*
X201535998Y-76066675D01*
X201491548Y-76000000D01*
X202401715Y-74634750D01*
X202897808Y-74634750D01*
X205012358Y-74634750D01*
X205508452Y-74634750D01*
X205508452Y-77365250D01*
G37*
%TO.C,C13*%
X221265000Y-131261252D02*
X221265000Y-130738748D01*
X222735000Y-131261252D02*
X222735000Y-130738748D01*
%TO.C,C5*%
X217038748Y-128765000D02*
X217561252Y-128765000D01*
X217038748Y-130235000D02*
X217561252Y-130235000D01*
%TO.C,R6*%
X239727064Y-81410000D02*
X238272936Y-81410000D01*
X239727064Y-79590000D02*
X238272936Y-79590000D01*
%TO.C,C14*%
X202238748Y-138265000D02*
X202761252Y-138265000D01*
X202238748Y-139735000D02*
X202761252Y-139735000D01*
%TO.C,C2*%
X208961252Y-130235000D02*
X208438748Y-130235000D01*
X208961252Y-128765000D02*
X208438748Y-128765000D01*
%TO.C,R3*%
X186472936Y-79590000D02*
X187927064Y-79590000D01*
X186472936Y-81410000D02*
X187927064Y-81410000D01*
%TO.C,C1*%
X208961252Y-132235000D02*
X208438748Y-132235000D01*
X208961252Y-130765000D02*
X208438748Y-130765000D01*
%TO.C,C9*%
X215238748Y-136265000D02*
X215761252Y-136265000D01*
X215238748Y-137735000D02*
X215761252Y-137735000D01*
%TO.C,C4*%
X217038748Y-130765000D02*
X217561252Y-130765000D01*
X217038748Y-132235000D02*
X217561252Y-132235000D01*
%TO.C,C7*%
X210261252Y-139735000D02*
X209738748Y-139735000D01*
X210261252Y-138265000D02*
X209738748Y-138265000D01*
%TO.C,L19*%
X224261252Y-139710000D02*
X223738748Y-139710000D01*
X224261252Y-138290000D02*
X223738748Y-138290000D01*
%TO.C,C10*%
X219738748Y-137265000D02*
X220261252Y-137265000D01*
X219738748Y-138735000D02*
X220261252Y-138735000D01*
%TO.C,kibuzzard-65BD00A6*%
G36*
X110205200Y-51903580D02*
G01*
X110312148Y-51919444D01*
X110417026Y-51945715D01*
X110518824Y-51982139D01*
X110616562Y-52028365D01*
X110709298Y-52083949D01*
X110796139Y-52148355D01*
X110876250Y-52220963D01*
X110948857Y-52301073D01*
X111013263Y-52387914D01*
X111068847Y-52480650D01*
X111115074Y-52578388D01*
X111151498Y-52680186D01*
X111177768Y-52785064D01*
X111193632Y-52892012D01*
X111198938Y-53000000D01*
X111193632Y-53107988D01*
X111177768Y-53214936D01*
X111151498Y-53319814D01*
X111115074Y-53421612D01*
X111068847Y-53519350D01*
X111013263Y-53612086D01*
X110948857Y-53698927D01*
X110876250Y-53779037D01*
X110796139Y-53851645D01*
X110709298Y-53916051D01*
X110616562Y-53971635D01*
X110518824Y-54017861D01*
X110417026Y-54054285D01*
X110312148Y-54080556D01*
X110205200Y-54096420D01*
X110097212Y-54101725D01*
X109700337Y-54101725D01*
X109043112Y-54101725D01*
X108128712Y-54101725D01*
X107862012Y-54101725D01*
X106210377Y-54101725D01*
X104299662Y-54101725D01*
X103902787Y-54101725D01*
X103794800Y-54096420D01*
X103687852Y-54080556D01*
X103582974Y-54054285D01*
X103481176Y-54017861D01*
X103383438Y-53971635D01*
X103290702Y-53916051D01*
X103203861Y-53851645D01*
X103123750Y-53779037D01*
X103056511Y-53704850D01*
X104299662Y-53704850D01*
X104985462Y-53704850D01*
X104985462Y-53539115D01*
X104863154Y-53396940D01*
X104759662Y-53261063D01*
X104674986Y-53131484D01*
X104609128Y-53008203D01*
X104562086Y-52891221D01*
X104533861Y-52780536D01*
X104524452Y-52676150D01*
X104534692Y-52578995D01*
X104565410Y-52512320D01*
X104690187Y-52460885D01*
X104779722Y-52473373D01*
X104878147Y-52510838D01*
X104985462Y-52573280D01*
X104985462Y-52394210D01*
X104880052Y-52339177D01*
X104794554Y-52314200D01*
X106210377Y-52314200D01*
X106210377Y-52479935D01*
X106663767Y-52479935D01*
X106663767Y-52876175D01*
X106229427Y-52876175D01*
X106229427Y-53038100D01*
X106663767Y-53038100D01*
X106663767Y-53539115D01*
X106210377Y-53539115D01*
X106210377Y-53704850D01*
X106877127Y-53704850D01*
X106877127Y-52314200D01*
X107138112Y-52314200D01*
X107138112Y-53704850D01*
X107351472Y-53704850D01*
X107648652Y-52695200D01*
X107652462Y-52695200D01*
X107652462Y-53704850D01*
X107862012Y-53704850D01*
X107862012Y-52314200D01*
X108128712Y-52314200D01*
X108128712Y-52479935D01*
X108342072Y-52479935D01*
X108342072Y-53539115D01*
X108128712Y-53539115D01*
X108128712Y-53704850D01*
X108776412Y-53704850D01*
X109043112Y-53704850D01*
X109700337Y-53704850D01*
X109700337Y-52314200D01*
X109486977Y-52314200D01*
X109486977Y-53539115D01*
X109043112Y-53539115D01*
X109043112Y-53704850D01*
X108776412Y-53704850D01*
X108776412Y-53539115D01*
X108563052Y-53539115D01*
X108563052Y-52479935D01*
X108776412Y-52479935D01*
X108776412Y-52314200D01*
X108128712Y-52314200D01*
X107862012Y-52314200D01*
X107641032Y-52314200D01*
X107343852Y-53323850D01*
X107338137Y-53323850D01*
X107338137Y-52314200D01*
X107138112Y-52314200D01*
X106877127Y-52314200D01*
X106210377Y-52314200D01*
X104794554Y-52314200D01*
X104767022Y-52306157D01*
X104646372Y-52295150D01*
X104501831Y-52318724D01*
X104395865Y-52389448D01*
X104330857Y-52505891D01*
X104309187Y-52666625D01*
X104321147Y-52787275D01*
X104357024Y-52915545D01*
X104416820Y-53051435D01*
X104478911Y-53160258D01*
X104557552Y-53277178D01*
X104652742Y-53402193D01*
X104764482Y-53535305D01*
X104764482Y-53539115D01*
X104299662Y-53539115D01*
X104299662Y-53704850D01*
X103056511Y-53704850D01*
X103051143Y-53698927D01*
X102986737Y-53612086D01*
X102931153Y-53519350D01*
X102884926Y-53421612D01*
X102848502Y-53319814D01*
X102822232Y-53214936D01*
X102806368Y-53107988D01*
X102801062Y-53000000D01*
X102806368Y-52892012D01*
X102822232Y-52785064D01*
X102848502Y-52680186D01*
X102884926Y-52578388D01*
X102931153Y-52480650D01*
X102986737Y-52387914D01*
X103051143Y-52301073D01*
X103123750Y-52220963D01*
X103203861Y-52148355D01*
X103290702Y-52083949D01*
X103383438Y-52028365D01*
X103481176Y-51982139D01*
X103582974Y-51945715D01*
X103687852Y-51919444D01*
X103794800Y-51903580D01*
X103902787Y-51898275D01*
X104299662Y-51898275D01*
X109700337Y-51898275D01*
X110097212Y-51898275D01*
X110097213Y-51898275D01*
X110205200Y-51903580D01*
G37*
%TD*%
%LPC*%
D12*
%TO.C,C26*%
X242000000Y-88000000D03*
X234500000Y-88000000D03*
%TD*%
D13*
%TO.C,J3*%
X107000000Y-58000000D03*
X103000000Y-61250000D03*
X111000000Y-62500000D03*
%TD*%
D12*
%TO.C,C25*%
X227000000Y-88000000D03*
X219500000Y-88000000D03*
%TD*%
D14*
%TO.C,C29*%
X215000000Y-96000000D03*
X215000000Y-91000000D03*
%TD*%
D15*
%TO.C,H2*%
X250000000Y-56000000D03*
%TD*%
D16*
%TO.C,HS5*%
X124000000Y-61110000D03*
X124000000Y-78890000D03*
%TD*%
D14*
%TO.C,C27*%
X226000000Y-83500000D03*
X221000000Y-83500000D03*
%TD*%
D17*
%TO.C,J1*%
X175000000Y-53000000D03*
D12*
X175000000Y-57400000D03*
%TD*%
D18*
%TO.C,D1*%
X146050000Y-72000000D03*
D19*
X161290000Y-72000000D03*
%TD*%
D14*
%TO.C,C20*%
X204900000Y-83500000D03*
X199900000Y-83500000D03*
%TD*%
D15*
%TO.C,H1*%
X50000000Y-56000000D03*
%TD*%
D14*
%TO.C,C24*%
X249500000Y-99000000D03*
X249500000Y-104000000D03*
%TD*%
D12*
%TO.C,J2*%
X56900000Y-61600000D03*
D20*
X57750000Y-56000000D03*
D12*
X61500000Y-55600000D03*
D20*
X65250000Y-56000000D03*
D12*
X66100000Y-61600000D03*
D14*
X58960000Y-59500000D03*
X61500000Y-59500000D03*
X64040000Y-59500000D03*
%TD*%
D16*
%TO.C,HS1*%
X194000000Y-110000000D03*
X194000000Y-148000000D03*
X232000000Y-110000000D03*
X232000000Y-148000000D03*
%TD*%
D13*
%TO.C,J4*%
X82000000Y-58000000D03*
X78000000Y-61250000D03*
X86000000Y-62500000D03*
%TD*%
D14*
%TO.C,C19*%
X191000000Y-83500000D03*
X186000000Y-83500000D03*
%TD*%
D21*
%TO.C,U14*%
X125500000Y-72540000D03*
D22*
X125500000Y-70000000D03*
X125500000Y-67460000D03*
%TD*%
D23*
%TO.C,RV2*%
X136500000Y-143000000D03*
X136500000Y-140460000D03*
X136500000Y-137920000D03*
%TD*%
D14*
%TO.C,C22*%
X196000000Y-88500000D03*
X196000000Y-83500000D03*
%TD*%
D15*
%TO.C,H4*%
X250000000Y-137000000D03*
%TD*%
D24*
%TO.C,J5*%
X194500000Y-76000000D03*
D25*
X199500000Y-76000000D03*
%TD*%
D23*
%TO.C,RV1*%
X155500000Y-143040000D03*
X155500000Y-140500000D03*
X155500000Y-137960000D03*
%TD*%
D14*
%TO.C,C15*%
X176500000Y-99000000D03*
X176500000Y-104000000D03*
%TD*%
%TO.C,C21*%
X211000000Y-91000000D03*
X211000000Y-96000000D03*
%TD*%
D21*
%TO.C,U3*%
X129500000Y-90000000D03*
D22*
X129500000Y-92540000D03*
X129500000Y-95080000D03*
%TD*%
D26*
%TO.C,U2*%
X152540000Y-96000000D03*
D27*
X150000000Y-96000000D03*
X147460000Y-96000000D03*
%TD*%
D14*
%TO.C,C45*%
X100225000Y-121100000D03*
X100225000Y-126100000D03*
%TD*%
D12*
%TO.C,C17*%
X192000000Y-88000000D03*
X184500000Y-88000000D03*
%TD*%
D28*
%TO.C,J9*%
X56000000Y-111000000D03*
D29*
X53460000Y-111000000D03*
X50920000Y-111000000D03*
%TD*%
D12*
%TO.C,C18*%
X207000000Y-88000000D03*
X199500000Y-88000000D03*
%TD*%
D14*
%TO.C,C16*%
X179500000Y-99000000D03*
X179500000Y-104000000D03*
%TD*%
D16*
%TO.C,HS2*%
X141110000Y-97500000D03*
X158890000Y-97500000D03*
%TD*%
D14*
%TO.C,C23*%
X246500000Y-99000000D03*
X246500000Y-104000000D03*
%TD*%
%TO.C,C28*%
X240100000Y-83500000D03*
X235100000Y-83500000D03*
%TD*%
%TO.C,C41*%
X100225000Y-105200000D03*
X100225000Y-110200000D03*
%TD*%
D24*
%TO.C,J6*%
X226500000Y-76000000D03*
D25*
X231500000Y-76000000D03*
%TD*%
D30*
%TO.C,J8*%
X54727500Y-124545000D03*
D31*
X52187500Y-124545000D03*
X54727500Y-122005000D03*
X52187500Y-122005000D03*
X54727500Y-119465000D03*
X52187500Y-119465000D03*
%TD*%
D21*
%TO.C,U9*%
X122000000Y-89960000D03*
D22*
X122000000Y-92500000D03*
X122000000Y-95040000D03*
%TD*%
D14*
%TO.C,C30*%
X230600000Y-83500000D03*
X230600000Y-88500000D03*
%TD*%
D15*
%TO.C,H3*%
X50000000Y-137000000D03*
%TD*%
D32*
%TO.C,C12*%
X204000000Y-132037500D03*
X204000000Y-129962500D03*
%TD*%
D33*
%TO.C,JP6*%
X225500000Y-130350000D03*
D34*
X225500000Y-131650000D03*
%TD*%
D35*
%TO.C,C8*%
X214462500Y-139000000D03*
X216537500Y-139000000D03*
%TD*%
D36*
%TO.C,JP1*%
X118650000Y-52500000D03*
D37*
X117350000Y-52500000D03*
%TD*%
D38*
%TO.C,R7*%
X206587500Y-134750000D03*
X208412500Y-134750000D03*
%TD*%
D39*
%TO.C,L17*%
X201475000Y-137000000D03*
X203525000Y-137000000D03*
%TD*%
D38*
%TO.C,R8*%
X206587500Y-136500000D03*
X208412500Y-136500000D03*
%TD*%
D32*
%TO.C,C13*%
X222000000Y-132037500D03*
X222000000Y-129962500D03*
%TD*%
D35*
%TO.C,C5*%
X216262500Y-129500000D03*
X218337500Y-129500000D03*
%TD*%
D40*
%TO.C,R6*%
X240550000Y-80500000D03*
X237450000Y-80500000D03*
%TD*%
D35*
%TO.C,C14*%
X201462500Y-139000000D03*
X203537500Y-139000000D03*
%TD*%
D41*
%TO.C,C2*%
X209737500Y-129500000D03*
X207662500Y-129500000D03*
%TD*%
D42*
%TO.C,R3*%
X185650000Y-80500000D03*
X188750000Y-80500000D03*
%TD*%
D41*
%TO.C,C1*%
X209737500Y-131500000D03*
X207662500Y-131500000D03*
%TD*%
D35*
%TO.C,C9*%
X214462500Y-137000000D03*
X216537500Y-137000000D03*
%TD*%
%TO.C,C4*%
X216262500Y-131500000D03*
X218337500Y-131500000D03*
%TD*%
D41*
%TO.C,C7*%
X211037500Y-139000000D03*
X208962500Y-139000000D03*
%TD*%
D43*
%TO.C,L19*%
X225025000Y-139000000D03*
X222975000Y-139000000D03*
%TD*%
D35*
%TO.C,C10*%
X218962500Y-138000000D03*
X221037500Y-138000000D03*
%TD*%
%LPD*%
M02*
