M48
; DRILL file {KiCad 7.0.5-0} date 2024 February 04, Sunday 17:51:19
; FORMAT={-:-/ absolute / inch / decimal}
; #@! TF.CreationDate,2024-02-04T17:51:19+01:00
; #@! TF.GenerationSoftware,Kicad,Pcbnew,7.0.5-0
; #@! TF.FileFunction,Plated,1,2,PTH
FMAT,2
INCH
; #@! TA.AperFunction,Plated,PTH,ViaDrill
T1C0.0157
; #@! TA.AperFunction,Plated,PTH,ComponentDrill
T2C0.0315
; #@! TA.AperFunction,Plated,PTH,ComponentDrill
T3C0.0394
; #@! TA.AperFunction,Plated,PTH,ComponentDrill
T4C0.0433
; #@! TA.AperFunction,Plated,PTH,ComponentDrill
T5C0.0472
; #@! TA.AperFunction,Plated,PTH,ComponentDrill
T6C0.0551
; #@! TA.AperFunction,Plated,PTH,ComponentDrill
T7C0.0630
; #@! TA.AperFunction,Plated,PTH,ComponentDrill
T8C0.1260
%
G90
G05
T1
X2.1594Y-4.0551
X2.2047Y-3.7598
X2.2638Y-3.7598
X2.4803Y-3.8268
X2.5103Y-5.9055
X2.5157Y-3.8553
X2.5694Y-5.9646
X2.6284Y-6.0236
X2.6378Y-3.7402
X2.6378Y-5.0591
X2.6378Y-5.1772
X2.6772Y-4.7933
X2.6772Y-4.8425
X2.7559Y-4.8425
X2.7756Y-5.1378
X2.781Y-3.7741
X2.9232Y-5.5906
X2.9429Y-4.2028
X2.9528Y-3.7008
X2.9528Y-3.7795
X2.9626Y-5.6299
X2.9724Y-2.6181
X2.9921Y-3.7402
X2.9921Y-4.2028
X3.0413Y-4.2028
X3.061Y-5.1083
X3.061Y-5.1673
X3.1014Y-4.2018
X3.1201Y-5.1673
X3.1299Y-5.2559
X3.1299Y-5.5512
X3.1299Y-5.6299
X3.1299Y-5.7087
X3.1299Y-5.7874
X3.1496Y-2.5787
X3.1496Y-3.7598
X3.1496Y-4.872
X3.1496Y-6.0236
X3.1693Y-5.5118
X3.1693Y-5.5906
X3.1693Y-5.6693
X3.1693Y-5.748
X3.1693Y-5.8268
X3.1791Y-5.2559
X3.189Y-4.9213
X3.2087Y-2.6181
X3.2087Y-5.4724
X3.2185Y-4.872
X3.2441Y-3.9528
X3.2695Y-4.097
X3.2874Y-2.5787
X3.3136Y-5.3455
X3.3465Y-4.1339
X3.3465Y-5.1673
X3.4047Y-5.3945
X3.4154Y-4.4783
X3.4441Y-5.3586
X3.4843Y-2.6181
X3.4843Y-5.3937
X3.4843Y-5.6299
X3.5039Y-5.3543
X3.5039Y-5.4331
X3.5433Y-4.0748
X3.5433Y-5.0787
X3.563Y-4.2913
X3.563Y-5.6299
X3.5659Y-4.1762
X3.5827Y-4.1142
X3.6024Y-5.8268
X3.622Y-4.0748
X3.6417Y-5.7874
X3.6614Y-5.1772
X3.6614Y-5.2559
X3.6811Y-5.748
X3.7008Y-5.2165
X3.7205Y-5.7087
X3.7598Y-5.748
X3.7992Y-5.7874
X3.8386Y-5.748
X3.8583Y-4.5866
X3.8784Y-5.7869
X3.9567Y-2.6181
X4.0354Y-5.3021
X4.0551Y-5.0787
X4.0551Y-5.1378
X4.0748Y-5.374
X4.1142Y-5.0787
X4.1142Y-5.1378
X4.1339Y-2.5787
X4.1929Y-2.6181
X4.2126Y-5.2559
X4.2323Y-5.3346
X4.2913Y-2.5787
X4.4685Y-2.6181
X4.4685Y-5.2953
X4.5866Y-5.5315
X4.7047Y-5.2559
X4.7638Y-5.7874
X4.7736Y-5.2559
X4.7953Y-5.9055
X4.8228Y-5.7874
X4.8425Y-5.2559
X4.8504Y-5.9055
X4.9213Y-5.4724
X4.9409Y-3.878
X5.1757Y-5.2574
X5.1772Y-5.6693
X5.2559Y-5.4921
X5.2953Y-3.0118
X5.3543Y-3.0118
X5.4134Y-3.0118
X5.4134Y-3.3465
X5.4134Y-3.4055
X5.4724Y-3.0118
X5.4724Y-3.4055
X5.5315Y-3.0118
X5.5315Y-5.7874
X5.5906Y-2.5846
X5.5906Y-3.0118
X5.6496Y-2.5846
X5.6496Y-5.0787
X5.6496Y-5.1378
X5.689Y-5.1969
X5.689Y-5.4528
X5.689Y-5.5118
X5.748Y-4.7835
X5.8071Y-4.7835
X5.8071Y-5.4528
X5.8268Y-5.0984
X5.8268Y-5.7874
X5.8661Y-4.7835
X5.8661Y-5.748
X5.8661Y-5.7874
X5.9055Y-4.2717
X5.9055Y-5.748
X5.9055Y-5.7874
X5.9547Y-4.2421
X6.0236Y-4.3898
X6.0433Y-5.0984
X6.0433Y-5.1969
X6.063Y-4.3504
X6.1024Y-5.1969
X6.1811Y-5.9055
X6.2008Y-5.0984
X6.2283Y-5.9055
X6.2598Y-5.5709
X6.2598Y-5.7677
X6.3386Y-5.9252
X6.3976Y-5.9252
X6.5157Y-5.8858
X6.5748Y-5.2756
X6.6142Y-2.4016
X6.6142Y-2.4606
X6.6142Y-2.5197
X6.6142Y-2.5787
X6.6142Y-2.6378
X6.6142Y-4.8819
X6.6142Y-4.9409
X6.6142Y-5.0
X6.6142Y-5.0591
X6.6142Y-5.1181
X6.6142Y-5.2953
X6.6732Y-2.4016
X6.6732Y-2.4606
X6.6732Y-2.5197
X6.6732Y-2.5787
X6.6732Y-2.6378
X6.6732Y-2.6969
X6.6732Y-4.8228
X6.6732Y-4.8819
X6.6732Y-4.9409
X6.6732Y-5.0
X6.6732Y-5.0591
X6.6732Y-5.1181
X6.6732Y-5.2953
X6.7323Y-2.4016
X6.7323Y-2.4606
X6.7323Y-2.5197
X6.7323Y-2.5787
X6.7323Y-2.6378
X6.7323Y-2.6969
X6.7323Y-4.8228
X6.7323Y-4.8819
X6.7323Y-4.9409
X6.7323Y-5.0
X6.7323Y-5.0591
X6.7323Y-5.1181
X6.7913Y-2.4016
X6.7913Y-2.4606
X6.7913Y-2.5197
X6.7913Y-2.5787
X6.7913Y-2.6378
X6.7913Y-2.6969
X6.7913Y-4.8228
X6.7913Y-4.8819
X6.7913Y-4.9409
X6.7913Y-5.0
X6.7913Y-5.0591
X6.7913Y-5.1181
X6.8504Y-2.4016
X6.8504Y-2.4606
X6.8504Y-2.5197
X6.8504Y-2.5787
X6.8504Y-2.6378
X6.8504Y-4.8228
X6.8504Y-4.8819
X6.8504Y-4.9409
X6.8504Y-5.0
X6.8504Y-5.0591
X6.8504Y-5.1181
X6.9685Y-2.7953
X7.0079Y-2.7559
X7.0472Y-2.7165
X7.5492Y-4.0551
X7.5492Y-4.0945
X7.5492Y-4.1339
X7.5886Y-4.0551
X7.5886Y-4.0945
X7.5886Y-4.1339
X7.628Y-4.0551
X7.628Y-4.0945
X7.628Y-4.1339
X7.9134Y-4.2126
X7.9134Y-4.252
X7.9528Y-4.2126
X7.9528Y-4.252
X7.9528Y-4.2913
X7.9921Y-4.2126
X7.9921Y-4.252
X7.9921Y-4.2913
X7.9921Y-4.3307
X8.0118Y-4.8031
X8.0315Y-4.2126
X8.0315Y-4.252
X8.0315Y-4.2913
X8.0315Y-4.3307
X8.0315Y-4.9803
X8.0315Y-5.0197
X8.0315Y-5.0591
X8.0315Y-5.2756
X8.0512Y-4.7638
X8.0709Y-4.9803
X8.0709Y-5.0197
X8.0709Y-5.0591
X8.0709Y-5.5315
X8.1102Y-5.0197
X8.1102Y-5.0591
X8.1102Y-5.4921
X8.1496Y-5.0197
X8.1496Y-5.4528
X8.1929Y-4.8465
X8.2205Y-4.874
X8.2323Y-4.9882
X8.2323Y-5.0236
X8.2677Y-4.9882
X8.2677Y-5.0236
X8.2769Y-5.3346
X8.3031Y-4.7441
X8.3071Y-5.0984
X8.3071Y-5.374
X8.3386Y-4.7441
X8.3386Y-4.7795
X8.3425Y-4.9882
X8.3425Y-5.0236
X8.3465Y-5.4134
X8.3858Y-5.4528
X8.4016Y-5.0984
X8.4016Y-5.1378
X8.4291Y-4.9882
X8.4291Y-5.0236
X8.4331Y-4.7441
X8.4331Y-4.7795
X8.4434Y-5.3346
X8.4646Y-5.0984
X8.4685Y-4.7441
X8.5039Y-4.9882
X8.5039Y-5.0236
X8.5394Y-4.9882
X8.5394Y-5.0236
X8.5512Y-4.874
X8.5787Y-4.8465
X8.622Y-5.0197
X8.622Y-5.374
X8.6614Y-5.0197
X8.6614Y-5.0591
X8.6614Y-5.2953
X8.7008Y-4.9803
X8.7008Y-5.0197
X8.7008Y-5.0591
X8.7008Y-5.3346
X8.7008Y-5.6299
X8.7008Y-5.7087
X8.7205Y-4.7638
X8.7402Y-4.2126
X8.7402Y-4.252
X8.7402Y-4.2913
X8.7402Y-4.3307
X8.7402Y-4.9803
X8.7402Y-5.0197
X8.7402Y-5.0591
X8.7402Y-5.2756
X8.7402Y-5.374
X8.7402Y-5.5906
X8.7402Y-5.6693
X8.7598Y-4.8031
X8.7795Y-4.2126
X8.7795Y-4.252
X8.7795Y-4.2913
X8.7795Y-4.3307
X8.8189Y-4.2126
X8.8189Y-4.252
X8.8189Y-4.2913
X8.8583Y-4.2126
X8.8583Y-4.252
X9.1437Y-4.0551
X9.1437Y-4.0945
X9.1437Y-4.1339
X9.1831Y-4.0551
X9.1831Y-4.0945
X9.1831Y-4.1339
X9.2224Y-4.0551
X9.2224Y-4.0945
X9.2224Y-4.1339
X9.2323Y-4.8819
X9.2323Y-4.9409
X9.2323Y-5.0
X9.2323Y-5.0591
X9.2323Y-5.1181
X9.2717Y-5.5315
X9.2913Y-4.8819
X9.2913Y-4.9409
X9.2913Y-5.0
X9.2913Y-5.0591
X9.2913Y-5.1181
X9.3307Y-5.5315
X9.3504Y-4.8819
X9.3504Y-4.9409
X9.3504Y-5.0
X9.3504Y-5.0591
X9.3504Y-5.1181
X9.3898Y-5.5315
X9.4094Y-4.8819
X9.4094Y-4.9409
X9.4094Y-5.0
X9.4094Y-5.0591
X9.4094Y-5.1181
X9.8819Y-4.8819
X9.8819Y-4.9409
X9.8819Y-5.0
X9.8819Y-5.0591
X9.8819Y-5.1181
X9.9409Y-4.8819
X9.9409Y-4.9409
X9.9409Y-5.0
X9.9409Y-5.0591
X9.9409Y-5.1181
T2
X2.3213Y-2.3425
X2.4213Y-2.3425
X2.5213Y-2.3425
X3.9459Y-4.1417
X3.9459Y-4.3386
X3.9459Y-4.7677
X3.9459Y-4.9646
X5.374Y-5.4299
X5.374Y-5.5299
X5.374Y-5.6299
X6.122Y-5.4315
X6.122Y-5.5315
X6.122Y-5.6315
X6.9488Y-3.8976
X6.9488Y-4.0945
X7.0669Y-3.8976
X7.0669Y-4.0945
X7.3228Y-3.2874
X7.5197Y-3.2874
X7.7165Y-3.2874
X7.7165Y-3.4843
X7.8701Y-3.2874
X8.0669Y-3.2874
X8.3071Y-3.5827
X8.3071Y-3.7795
X8.4646Y-3.5827
X8.4646Y-3.7795
X8.7008Y-3.2874
X8.8976Y-3.2874
X9.0787Y-3.2874
X9.0787Y-3.4843
X9.2559Y-3.2874
X9.4528Y-3.2874
X9.7047Y-3.8976
X9.7047Y-4.0945
X9.8228Y-3.8976
X9.8228Y-4.0945
T3
X2.0047Y-4.3701
X2.0546Y-4.7033
X2.0546Y-4.8033
X2.0546Y-4.9033
X2.1047Y-4.3701
X2.1546Y-4.7033
X2.1546Y-4.8033
X2.1546Y-4.9033
X2.2047Y-4.3701
X7.2638Y-3.4646
X7.5591Y-3.4646
X7.8543Y-3.4646
X8.1496Y-3.4646
X8.6417Y-3.4646
X8.937Y-3.4646
X9.2323Y-3.4646
X9.5276Y-3.4646
T4
X4.8031Y-3.5417
X4.8031Y-3.6417
X4.8031Y-3.7417
X4.9409Y-2.6559
X4.9409Y-2.7559
X4.9409Y-2.8559
X5.0984Y-3.5433
X5.0984Y-3.6433
X5.0984Y-3.7433
X5.8055Y-3.7795
X5.9055Y-3.7795
X6.0055Y-3.7795
T5
X3.0709Y-2.4114
X3.2283Y-2.2835
X3.3858Y-2.4606
X4.0551Y-2.4114
X4.2126Y-2.2835
X4.3701Y-2.4606
T6
X7.6575Y-2.9921
X7.8543Y-2.9921
X8.9173Y-2.9921
X9.1142Y-2.9921
T7
X5.75Y-2.8346
X6.35Y-2.8346
T8
G00X1.9685Y-2.1457
M15
G01X1.9685Y-2.2638
M16
G05
G00X1.9685Y-5.3346
M15
G01X1.9685Y-5.4528
M16
G05
G00X9.8425Y-2.1457
M15
G01X9.8425Y-2.2638
M16
G05
G00X9.8425Y-5.3346
M15
G01X9.8425Y-5.4528
M16
G05
T0
M30
