%TF.GenerationSoftware,KiCad,Pcbnew,7.0.5-0*%
%TF.CreationDate,2024-02-04T17:51:19+01:00*%
%TF.ProjectId,AmplifierBoard,416d706c-6966-4696-9572-426f6172642e,rev?*%
%TF.SameCoordinates,Original*%
%TF.FileFunction,Soldermask,Top*%
%TF.FilePolarity,Negative*%
%FSLAX46Y46*%
G04 Gerber Fmt 4.6, Leading zero omitted, Abs format (unit mm)*
G04 Created by KiCad (PCBNEW 7.0.5-0) date 2024-02-04 17:51:19*
%MOMM*%
%LPD*%
G01*
G04 APERTURE LIST*
G04 Aperture macros list*
%AMRoundRect*
0 Rectangle with rounded corners*
0 $1 Rounding radius*
0 $2 $3 $4 $5 $6 $7 $8 $9 X,Y pos of 4 corners*
0 Add a 4 corners polygon primitive as box body*
4,1,4,$2,$3,$4,$5,$6,$7,$8,$9,$2,$3,0*
0 Add four circle primitives for the rounded corners*
1,1,$1+$1,$2,$3*
1,1,$1+$1,$4,$5*
1,1,$1+$1,$6,$7*
1,1,$1+$1,$8,$9*
0 Add four rect primitives between the rounded corners*
20,1,$1+$1,$2,$3,$4,$5,0*
20,1,$1+$1,$4,$5,$6,$7,0*
20,1,$1+$1,$6,$7,$8,$9,0*
20,1,$1+$1,$8,$9,$2,$3,0*%
%AMRotRect*
0 Rectangle, with rotation*
0 The origin of the aperture is its center*
0 $1 length*
0 $2 width*
0 $3 Rotation angle, in degrees counterclockwise*
0 Add horizontal line*
21,1,$1,$2,0,0,$3*%
%AMFreePoly0*
4,1,19,0.500000,-0.750000,0.000000,-0.750000,0.000000,-0.744911,-0.071157,-0.744911,-0.207708,-0.704816,-0.327430,-0.627875,-0.420627,-0.520320,-0.479746,-0.390866,-0.500000,-0.250000,-0.500000,0.250000,-0.479746,0.390866,-0.420627,0.520320,-0.327430,0.627875,-0.207708,0.704816,-0.071157,0.744911,0.000000,0.744911,0.000000,0.750000,0.500000,0.750000,0.500000,-0.750000,0.500000,-0.750000,
$1*%
%AMFreePoly1*
4,1,19,0.000000,0.744911,0.071157,0.744911,0.207708,0.704816,0.327430,0.627875,0.420627,0.520320,0.479746,0.390866,0.500000,0.250000,0.500000,-0.250000,0.479746,-0.390866,0.420627,-0.520320,0.327430,-0.627875,0.207708,-0.704816,0.071157,-0.744911,0.000000,-0.744911,0.000000,-0.750000,-0.500000,-0.750000,-0.500000,0.750000,0.000000,0.750000,0.000000,0.744911,0.000000,0.744911,
$1*%
G04 Aperture macros list end*
%ADD10C,2.000000*%
%ADD11RoundRect,0.250000X0.537500X0.425000X-0.537500X0.425000X-0.537500X-0.425000X0.537500X-0.425000X0*%
%ADD12C,2.286000*%
%ADD13C,1.600000*%
%ADD14RoundRect,0.250000X0.337500X0.475000X-0.337500X0.475000X-0.337500X-0.475000X0.337500X-0.475000X0*%
%ADD15RoundRect,0.237500X-0.250000X-0.237500X0.250000X-0.237500X0.250000X0.237500X-0.250000X0.237500X0*%
%ADD16R,1.500000X2.000000*%
%ADD17R,3.800000X2.000000*%
%ADD18RoundRect,0.250000X0.548008X0.088388X0.088388X0.548008X-0.548008X-0.088388X-0.088388X-0.548008X0*%
%ADD19RoundRect,0.250000X-0.337500X-0.475000X0.337500X-0.475000X0.337500X0.475000X-0.337500X0.475000X0*%
%ADD20RoundRect,0.250000X0.450000X-0.325000X0.450000X0.325000X-0.450000X0.325000X-0.450000X-0.325000X0*%
%ADD21O,6.200000X9.200000*%
%ADD22RoundRect,0.150000X-0.150000X0.825000X-0.150000X-0.825000X0.150000X-0.825000X0.150000X0.825000X0*%
%ADD23RoundRect,0.250000X-0.574524X-0.097227X-0.097227X-0.574524X0.574524X0.097227X0.097227X0.574524X0*%
%ADD24RoundRect,0.150000X0.650000X0.150000X-0.650000X0.150000X-0.650000X-0.150000X0.650000X-0.150000X0*%
%ADD25RoundRect,0.250000X0.325000X0.450000X-0.325000X0.450000X-0.325000X-0.450000X0.325000X-0.450000X0*%
%ADD26C,3.000000*%
%ADD27RoundRect,0.225000X-0.375000X0.225000X-0.375000X-0.225000X0.375000X-0.225000X0.375000X0.225000X0*%
%ADD28RoundRect,0.250000X-0.475000X0.337500X-0.475000X-0.337500X0.475000X-0.337500X0.475000X0.337500X0*%
%ADD29RoundRect,0.237500X0.300000X0.237500X-0.300000X0.237500X-0.300000X-0.237500X0.300000X-0.237500X0*%
%ADD30RoundRect,0.237500X0.250000X0.237500X-0.250000X0.237500X-0.250000X-0.237500X0.250000X-0.237500X0*%
%ADD31RoundRect,0.237500X-0.237500X0.250000X-0.237500X-0.250000X0.237500X-0.250000X0.237500X0.250000X0*%
%ADD32R,5.400000X2.900000*%
%ADD33RoundRect,0.237500X-0.344715X0.008839X0.008839X-0.344715X0.344715X-0.008839X-0.008839X0.344715X0*%
%ADD34O,2.000000X1.500000*%
%ADD35R,3.000000X2.000000*%
%ADD36RoundRect,0.250000X-0.325000X-0.450000X0.325000X-0.450000X0.325000X0.450000X-0.325000X0.450000X0*%
%ADD37RoundRect,0.250000X-1.050000X-0.550000X1.050000X-0.550000X1.050000X0.550000X-1.050000X0.550000X0*%
%ADD38R,3.200000X3.200000*%
%ADD39O,3.200000X3.200000*%
%ADD40FreePoly0,270.000000*%
%ADD41FreePoly1,270.000000*%
%ADD42RoundRect,0.250000X-0.450000X0.325000X-0.450000X-0.325000X0.450000X-0.325000X0.450000X0.325000X0*%
%ADD43RoundRect,0.250000X0.475000X-0.337500X0.475000X0.337500X-0.475000X0.337500X-0.475000X-0.337500X0*%
%ADD44C,2.800000*%
%ADD45RoundRect,0.237500X0.344715X-0.008839X-0.008839X0.344715X-0.344715X0.008839X0.008839X-0.344715X0*%
%ADD46RoundRect,0.237500X-0.237500X0.300000X-0.237500X-0.300000X0.237500X-0.300000X0.237500X0.300000X0*%
%ADD47R,1.000000X0.700000*%
%ADD48R,0.600000X0.700000*%
%ADD49R,2.000000X1.905000*%
%ADD50O,2.000000X1.905000*%
%ADD51RoundRect,0.250000X0.097227X-0.574524X0.574524X-0.097227X-0.097227X0.574524X-0.574524X0.097227X0*%
%ADD52C,1.440000*%
%ADD53RoundRect,0.225000X0.375000X-0.225000X0.375000X0.225000X-0.375000X0.225000X-0.375000X-0.225000X0*%
%ADD54R,1.750000X0.450000*%
%ADD55RoundRect,0.250000X-0.750000X-1.550000X0.750000X-1.550000X0.750000X1.550000X-0.750000X1.550000X0*%
%ADD56O,2.000000X3.600000*%
%ADD57R,1.800000X2.100000*%
%ADD58RoundRect,0.125000X-0.825000X-0.125000X0.825000X-0.125000X0.825000X0.125000X-0.825000X0.125000X0*%
%ADD59RoundRect,0.250000X-0.425000X0.537500X-0.425000X-0.537500X0.425000X-0.537500X0.425000X0.537500X0*%
%ADD60RoundRect,0.237500X0.237500X-0.250000X0.237500X0.250000X-0.237500X0.250000X-0.237500X-0.250000X0*%
%ADD61RoundRect,0.250000X0.425000X-0.537500X0.425000X0.537500X-0.425000X0.537500X-0.425000X-0.537500X0*%
%ADD62RoundRect,0.250000X-0.625000X0.400000X-0.625000X-0.400000X0.625000X-0.400000X0.625000X0.400000X0*%
%ADD63RoundRect,0.250000X-0.079550X-0.680590X0.680590X0.079550X0.079550X0.680590X-0.680590X-0.079550X0*%
%ADD64RoundRect,0.250000X-0.548008X-0.088388X-0.088388X-0.548008X0.548008X0.088388X0.088388X0.548008X0*%
%ADD65RoundRect,0.237500X0.008839X0.344715X-0.344715X-0.008839X-0.008839X-0.344715X0.344715X0.008839X0*%
%ADD66RoundRect,0.250000X-0.537500X-0.425000X0.537500X-0.425000X0.537500X0.425000X-0.537500X0.425000X0*%
%ADD67R,0.600000X1.500000*%
%ADD68RoundRect,0.250000X0.550000X-1.050000X0.550000X1.050000X-0.550000X1.050000X-0.550000X-1.050000X0*%
%ADD69R,1.905000X2.000000*%
%ADD70O,1.905000X2.000000*%
%ADD71R,1.700000X1.700000*%
%ADD72O,1.700000X1.700000*%
%ADD73RoundRect,0.249998X-4.550002X3.650002X-4.550002X-3.650002X4.550002X-3.650002X4.550002X3.650002X0*%
%ADD74RoundRect,0.250000X-0.550000X1.050000X-0.550000X-1.050000X0.550000X-1.050000X0.550000X1.050000X0*%
%ADD75RoundRect,0.250000X0.300000X-2.050000X0.300000X2.050000X-0.300000X2.050000X-0.300000X-2.050000X0*%
%ADD76RoundRect,0.250002X5.149998X-4.449998X5.149998X4.449998X-5.149998X4.449998X-5.149998X-4.449998X0*%
%ADD77R,0.600000X1.800000*%
%ADD78RoundRect,0.150000X-0.150000X0.650000X-0.150000X-0.650000X0.150000X-0.650000X0.150000X0.650000X0*%
%ADD79RoundRect,0.250000X-1.000000X1.500000X-1.000000X-1.500000X1.000000X-1.500000X1.000000X1.500000X0*%
%ADD80RoundRect,0.250000X-1.000000X1.950000X-1.000000X-1.950000X1.000000X-1.950000X1.000000X1.950000X0*%
%ADD81RoundRect,0.250000X0.600000X0.600000X-0.600000X0.600000X-0.600000X-0.600000X0.600000X-0.600000X0*%
%ADD82C,1.700000*%
%ADD83R,2.900000X5.400000*%
%ADD84RotRect,1.600000X0.550000X45.000000*%
%ADD85RotRect,1.600000X0.550000X135.000000*%
%ADD86RoundRect,0.250000X-0.650000X0.412500X-0.650000X-0.412500X0.650000X-0.412500X0.650000X0.412500X0*%
%ADD87RoundRect,0.250000X1.000000X-1.500000X1.000000X1.500000X-1.000000X1.500000X-1.000000X-1.500000X0*%
%ADD88RoundRect,0.100000X0.100000X-0.687500X0.100000X0.687500X-0.100000X0.687500X-0.100000X-0.687500X0*%
G04 APERTURE END LIST*
D10*
%TO.C,C26*%
X242000000Y-88000000D03*
X234500000Y-88000000D03*
%TD*%
D11*
%TO.C,C83*%
X122437500Y-145000000D03*
X119562500Y-145000000D03*
%TD*%
D12*
%TO.C,J3*%
X107000000Y-58000000D03*
X103000000Y-61250000D03*
X111000000Y-62500000D03*
%TD*%
D10*
%TO.C,C25*%
X227000000Y-88000000D03*
X219500000Y-88000000D03*
%TD*%
D13*
%TO.C,C29*%
X215000000Y-96000000D03*
X215000000Y-91000000D03*
%TD*%
D14*
%TO.C,C56*%
X113937500Y-119200000D03*
X111862500Y-119200000D03*
%TD*%
D15*
%TO.C,R28*%
X56087500Y-99000000D03*
X57912500Y-99000000D03*
%TD*%
D16*
%TO.C,U10*%
X56162500Y-141000000D03*
X58462500Y-141000000D03*
D17*
X58462500Y-134700000D03*
D16*
X60762500Y-141000000D03*
%TD*%
D18*
%TO.C,L16*%
X89724784Y-130724784D03*
X88275216Y-129275216D03*
%TD*%
D19*
%TO.C,C66*%
X102462500Y-80500000D03*
X104537500Y-80500000D03*
%TD*%
D20*
%TO.C,L12*%
X126500000Y-147025000D03*
X126500000Y-144975000D03*
%TD*%
D21*
%TO.C,H2*%
X250000000Y-56000000D03*
%TD*%
D22*
%TO.C,U17*%
X100810000Y-135525000D03*
X99540000Y-135525000D03*
X98270000Y-135525000D03*
X97000000Y-135525000D03*
X95730000Y-135525000D03*
X94460000Y-135525000D03*
X93190000Y-135525000D03*
X93190000Y-140475000D03*
X94460000Y-140475000D03*
X95730000Y-140475000D03*
X97000000Y-140475000D03*
X98270000Y-140475000D03*
X99540000Y-140475000D03*
X100810000Y-140475000D03*
%TD*%
D23*
%TO.C,C89*%
X86766377Y-130766377D03*
X88233623Y-132233623D03*
%TD*%
D15*
%TO.C,R26*%
X56087500Y-101000000D03*
X57912500Y-101000000D03*
%TD*%
D24*
%TO.C,U11*%
X109637500Y-78405000D03*
X109637500Y-77135000D03*
X109637500Y-75865000D03*
X109637500Y-74595000D03*
X102437500Y-74595000D03*
X102437500Y-75865000D03*
X102437500Y-77135000D03*
X102437500Y-78405000D03*
%TD*%
D25*
%TO.C,L14*%
X146525000Y-147000000D03*
X144475000Y-147000000D03*
%TD*%
D26*
%TO.C,HS5*%
X124000000Y-61110000D03*
X124000000Y-78890000D03*
%TD*%
D13*
%TO.C,C27*%
X226000000Y-83500000D03*
X221000000Y-83500000D03*
%TD*%
D27*
%TO.C,D3*%
X120000000Y-139850000D03*
X120000000Y-143150000D03*
%TD*%
D28*
%TO.C,C60*%
X119500000Y-89962500D03*
X119500000Y-92037500D03*
%TD*%
D29*
%TO.C,C54*%
X62362500Y-104500000D03*
X60637500Y-104500000D03*
%TD*%
D30*
%TO.C,R9*%
X97637500Y-106200000D03*
X95812500Y-106200000D03*
%TD*%
D31*
%TO.C,R46*%
X120500000Y-135087500D03*
X120500000Y-136912500D03*
%TD*%
D19*
%TO.C,C35*%
X146462500Y-92000000D03*
X148537500Y-92000000D03*
%TD*%
D20*
%TO.C,L8*%
X111700000Y-123825000D03*
X111700000Y-121775000D03*
%TD*%
D32*
%TO.C,L4*%
X238000000Y-103950000D03*
X238000000Y-94050000D03*
%TD*%
D28*
%TO.C,C58*%
X107900000Y-109462500D03*
X107900000Y-111537500D03*
%TD*%
D19*
%TO.C,C44*%
X79962500Y-112000000D03*
X82037500Y-112000000D03*
%TD*%
D33*
%TO.C,R1*%
X72354765Y-122354765D03*
X73645235Y-123645235D03*
%TD*%
D30*
%TO.C,R23*%
X72412500Y-103000000D03*
X70587500Y-103000000D03*
%TD*%
D34*
%TO.C,J1*%
X175000000Y-53000000D03*
D10*
X175000000Y-57400000D03*
D35*
X180500000Y-52900000D03*
X180500000Y-58900000D03*
X169500000Y-58900000D03*
X169500000Y-52900000D03*
%TD*%
D30*
%TO.C,R40*%
X102950000Y-88500000D03*
X101125000Y-88500000D03*
%TD*%
D19*
%TO.C,C55*%
X63962500Y-64500000D03*
X66037500Y-64500000D03*
%TD*%
D36*
%TO.C,L9*%
X56112500Y-105500000D03*
X58162500Y-105500000D03*
%TD*%
D37*
%TO.C,C31*%
X183200000Y-139500000D03*
X186800000Y-139500000D03*
%TD*%
D38*
%TO.C,D1*%
X146050000Y-72000000D03*
D39*
X161290000Y-72000000D03*
%TD*%
D40*
%TO.C,JP3*%
X100037500Y-75850000D03*
D41*
X100037500Y-77150000D03*
%TD*%
D13*
%TO.C,C20*%
X204900000Y-83500000D03*
X199900000Y-83500000D03*
%TD*%
D20*
%TO.C,L13*%
X132000000Y-137000000D03*
X132000000Y-134950000D03*
%TD*%
D30*
%TO.C,R22*%
X72412500Y-101500000D03*
X70587500Y-101500000D03*
%TD*%
D28*
%TO.C,C80*%
X124500000Y-144962500D03*
X124500000Y-147037500D03*
%TD*%
D42*
%TO.C,L7*%
X103700000Y-111475000D03*
X103700000Y-113525000D03*
%TD*%
D28*
%TO.C,C88*%
X73750000Y-138462500D03*
X73750000Y-140537500D03*
%TD*%
D21*
%TO.C,H1*%
X50000000Y-56000000D03*
%TD*%
D13*
%TO.C,C24*%
X249500000Y-99000000D03*
X249500000Y-104000000D03*
%TD*%
D31*
%TO.C,R49*%
X153500000Y-126337500D03*
X153500000Y-128162500D03*
%TD*%
D43*
%TO.C,C85*%
X149500000Y-136037500D03*
X149500000Y-133962500D03*
%TD*%
D10*
%TO.C,J2*%
X56900000Y-61600000D03*
D44*
X57750000Y-56000000D03*
D10*
X61500000Y-55600000D03*
D44*
X65250000Y-56000000D03*
D10*
X66100000Y-61600000D03*
D13*
X58960000Y-59500000D03*
X61500000Y-59500000D03*
X64040000Y-59500000D03*
%TD*%
D31*
%TO.C,R53*%
X151500000Y-134587500D03*
X151500000Y-136412500D03*
%TD*%
D25*
%TO.C,L15*%
X147025000Y-134000000D03*
X144975000Y-134000000D03*
%TD*%
D45*
%TO.C,R56*%
X83145235Y-127145235D03*
X81854765Y-125854765D03*
%TD*%
D30*
%TO.C,R21*%
X72412500Y-100000000D03*
X70587500Y-100000000D03*
%TD*%
D26*
%TO.C,HS1*%
X194000000Y-110000000D03*
X194000000Y-148000000D03*
X232000000Y-110000000D03*
X232000000Y-148000000D03*
%TD*%
D15*
%TO.C,R29*%
X56087500Y-97000000D03*
X57912500Y-97000000D03*
%TD*%
D42*
%TO.C,L10*%
X106000000Y-67975000D03*
X106000000Y-70025000D03*
%TD*%
D19*
%TO.C,C97*%
X58962500Y-64500000D03*
X61037500Y-64500000D03*
%TD*%
D12*
%TO.C,J4*%
X82000000Y-58000000D03*
X78000000Y-61250000D03*
X86000000Y-62500000D03*
%TD*%
D46*
%TO.C,C46*%
X105000000Y-118175000D03*
X105000000Y-119900000D03*
%TD*%
D43*
%TO.C,C81*%
X130000000Y-137012500D03*
X130000000Y-134937500D03*
%TD*%
D47*
%TO.C,U8*%
X73450000Y-108100000D03*
D48*
X71750000Y-108100000D03*
X71750000Y-110100000D03*
X73650000Y-110100000D03*
%TD*%
D28*
%TO.C,C73*%
X77000000Y-67962500D03*
X77000000Y-70037500D03*
%TD*%
D13*
%TO.C,C19*%
X191000000Y-83500000D03*
X186000000Y-83500000D03*
%TD*%
D31*
%TO.C,R54*%
X142000000Y-134587500D03*
X142000000Y-136412500D03*
%TD*%
D49*
%TO.C,U14*%
X125500000Y-72540000D03*
D50*
X125500000Y-70000000D03*
X125500000Y-67460000D03*
%TD*%
D43*
%TO.C,C38*%
X126500000Y-96537500D03*
X126500000Y-94462500D03*
%TD*%
D30*
%TO.C,R20*%
X104637500Y-125100000D03*
X102812500Y-125100000D03*
%TD*%
D37*
%TO.C,C32*%
X175700000Y-139500000D03*
X179300000Y-139500000D03*
%TD*%
D31*
%TO.C,R48*%
X155500000Y-126337500D03*
X155500000Y-128162500D03*
%TD*%
%TO.C,R43*%
X130500000Y-145087500D03*
X130500000Y-146912500D03*
%TD*%
D51*
%TO.C,C91*%
X67500000Y-126733623D03*
X68967246Y-125266377D03*
%TD*%
D19*
%TO.C,C68*%
X77462500Y-80500000D03*
X79537500Y-80500000D03*
%TD*%
D52*
%TO.C,RV2*%
X136500000Y-143000000D03*
X136500000Y-140460000D03*
X136500000Y-137920000D03*
%TD*%
D13*
%TO.C,C22*%
X196000000Y-88500000D03*
X196000000Y-83500000D03*
%TD*%
D53*
%TO.C,D2*%
X116000000Y-138150000D03*
X116000000Y-134850000D03*
%TD*%
D54*
%TO.C,U5*%
X80900000Y-100875000D03*
X80900000Y-101525000D03*
X80900000Y-102175000D03*
X80900000Y-102825000D03*
X80900000Y-103475000D03*
X80900000Y-104125000D03*
X80900000Y-104775000D03*
X80900000Y-105425000D03*
X80900000Y-106075000D03*
X80900000Y-106725000D03*
X80900000Y-107375000D03*
X80900000Y-108025000D03*
X80900000Y-108675000D03*
X80900000Y-109325000D03*
X88100000Y-109325000D03*
X88100000Y-108675000D03*
X88100000Y-108025000D03*
X88100000Y-107375000D03*
X88100000Y-106725000D03*
X88100000Y-106075000D03*
X88100000Y-105425000D03*
X88100000Y-104775000D03*
X88100000Y-104125000D03*
X88100000Y-103475000D03*
X88100000Y-102825000D03*
X88100000Y-102175000D03*
X88100000Y-101525000D03*
X88100000Y-100875000D03*
%TD*%
D46*
%TO.C,C43*%
X105000000Y-102237500D03*
X105000000Y-103962500D03*
%TD*%
D21*
%TO.C,H4*%
X250000000Y-137000000D03*
%TD*%
D14*
%TO.C,C49*%
X83537500Y-96200000D03*
X81462500Y-96200000D03*
%TD*%
D25*
%TO.C,L6*%
X87450000Y-96200000D03*
X85400000Y-96200000D03*
%TD*%
D26*
%TO.C,FID3*%
X244000000Y-56000000D03*
%TD*%
D55*
%TO.C,J5*%
X194500000Y-76000000D03*
D56*
X199500000Y-76000000D03*
%TD*%
D57*
%TO.C,Y1*%
X65750000Y-110650000D03*
X65750000Y-107750000D03*
X63450000Y-107750000D03*
X63450000Y-110650000D03*
%TD*%
D30*
%TO.C,R39*%
X85712500Y-88500000D03*
X83887500Y-88500000D03*
%TD*%
D58*
%TO.C,U6*%
X61000000Y-96575000D03*
X61000000Y-97225000D03*
X61000000Y-97875000D03*
X61000000Y-98525000D03*
X61000000Y-99175000D03*
X61000000Y-99825000D03*
X61000000Y-100475000D03*
X61000000Y-101125000D03*
X61000000Y-101775000D03*
X61000000Y-102425000D03*
X68000000Y-102425000D03*
X68000000Y-101775000D03*
X68000000Y-101125000D03*
X68000000Y-100475000D03*
X68000000Y-99825000D03*
X68000000Y-99175000D03*
X68000000Y-98525000D03*
X68000000Y-97875000D03*
X68000000Y-97225000D03*
X68000000Y-96575000D03*
%TD*%
D59*
%TO.C,C76*%
X143000000Y-121662500D03*
X143000000Y-124537500D03*
%TD*%
D28*
%TO.C,C84*%
X142000000Y-144962500D03*
X142000000Y-147037500D03*
%TD*%
D60*
%TO.C,R31*%
X110000000Y-69912500D03*
X110000000Y-68087500D03*
%TD*%
D61*
%TO.C,C59*%
X105800000Y-114337500D03*
X105800000Y-111462500D03*
%TD*%
D31*
%TO.C,R34*%
X89000000Y-68087500D03*
X89000000Y-69912500D03*
%TD*%
D52*
%TO.C,RV1*%
X155500000Y-143040000D03*
X155500000Y-140500000D03*
X155500000Y-137960000D03*
%TD*%
D59*
%TO.C,C57*%
X113900000Y-121762500D03*
X113900000Y-124637500D03*
%TD*%
D31*
%TO.C,R45*%
X122500000Y-135087500D03*
X122500000Y-136912500D03*
%TD*%
D13*
%TO.C,C15*%
X176500000Y-99000000D03*
X176500000Y-104000000D03*
%TD*%
D62*
%TO.C,R5*%
X215500000Y-84450000D03*
X215500000Y-87550000D03*
%TD*%
D63*
%TO.C,C90*%
X84983534Y-129016466D03*
X87016466Y-126983534D03*
%TD*%
D26*
%TO.C,FID1*%
X50000000Y-150000000D03*
%TD*%
D64*
%TO.C,L18*%
X86275216Y-133275216D03*
X87724784Y-134724784D03*
%TD*%
D37*
%TO.C,C75*%
X75287500Y-84500000D03*
X78887500Y-84500000D03*
%TD*%
D40*
%TO.C,JP2*%
X112037500Y-75850000D03*
D41*
X112037500Y-77150000D03*
%TD*%
D60*
%TO.C,R35*%
X85000000Y-69912500D03*
X85000000Y-68087500D03*
%TD*%
D65*
%TO.C,R55*%
X70145235Y-126854765D03*
X68854765Y-128145235D03*
%TD*%
D13*
%TO.C,C21*%
X211000000Y-91000000D03*
X211000000Y-96000000D03*
%TD*%
D14*
%TO.C,C63*%
X57300000Y-144100000D03*
X55225000Y-144100000D03*
%TD*%
D49*
%TO.C,U3*%
X129500000Y-90000000D03*
D50*
X129500000Y-92540000D03*
X129500000Y-95080000D03*
%TD*%
D66*
%TO.C,C86*%
X144062500Y-136000000D03*
X146937500Y-136000000D03*
%TD*%
D67*
%TO.C,U12*%
X157435000Y-114000000D03*
X156165000Y-114000000D03*
X154895000Y-114000000D03*
X153625000Y-114000000D03*
X152355000Y-114000000D03*
X151085000Y-114000000D03*
X149815000Y-114000000D03*
X148545000Y-114000000D03*
X147275000Y-114000000D03*
X146005000Y-114000000D03*
X146005000Y-123500000D03*
X147275000Y-123500000D03*
X148545000Y-123500000D03*
X149815000Y-123500000D03*
X151085000Y-123500000D03*
X152355000Y-123500000D03*
X153625000Y-123500000D03*
X154895000Y-123500000D03*
X156165000Y-123500000D03*
X157435000Y-123500000D03*
%TD*%
D31*
%TO.C,R30*%
X114000000Y-68087500D03*
X114000000Y-69912500D03*
%TD*%
D68*
%TO.C,C99*%
X120000000Y-110887500D03*
X120000000Y-107287500D03*
%TD*%
D62*
%TO.C,R4*%
X210500000Y-84450000D03*
X210500000Y-87550000D03*
%TD*%
D40*
%TO.C,JP5*%
X75000000Y-75850000D03*
D41*
X75000000Y-77150000D03*
%TD*%
D31*
%TO.C,R17*%
X103000000Y-118125000D03*
X103000000Y-119950000D03*
%TD*%
%TO.C,R52*%
X146000000Y-126337500D03*
X146000000Y-128162500D03*
%TD*%
D32*
%TO.C,L2*%
X202500000Y-103950000D03*
X202500000Y-94050000D03*
%TD*%
D31*
%TO.C,R13*%
X99225000Y-112787500D03*
X99225000Y-114612500D03*
%TD*%
D29*
%TO.C,C53*%
X68362500Y-104500000D03*
X66637500Y-104500000D03*
%TD*%
D69*
%TO.C,U2*%
X152540000Y-96000000D03*
D70*
X150000000Y-96000000D03*
X147460000Y-96000000D03*
%TD*%
D46*
%TO.C,C42*%
X101225000Y-112837500D03*
X101225000Y-114562500D03*
%TD*%
D13*
%TO.C,C45*%
X100225000Y-121100000D03*
X100225000Y-126100000D03*
%TD*%
D66*
%TO.C,C87*%
X144562500Y-145000000D03*
X147437500Y-145000000D03*
%TD*%
%TO.C,C48*%
X85562500Y-98500000D03*
X88437500Y-98500000D03*
%TD*%
D60*
%TO.C,R57*%
X123700000Y-107412500D03*
X123700000Y-105587500D03*
%TD*%
D10*
%TO.C,C17*%
X192000000Y-88000000D03*
X184500000Y-88000000D03*
%TD*%
D30*
%TO.C,R11*%
X104637500Y-106190000D03*
X102812500Y-106190000D03*
%TD*%
D31*
%TO.C,R51*%
X148000000Y-126337500D03*
X148000000Y-128162500D03*
%TD*%
D30*
%TO.C,R19*%
X104637500Y-122100000D03*
X102812500Y-122100000D03*
%TD*%
D31*
%TO.C,R36*%
X75000000Y-68087500D03*
X75000000Y-69912500D03*
%TD*%
D26*
%TO.C,FID2*%
X250000000Y-150000000D03*
%TD*%
D19*
%TO.C,C96*%
X74962500Y-72000000D03*
X77037500Y-72000000D03*
%TD*%
D31*
%TO.C,R58*%
X123700000Y-119087500D03*
X123700000Y-120912500D03*
%TD*%
D71*
%TO.C,J9*%
X56000000Y-111000000D03*
D72*
X53460000Y-111000000D03*
X50920000Y-111000000D03*
%TD*%
D59*
%TO.C,C51*%
X60500000Y-107762500D03*
X60500000Y-110637500D03*
%TD*%
D30*
%TO.C,R27*%
X63550000Y-94500000D03*
X61725000Y-94500000D03*
%TD*%
D73*
%TO.C,C6*%
X245000000Y-115250000D03*
X245000000Y-127750000D03*
%TD*%
D43*
%TO.C,C77*%
X129500000Y-73537500D03*
X129500000Y-71462500D03*
%TD*%
D74*
%TO.C,C100*%
X120000000Y-115287500D03*
X120000000Y-118887500D03*
%TD*%
D75*
%TO.C,U4*%
X145030000Y-65650000D03*
X146730000Y-65650000D03*
X148430000Y-65650000D03*
D76*
X148430000Y-56500000D03*
D75*
X150130000Y-65650000D03*
X151830000Y-65650000D03*
%TD*%
D37*
%TO.C,C34*%
X183200000Y-147500000D03*
X186800000Y-147500000D03*
%TD*%
D30*
%TO.C,R16*%
X97637500Y-125110000D03*
X95812500Y-125110000D03*
%TD*%
D40*
%TO.C,JP4*%
X87000000Y-75850000D03*
D41*
X87000000Y-77150000D03*
%TD*%
D43*
%TO.C,C52*%
X73500000Y-96037500D03*
X73500000Y-93962500D03*
%TD*%
D10*
%TO.C,C18*%
X207000000Y-88000000D03*
X199500000Y-88000000D03*
%TD*%
D77*
%TO.C,J7*%
X81500000Y-152400000D03*
X82500000Y-149600000D03*
X83500000Y-152400000D03*
X84500000Y-149600000D03*
X85500000Y-152400000D03*
X86500000Y-149600000D03*
X87500000Y-152400000D03*
X88500000Y-149600000D03*
X89500000Y-152400000D03*
X90500000Y-149600000D03*
X91500000Y-152400000D03*
X92500000Y-149600000D03*
X93500000Y-152400000D03*
X94500000Y-149600000D03*
X95500000Y-152400000D03*
X96500000Y-149600000D03*
X97500000Y-152400000D03*
X98500000Y-149600000D03*
X99500000Y-152400000D03*
X100500000Y-149600000D03*
%TD*%
D13*
%TO.C,C16*%
X179500000Y-99000000D03*
X179500000Y-104000000D03*
%TD*%
D30*
%TO.C,R41*%
X110950000Y-88500000D03*
X109125000Y-88500000D03*
%TD*%
D46*
%TO.C,C47*%
X101200000Y-128737500D03*
X101200000Y-130462500D03*
%TD*%
D20*
%TO.C,L11*%
X108000000Y-70025000D03*
X108000000Y-67975000D03*
%TD*%
D37*
%TO.C,C71*%
X100325000Y-84500000D03*
X103925000Y-84500000D03*
%TD*%
D14*
%TO.C,C36*%
X153537500Y-92000000D03*
X151462500Y-92000000D03*
%TD*%
D26*
%TO.C,HS2*%
X141110000Y-97500000D03*
X158890000Y-97500000D03*
%TD*%
D14*
%TO.C,C62*%
X62300000Y-144100000D03*
X60225000Y-144100000D03*
%TD*%
D42*
%TO.C,L21*%
X81000000Y-67975000D03*
X81000000Y-70025000D03*
%TD*%
D19*
%TO.C,C94*%
X99962500Y-72000000D03*
X102037500Y-72000000D03*
%TD*%
D31*
%TO.C,R32*%
X100000000Y-68087500D03*
X100000000Y-69912500D03*
%TD*%
D24*
%TO.C,U13*%
X84600000Y-78405000D03*
X84600000Y-77135000D03*
X84600000Y-75865000D03*
X84600000Y-74595000D03*
X77400000Y-74595000D03*
X77400000Y-75865000D03*
X77400000Y-77135000D03*
X77400000Y-78405000D03*
%TD*%
D78*
%TO.C,U7*%
X113905000Y-109487500D03*
X112635000Y-109487500D03*
X111365000Y-109487500D03*
X110095000Y-109487500D03*
X110095000Y-116687500D03*
X111365000Y-116687500D03*
X112635000Y-116687500D03*
X113905000Y-116687500D03*
%TD*%
D31*
%TO.C,R14*%
X103000000Y-102187500D03*
X103000000Y-104012500D03*
%TD*%
D33*
%TO.C,R2*%
X70854765Y-123854765D03*
X72145235Y-125145235D03*
%TD*%
D14*
%TO.C,C67*%
X109537500Y-72000000D03*
X107462500Y-72000000D03*
%TD*%
%TO.C,C95*%
X89037500Y-72000000D03*
X86962500Y-72000000D03*
%TD*%
D31*
%TO.C,R50*%
X150000000Y-126337500D03*
X150000000Y-128162500D03*
%TD*%
D79*
%TO.C,C39*%
X138050000Y-66750000D03*
X138050000Y-73250000D03*
%TD*%
D60*
%TO.C,R44*%
X118000000Y-141912500D03*
X118000000Y-140087500D03*
%TD*%
D30*
%TO.C,R24*%
X72412500Y-98500000D03*
X70587500Y-98500000D03*
%TD*%
D28*
%TO.C,C64*%
X112000000Y-67962500D03*
X112000000Y-70037500D03*
%TD*%
D13*
%TO.C,C23*%
X246500000Y-99000000D03*
X246500000Y-104000000D03*
%TD*%
D28*
%TO.C,C70*%
X102000000Y-67962500D03*
X102000000Y-70037500D03*
%TD*%
%TO.C,C78*%
X129500000Y-66462500D03*
X129500000Y-68537500D03*
%TD*%
D80*
%TO.C,C11*%
X242000000Y-141300000D03*
X242000000Y-149700000D03*
%TD*%
D37*
%TO.C,C33*%
X175700000Y-147500000D03*
X179300000Y-147500000D03*
%TD*%
D13*
%TO.C,C28*%
X240100000Y-83500000D03*
X235100000Y-83500000D03*
%TD*%
D37*
%TO.C,C65*%
X108237500Y-84500000D03*
X111837500Y-84500000D03*
%TD*%
D13*
%TO.C,C41*%
X100225000Y-105200000D03*
X100225000Y-110200000D03*
%TD*%
D55*
%TO.C,J6*%
X226500000Y-76000000D03*
D56*
X231500000Y-76000000D03*
%TD*%
D81*
%TO.C,J8*%
X54727500Y-124545000D03*
D82*
X52187500Y-124545000D03*
X54727500Y-122005000D03*
X52187500Y-122005000D03*
X54727500Y-119465000D03*
X52187500Y-119465000D03*
%TD*%
D83*
%TO.C,L5*%
X145100000Y-82000000D03*
X155000000Y-82000000D03*
%TD*%
D49*
%TO.C,U9*%
X122000000Y-89960000D03*
D50*
X122000000Y-92500000D03*
X122000000Y-95040000D03*
%TD*%
D28*
%TO.C,C72*%
X87000000Y-67962500D03*
X87000000Y-70037500D03*
%TD*%
D13*
%TO.C,C30*%
X230600000Y-83500000D03*
X230600000Y-88500000D03*
%TD*%
D37*
%TO.C,C74*%
X83000000Y-84500000D03*
X86600000Y-84500000D03*
%TD*%
D60*
%TO.C,R42*%
X129000000Y-146912500D03*
X129000000Y-145087500D03*
%TD*%
D30*
%TO.C,R15*%
X97637500Y-122100000D03*
X95812500Y-122100000D03*
%TD*%
D73*
%TO.C,C3*%
X181000000Y-115250000D03*
X181000000Y-127750000D03*
%TD*%
D60*
%TO.C,R33*%
X104000000Y-69912500D03*
X104000000Y-68087500D03*
%TD*%
D66*
%TO.C,C82*%
X124625000Y-137000000D03*
X127500000Y-137000000D03*
%TD*%
D30*
%TO.C,R12*%
X104637500Y-109200000D03*
X102812500Y-109200000D03*
%TD*%
D84*
%TO.C,U18*%
X73014897Y-133525305D03*
X73580583Y-134090990D03*
X74146268Y-134656676D03*
X74711953Y-135222361D03*
X75277639Y-135788047D03*
X75843324Y-136353732D03*
X76409010Y-136919417D03*
X76974695Y-137485103D03*
D85*
X79025305Y-137485103D03*
X79590990Y-136919417D03*
X80156676Y-136353732D03*
X80722361Y-135788047D03*
X81288047Y-135222361D03*
X81853732Y-134656676D03*
X82419417Y-134090990D03*
X82985103Y-133525305D03*
D84*
X82985103Y-131474695D03*
X82419417Y-130909010D03*
X81853732Y-130343324D03*
X81288047Y-129777639D03*
X80722361Y-129211953D03*
X80156676Y-128646268D03*
X79590990Y-128080583D03*
X79025305Y-127514897D03*
D85*
X76974695Y-127514897D03*
X76409010Y-128080583D03*
X75843324Y-128646268D03*
X75277639Y-129211953D03*
X74711953Y-129777639D03*
X74146268Y-130343324D03*
X73580583Y-130909010D03*
X73014897Y-131474695D03*
%TD*%
D32*
%TO.C,L1*%
X188000000Y-103950000D03*
X188000000Y-94050000D03*
%TD*%
D31*
%TO.C,R18*%
X99200000Y-128687500D03*
X99200000Y-130512500D03*
%TD*%
%TO.C,R47*%
X157500000Y-126337500D03*
X157500000Y-128162500D03*
%TD*%
D60*
%TO.C,R25*%
X69900000Y-110012500D03*
X69900000Y-108187500D03*
%TD*%
D14*
%TO.C,C50*%
X58175000Y-103000000D03*
X56100000Y-103000000D03*
%TD*%
D21*
%TO.C,H3*%
X50000000Y-137000000D03*
%TD*%
D14*
%TO.C,C69*%
X84537500Y-72000000D03*
X82462500Y-72000000D03*
%TD*%
D86*
%TO.C,C40*%
X156050000Y-64437500D03*
X156050000Y-67562500D03*
%TD*%
D32*
%TO.C,L3*%
X223500000Y-103950000D03*
X223500000Y-94050000D03*
%TD*%
D24*
%TO.C,U15*%
X149600000Y-142405000D03*
X149600000Y-141135000D03*
X149600000Y-139865000D03*
X149600000Y-138595000D03*
X142400000Y-138595000D03*
X142400000Y-139865000D03*
X142400000Y-141135000D03*
X142400000Y-142405000D03*
%TD*%
D60*
%TO.C,R37*%
X79000000Y-69912500D03*
X79000000Y-68087500D03*
%TD*%
D20*
%TO.C,L20*%
X83000000Y-70025000D03*
X83000000Y-67975000D03*
%TD*%
D87*
%TO.C,C98*%
X160050000Y-61750000D03*
X160050000Y-55250000D03*
%TD*%
D88*
%TO.C,U1*%
X206332500Y-132712500D03*
X206967500Y-132712500D03*
X207602500Y-132712500D03*
X208237500Y-132712500D03*
X208872500Y-132712500D03*
X209507500Y-132712500D03*
X210142500Y-132712500D03*
X210777500Y-132712500D03*
X211412500Y-132712500D03*
X212047500Y-132712500D03*
X212682500Y-132712500D03*
X213317500Y-132712500D03*
X213952500Y-132712500D03*
X214587500Y-132712500D03*
X215222500Y-132712500D03*
X215857500Y-132712500D03*
X216492500Y-132712500D03*
X217127500Y-132712500D03*
X217762500Y-132712500D03*
X218397500Y-132712500D03*
X219032500Y-132712500D03*
X219667500Y-132712500D03*
X219667500Y-125287500D03*
X219032500Y-125287500D03*
X218397500Y-125287500D03*
X217762500Y-125287500D03*
X217127500Y-125287500D03*
X216492500Y-125287500D03*
X215857500Y-125287500D03*
X215222500Y-125287500D03*
X214587500Y-125287500D03*
X213952500Y-125287500D03*
X213317500Y-125287500D03*
X212682500Y-125287500D03*
X212047500Y-125287500D03*
X211412500Y-125287500D03*
X210777500Y-125287500D03*
X210142500Y-125287500D03*
X209507500Y-125287500D03*
X208872500Y-125287500D03*
X208237500Y-125287500D03*
X207602500Y-125287500D03*
X206967500Y-125287500D03*
X206332500Y-125287500D03*
%TD*%
D14*
%TO.C,C93*%
X114037500Y-72000000D03*
X111962500Y-72000000D03*
%TD*%
D61*
%TO.C,C79*%
X118500000Y-137937500D03*
X118500000Y-135062500D03*
%TD*%
D30*
%TO.C,R38*%
X78000000Y-88500000D03*
X76175000Y-88500000D03*
%TD*%
D28*
%TO.C,C61*%
X126500000Y-89962500D03*
X126500000Y-92037500D03*
%TD*%
D30*
%TO.C,R10*%
X97637500Y-109200000D03*
X95812500Y-109200000D03*
%TD*%
D23*
%TO.C,C92*%
X83266377Y-124266377D03*
X84733623Y-125733623D03*
%TD*%
D24*
%TO.C,U16*%
X130100000Y-142905000D03*
X130100000Y-141635000D03*
X130100000Y-140365000D03*
X130100000Y-139095000D03*
X122900000Y-139095000D03*
X122900000Y-140365000D03*
X122900000Y-141635000D03*
X122900000Y-142905000D03*
%TD*%
D43*
%TO.C,C37*%
X135000000Y-86537500D03*
X135000000Y-84462500D03*
%TD*%
M02*
