%TF.GenerationSoftware,KiCad,Pcbnew,7.0.5-0*%
%TF.CreationDate,2024-02-04T17:42:31+01:00*%
%TF.ProjectId,Frontpanel,46726f6e-7470-4616-9e65-6c2e6b696361,rev?*%
%TF.SameCoordinates,Original*%
%TF.FileFunction,Copper,L1,Top*%
%TF.FilePolarity,Positive*%
%FSLAX46Y46*%
G04 Gerber Fmt 4.6, Leading zero omitted, Abs format (unit mm)*
G04 Created by KiCad (PCBNEW 7.0.5-0) date 2024-02-04 17:42:31*
%MOMM*%
%LPD*%
G01*
G04 APERTURE LIST*
%TA.AperFunction,ComponentPad*%
%ADD10C,10.200000*%
%TD*%
%TA.AperFunction,ComponentPad*%
%ADD11C,4.500000*%
%TD*%
%TA.AperFunction,ComponentPad*%
%ADD12C,4.100000*%
%TD*%
%TA.AperFunction,ComponentPad*%
%ADD13C,24.600000*%
%TD*%
%TA.AperFunction,ComponentPad*%
%ADD14C,5.600000*%
%TD*%
%TA.AperFunction,ViaPad*%
%ADD15C,4.500000*%
%TD*%
G04 APERTURE END LIST*
D10*
%TO.P,J4,1,Shield*%
%TO.N,GND*%
X208500000Y-86300000D03*
X208500000Y-100300000D03*
D11*
X217500000Y-93300000D03*
%TD*%
D10*
%TO.P,J3,1,Shield*%
%TO.N,GND*%
X183500000Y-86300000D03*
X183500000Y-100300000D03*
D11*
X192500000Y-93300000D03*
%TD*%
D12*
%TO.P,J2,1,Shield*%
%TO.N,GND*%
X81500000Y-79750000D03*
D13*
X91000000Y-91750000D03*
D12*
X100500000Y-103750000D03*
%TD*%
%TO.P,J1,1,Shield*%
%TO.N,GND*%
X54500000Y-79750000D03*
D13*
X64000000Y-91750000D03*
D12*
X73500000Y-103750000D03*
%TD*%
D14*
%TO.P,H4,1,1*%
%TO.N,GND*%
X250500000Y-110400000D03*
%TD*%
%TO.P,H1,1,1*%
%TO.N,GND*%
X30500000Y-110400000D03*
%TD*%
%TO.P,H2,1,1*%
%TO.N,GND*%
X30500000Y-75000000D03*
%TD*%
%TO.P,H3,1,1*%
%TO.N,GND*%
X250500000Y-75000000D03*
%TD*%
D15*
%TO.N,GND*%
X229000000Y-91000000D03*
%TD*%
%TA.AperFunction,Conductor*%
%TO.N,GND*%
G36*
X250501620Y-72000584D02*
G01*
X250633434Y-72007493D01*
X250817027Y-72017803D01*
X250823212Y-72018465D01*
X250975667Y-72042611D01*
X251138178Y-72070223D01*
X251143811Y-72071453D01*
X251296699Y-72112419D01*
X251398647Y-72141790D01*
X251451724Y-72157082D01*
X251456766Y-72158772D01*
X251605467Y-72215852D01*
X251606828Y-72216395D01*
X251754017Y-72277362D01*
X251758412Y-72279388D01*
X251833591Y-72317694D01*
X251900993Y-72352038D01*
X251902835Y-72353016D01*
X251969888Y-72390074D01*
X252041480Y-72429641D01*
X252045215Y-72431882D01*
X252179797Y-72519281D01*
X252181907Y-72520714D01*
X252252735Y-72570969D01*
X252310764Y-72612142D01*
X252313886Y-72614510D01*
X252438748Y-72715621D01*
X252441034Y-72717567D01*
X252558721Y-72822738D01*
X252561248Y-72825128D01*
X252674870Y-72938750D01*
X252677260Y-72941277D01*
X252782431Y-73058964D01*
X252784385Y-73061260D01*
X252885480Y-73186102D01*
X252887862Y-73189243D01*
X252979284Y-73318091D01*
X252980717Y-73320201D01*
X253021560Y-73383093D01*
X253068106Y-73454767D01*
X253070364Y-73458531D01*
X253146982Y-73597163D01*
X253147960Y-73599005D01*
X253220604Y-73741574D01*
X253222643Y-73745997D01*
X253283570Y-73893087D01*
X253284171Y-73894595D01*
X253341221Y-74043217D01*
X253342916Y-74048274D01*
X253387579Y-74203299D01*
X253428541Y-74356170D01*
X253429778Y-74361835D01*
X253457399Y-74524400D01*
X253481530Y-74676758D01*
X253482196Y-74682985D01*
X253492511Y-74866652D01*
X253499415Y-74998377D01*
X253499500Y-75001623D01*
X253499500Y-110398376D01*
X253499415Y-110401622D01*
X253492511Y-110533346D01*
X253482196Y-110717013D01*
X253481530Y-110723240D01*
X253457399Y-110875598D01*
X253429778Y-111038163D01*
X253428541Y-111043828D01*
X253387579Y-111196699D01*
X253342916Y-111351724D01*
X253341221Y-111356781D01*
X253284171Y-111505403D01*
X253283570Y-111506911D01*
X253222643Y-111654001D01*
X253220604Y-111658424D01*
X253147960Y-111800993D01*
X253146982Y-111802835D01*
X253070364Y-111941467D01*
X253068097Y-111945246D01*
X252980717Y-112079797D01*
X252979284Y-112081907D01*
X252887862Y-112210755D01*
X252885480Y-112213896D01*
X252784385Y-112338738D01*
X252782431Y-112341034D01*
X252677260Y-112458721D01*
X252674870Y-112461248D01*
X252561248Y-112574870D01*
X252558721Y-112577260D01*
X252441034Y-112682431D01*
X252438738Y-112684385D01*
X252313896Y-112785480D01*
X252310755Y-112787862D01*
X252181907Y-112879284D01*
X252179797Y-112880717D01*
X252045246Y-112968097D01*
X252041467Y-112970364D01*
X251902835Y-113046982D01*
X251900993Y-113047960D01*
X251758424Y-113120604D01*
X251754001Y-113122643D01*
X251606911Y-113183570D01*
X251605403Y-113184171D01*
X251456781Y-113241221D01*
X251451724Y-113242916D01*
X251296699Y-113287579D01*
X251143828Y-113328541D01*
X251138163Y-113329778D01*
X250975598Y-113357399D01*
X250823240Y-113381530D01*
X250817013Y-113382196D01*
X250633346Y-113392511D01*
X250501622Y-113399415D01*
X250498376Y-113399500D01*
X30501624Y-113399500D01*
X30498378Y-113399415D01*
X30366652Y-113392511D01*
X30182985Y-113382196D01*
X30176758Y-113381530D01*
X30024400Y-113357399D01*
X29861835Y-113329778D01*
X29856170Y-113328541D01*
X29703299Y-113287579D01*
X29548274Y-113242916D01*
X29543217Y-113241221D01*
X29394595Y-113184171D01*
X29393087Y-113183570D01*
X29245997Y-113122643D01*
X29241574Y-113120604D01*
X29099005Y-113047960D01*
X29097163Y-113046982D01*
X28958531Y-112970364D01*
X28954767Y-112968106D01*
X28880513Y-112919885D01*
X28820201Y-112880717D01*
X28818091Y-112879284D01*
X28689243Y-112787862D01*
X28686102Y-112785480D01*
X28561260Y-112684385D01*
X28558964Y-112682431D01*
X28441277Y-112577260D01*
X28438750Y-112574870D01*
X28325128Y-112461248D01*
X28322738Y-112458721D01*
X28217567Y-112341034D01*
X28215613Y-112338738D01*
X28176848Y-112290867D01*
X28114510Y-112213886D01*
X28112136Y-112210755D01*
X28020714Y-112081907D01*
X28019281Y-112079797D01*
X27991119Y-112036432D01*
X27931882Y-111945215D01*
X27929641Y-111941480D01*
X27890074Y-111869888D01*
X27853016Y-111802835D01*
X27852038Y-111800993D01*
X27817694Y-111733591D01*
X27779388Y-111658412D01*
X27777362Y-111654017D01*
X27716395Y-111506828D01*
X27715852Y-111505467D01*
X27658772Y-111356766D01*
X27657082Y-111351724D01*
X27641790Y-111298647D01*
X27612419Y-111196699D01*
X27571453Y-111043811D01*
X27570223Y-111038178D01*
X27542611Y-110875667D01*
X27518465Y-110723212D01*
X27517803Y-110717027D01*
X27507493Y-110533434D01*
X27500584Y-110401621D01*
X27500500Y-110398377D01*
X27500500Y-106975889D01*
X110999416Y-106975889D01*
X110999459Y-107000001D01*
X110999544Y-107000206D01*
X110999616Y-107000382D01*
X110999618Y-107000384D01*
X110999808Y-107000462D01*
X111000000Y-107000541D01*
X111000002Y-107000539D01*
X111024616Y-107000524D01*
X111024616Y-107000528D01*
X111024760Y-107000500D01*
X119975240Y-107000500D01*
X119975383Y-107000528D01*
X119975384Y-107000524D01*
X119999997Y-107000539D01*
X120000000Y-107000541D01*
X120000383Y-107000383D01*
X120000500Y-107000099D01*
X120000499Y-107000099D01*
X120000541Y-107000000D01*
X120000540Y-106999998D01*
X120006892Y-106985028D01*
X120000521Y-106964747D01*
X120000499Y-106962417D01*
X120000499Y-106475889D01*
X224099416Y-106475889D01*
X224099459Y-106500001D01*
X224099544Y-106500206D01*
X224099616Y-106500382D01*
X224099618Y-106500384D01*
X224099808Y-106500462D01*
X224100000Y-106500541D01*
X224100002Y-106500539D01*
X224124616Y-106500524D01*
X224124616Y-106500528D01*
X224124760Y-106500500D01*
X233875240Y-106500500D01*
X233875383Y-106500528D01*
X233875384Y-106500524D01*
X233899997Y-106500539D01*
X233900000Y-106500541D01*
X233900383Y-106500383D01*
X233900500Y-106500099D01*
X233900541Y-106500000D01*
X233900540Y-106499997D01*
X233900583Y-106475889D01*
X233900500Y-106475467D01*
X233900500Y-102018667D01*
X233900499Y-97524754D01*
X233900528Y-97524616D01*
X233900524Y-97524616D01*
X233900539Y-97500002D01*
X233900541Y-97500000D01*
X233900462Y-97499808D01*
X233900384Y-97499618D01*
X233900383Y-97499617D01*
X233900381Y-97499616D01*
X233900090Y-97499496D01*
X233900001Y-97499459D01*
X233875446Y-97499459D01*
X233875240Y-97499500D01*
X224124760Y-97499500D01*
X224124554Y-97499459D01*
X224099998Y-97499459D01*
X224099909Y-97499496D01*
X224099619Y-97499615D01*
X224099615Y-97499618D01*
X224099459Y-97499999D01*
X224099476Y-97524616D01*
X224099471Y-97524616D01*
X224099500Y-97524759D01*
X224099499Y-106475467D01*
X224099416Y-106475889D01*
X120000499Y-106475889D01*
X120000499Y-96008338D01*
X120000539Y-96000002D01*
X120000541Y-96000000D01*
X120000383Y-95999617D01*
X120000381Y-95999616D01*
X120000090Y-95999496D01*
X120000001Y-95999459D01*
X119975446Y-95999459D01*
X119975240Y-95999500D01*
X111024760Y-95999500D01*
X111024554Y-95999459D01*
X110999998Y-95999459D01*
X110999909Y-95999496D01*
X110999619Y-95999615D01*
X110999615Y-95999618D01*
X110999459Y-95999999D01*
X110999476Y-96024616D01*
X110999471Y-96024616D01*
X110999499Y-96024759D01*
X110999500Y-106975467D01*
X110999416Y-106975889D01*
X27500500Y-106975889D01*
X27500500Y-103749999D01*
X71944706Y-103749999D01*
X71950208Y-103819913D01*
X71947901Y-103830890D01*
X71953636Y-103866176D01*
X71954248Y-103871253D01*
X71954834Y-103878695D01*
X71955026Y-103883567D01*
X71955026Y-103913821D01*
X71958603Y-103926589D01*
X71963853Y-103993300D01*
X71963853Y-103993301D01*
X71980978Y-104064631D01*
X71980360Y-104076974D01*
X71992262Y-104112623D01*
X71993741Y-104117787D01*
X71995636Y-104125681D01*
X71996546Y-104130208D01*
X72001068Y-104158034D01*
X72005951Y-104168645D01*
X72020828Y-104230612D01*
X72020831Y-104230623D01*
X72050136Y-104301372D01*
X72051575Y-104314763D01*
X72069756Y-104349403D01*
X72072138Y-104354489D01*
X72075796Y-104363320D01*
X72077326Y-104367416D01*
X72085467Y-104391801D01*
X72091054Y-104400156D01*
X72114221Y-104456087D01*
X72155942Y-104524169D01*
X72159742Y-104538217D01*
X72184037Y-104570548D01*
X72187335Y-104575398D01*
X72193449Y-104585374D01*
X72195487Y-104588961D01*
X72206054Y-104609095D01*
X72211753Y-104615244D01*
X72239654Y-104660773D01*
X72241741Y-104664179D01*
X72295712Y-104727371D01*
X72302094Y-104741615D01*
X72332080Y-104770417D01*
X72336270Y-104774859D01*
X72345810Y-104786028D01*
X72348232Y-104789049D01*
X72359750Y-104804377D01*
X72364994Y-104808490D01*
X72400241Y-104849759D01*
X72465918Y-104905852D01*
X72475015Y-104919788D01*
X72510027Y-104943954D01*
X72515067Y-104947830D01*
X72529200Y-104959900D01*
X72531882Y-104962330D01*
X72542619Y-104972642D01*
X72546906Y-104975023D01*
X72580333Y-105003572D01*
X72585821Y-105008259D01*
X72585824Y-105008261D01*
X72585826Y-105008262D01*
X72662254Y-105055098D01*
X72674091Y-105068181D01*
X72713257Y-105086766D01*
X72719069Y-105089913D01*
X72739174Y-105102234D01*
X72742000Y-105104073D01*
X72749973Y-105109576D01*
X72752881Y-105110634D01*
X72793911Y-105135777D01*
X72793914Y-105135779D01*
X72879767Y-105171340D01*
X72894269Y-105183026D01*
X72936564Y-105195277D01*
X72943040Y-105197548D01*
X72965614Y-105206898D01*
X72970589Y-105208959D01*
X72973447Y-105210228D01*
X72976490Y-105211672D01*
X72977703Y-105211906D01*
X73019375Y-105229168D01*
X73019378Y-105229169D01*
X73019384Y-105229170D01*
X73019388Y-105229172D01*
X73112955Y-105251635D01*
X73129936Y-105261386D01*
X73174214Y-105266762D01*
X73181199Y-105268020D01*
X73256698Y-105286146D01*
X73355907Y-105293953D01*
X73375078Y-105301260D01*
X73420116Y-105299445D01*
X73427468Y-105299585D01*
X73500000Y-105305294D01*
X73602501Y-105297227D01*
X73623473Y-105301632D01*
X73668010Y-105292540D01*
X73675545Y-105291478D01*
X73743302Y-105286146D01*
X73846490Y-105261372D01*
X73868785Y-105262487D01*
X73911576Y-105246258D01*
X73919072Y-105243946D01*
X73980612Y-105229172D01*
X73980617Y-105229170D01*
X73980618Y-105229170D01*
X74081708Y-105187297D01*
X74104766Y-105184817D01*
X74144595Y-105161822D01*
X74151868Y-105158235D01*
X74189517Y-105142641D01*
X74206085Y-105135779D01*
X74206086Y-105135777D01*
X74206089Y-105135777D01*
X74302215Y-105076870D01*
X74325420Y-105070592D01*
X74361174Y-105041401D01*
X74367986Y-105036565D01*
X74404397Y-105014252D01*
X74414173Y-105008263D01*
X74414173Y-105008262D01*
X74414179Y-105008259D01*
X74502432Y-104932883D01*
X74525131Y-104922712D01*
X74555814Y-104888078D01*
X74561956Y-104882045D01*
X74599759Y-104849759D01*
X74758259Y-104664179D01*
X74885777Y-104456089D01*
X74979172Y-104230612D01*
X75036146Y-103993302D01*
X75055294Y-103750000D01*
X75055294Y-103749999D01*
X98944706Y-103749999D01*
X98950208Y-103819913D01*
X98947901Y-103830890D01*
X98953636Y-103866176D01*
X98954248Y-103871253D01*
X98954834Y-103878695D01*
X98955026Y-103883567D01*
X98955026Y-103913821D01*
X98958603Y-103926589D01*
X98963853Y-103993300D01*
X98963853Y-103993301D01*
X98980978Y-104064631D01*
X98980360Y-104076974D01*
X98992262Y-104112623D01*
X98993741Y-104117787D01*
X98995636Y-104125681D01*
X98996546Y-104130208D01*
X99001068Y-104158034D01*
X99005951Y-104168645D01*
X99020828Y-104230612D01*
X99020831Y-104230623D01*
X99050136Y-104301372D01*
X99051575Y-104314763D01*
X99069756Y-104349403D01*
X99072138Y-104354489D01*
X99075796Y-104363320D01*
X99077326Y-104367416D01*
X99085467Y-104391801D01*
X99091054Y-104400156D01*
X99114221Y-104456087D01*
X99155942Y-104524169D01*
X99159742Y-104538217D01*
X99184037Y-104570548D01*
X99187335Y-104575398D01*
X99193449Y-104585374D01*
X99195487Y-104588961D01*
X99206054Y-104609095D01*
X99211753Y-104615244D01*
X99239654Y-104660773D01*
X99241741Y-104664179D01*
X99295712Y-104727371D01*
X99302094Y-104741615D01*
X99332080Y-104770417D01*
X99336270Y-104774859D01*
X99345810Y-104786028D01*
X99348232Y-104789049D01*
X99359750Y-104804377D01*
X99364994Y-104808490D01*
X99400241Y-104849759D01*
X99465918Y-104905852D01*
X99475015Y-104919788D01*
X99510027Y-104943954D01*
X99515067Y-104947830D01*
X99529200Y-104959900D01*
X99531882Y-104962330D01*
X99542619Y-104972642D01*
X99546906Y-104975023D01*
X99580333Y-105003572D01*
X99585821Y-105008259D01*
X99585824Y-105008261D01*
X99585826Y-105008262D01*
X99662254Y-105055098D01*
X99674091Y-105068181D01*
X99713257Y-105086766D01*
X99719069Y-105089913D01*
X99739174Y-105102234D01*
X99742000Y-105104073D01*
X99749973Y-105109576D01*
X99752881Y-105110634D01*
X99793911Y-105135777D01*
X99793914Y-105135779D01*
X99879767Y-105171340D01*
X99894269Y-105183026D01*
X99936564Y-105195277D01*
X99943040Y-105197548D01*
X99965614Y-105206898D01*
X99970589Y-105208959D01*
X99973447Y-105210228D01*
X99976490Y-105211672D01*
X99977703Y-105211906D01*
X100019375Y-105229168D01*
X100019378Y-105229169D01*
X100019384Y-105229170D01*
X100019388Y-105229172D01*
X100112955Y-105251635D01*
X100129936Y-105261386D01*
X100174214Y-105266762D01*
X100181199Y-105268020D01*
X100256698Y-105286146D01*
X100355907Y-105293953D01*
X100375078Y-105301260D01*
X100420116Y-105299445D01*
X100427468Y-105299585D01*
X100500000Y-105305294D01*
X100602501Y-105297227D01*
X100623473Y-105301632D01*
X100668010Y-105292540D01*
X100675545Y-105291478D01*
X100743302Y-105286146D01*
X100846490Y-105261372D01*
X100868785Y-105262487D01*
X100911576Y-105246258D01*
X100919072Y-105243946D01*
X100980612Y-105229172D01*
X100980617Y-105229170D01*
X100980618Y-105229170D01*
X101081708Y-105187297D01*
X101104766Y-105184817D01*
X101144595Y-105161822D01*
X101151868Y-105158235D01*
X101189517Y-105142641D01*
X101206085Y-105135779D01*
X101206086Y-105135777D01*
X101206089Y-105135777D01*
X101302215Y-105076870D01*
X101325420Y-105070592D01*
X101361174Y-105041401D01*
X101367986Y-105036565D01*
X101404397Y-105014252D01*
X101414173Y-105008263D01*
X101414173Y-105008262D01*
X101414179Y-105008259D01*
X101502432Y-104932883D01*
X101525131Y-104922712D01*
X101555814Y-104888078D01*
X101561956Y-104882045D01*
X101599759Y-104849759D01*
X101758259Y-104664179D01*
X101885777Y-104456089D01*
X101979172Y-104230612D01*
X102036146Y-103993302D01*
X102055294Y-103750000D01*
X102036146Y-103506698D01*
X101979172Y-103269388D01*
X101927854Y-103145494D01*
X101885777Y-103043910D01*
X101758262Y-102835826D01*
X101758261Y-102835823D01*
X101599758Y-102650240D01*
X101561969Y-102617965D01*
X101555820Y-102611927D01*
X101530719Y-102583593D01*
X101502437Y-102567120D01*
X101414179Y-102491741D01*
X101414177Y-102491739D01*
X101414175Y-102491738D01*
X101414173Y-102491737D01*
X101368002Y-102463443D01*
X101361178Y-102458600D01*
X101331723Y-102434552D01*
X101302217Y-102423130D01*
X101206088Y-102364222D01*
X101206089Y-102364222D01*
X101151879Y-102341767D01*
X101144598Y-102338177D01*
X101111562Y-102319104D01*
X101081711Y-102312703D01*
X100980623Y-102270831D01*
X100980611Y-102270827D01*
X100919098Y-102256059D01*
X100911580Y-102253741D01*
X100875851Y-102240191D01*
X100846491Y-102238628D01*
X100743302Y-102213854D01*
X100743300Y-102213853D01*
X100743299Y-102213853D01*
X100675566Y-102208522D01*
X100668022Y-102207459D01*
X100630582Y-102199815D01*
X100602505Y-102202773D01*
X100529011Y-102196989D01*
X100500000Y-102194706D01*
X100499999Y-102194706D01*
X100427492Y-102200412D01*
X100420126Y-102200553D01*
X100382013Y-102199017D01*
X100355908Y-102206046D01*
X100256700Y-102213853D01*
X100256698Y-102213853D01*
X100181234Y-102231971D01*
X100174229Y-102233233D01*
X100136512Y-102237813D01*
X100112956Y-102248363D01*
X100019388Y-102270828D01*
X100019386Y-102270828D01*
X100019381Y-102270830D01*
X99977699Y-102288095D01*
X99976763Y-102288195D01*
X99973411Y-102289786D01*
X99970561Y-102291051D01*
X99943054Y-102302445D01*
X99936573Y-102304718D01*
X99900316Y-102315220D01*
X99879769Y-102328659D01*
X99793910Y-102364223D01*
X99793908Y-102364223D01*
X99752879Y-102389366D01*
X99750617Y-102389977D01*
X99741996Y-102395928D01*
X99739172Y-102397766D01*
X99719085Y-102410075D01*
X99713266Y-102413228D01*
X99679479Y-102429260D01*
X99662257Y-102444900D01*
X99585823Y-102491739D01*
X99546905Y-102524978D01*
X99543512Y-102526498D01*
X99531871Y-102537679D01*
X99529188Y-102540109D01*
X99515078Y-102552161D01*
X99510029Y-102556043D01*
X99479640Y-102577019D01*
X99465919Y-102594146D01*
X99400240Y-102650241D01*
X99364993Y-102691510D01*
X99360764Y-102694270D01*
X99348216Y-102710968D01*
X99345796Y-102713987D01*
X99336285Y-102725123D01*
X99332086Y-102729575D01*
X99305897Y-102754730D01*
X99295714Y-102772627D01*
X99241738Y-102835824D01*
X99211752Y-102884756D01*
X99207046Y-102889012D01*
X99195487Y-102911036D01*
X99193455Y-102914613D01*
X99187350Y-102924578D01*
X99184048Y-102929436D01*
X99162692Y-102957855D01*
X99155943Y-102975829D01*
X99114221Y-103043913D01*
X99091053Y-103099844D01*
X99086278Y-103105768D01*
X99077325Y-103132584D01*
X99075799Y-103136671D01*
X99072145Y-103145494D01*
X99069760Y-103150588D01*
X99053687Y-103181212D01*
X99050137Y-103198626D01*
X99020831Y-103269376D01*
X99020827Y-103269388D01*
X99005951Y-103331350D01*
X99001546Y-103339020D01*
X98996546Y-103369786D01*
X98995640Y-103374298D01*
X98994641Y-103378462D01*
X98993742Y-103382204D01*
X98992265Y-103387366D01*
X98981681Y-103419065D01*
X98980979Y-103435369D01*
X98963853Y-103506700D01*
X98958603Y-103573409D01*
X98955026Y-103582793D01*
X98955026Y-103616434D01*
X98954834Y-103621310D01*
X98954247Y-103628749D01*
X98953636Y-103633822D01*
X98948507Y-103665377D01*
X98950208Y-103680085D01*
X98944706Y-103749999D01*
X75055294Y-103749999D01*
X75036146Y-103506698D01*
X74979172Y-103269388D01*
X74927854Y-103145494D01*
X74885777Y-103043910D01*
X74758262Y-102835826D01*
X74758261Y-102835823D01*
X74599758Y-102650240D01*
X74561969Y-102617965D01*
X74555820Y-102611927D01*
X74530719Y-102583593D01*
X74502437Y-102567120D01*
X74414179Y-102491741D01*
X74414177Y-102491739D01*
X74414175Y-102491738D01*
X74414173Y-102491737D01*
X74368002Y-102463443D01*
X74361178Y-102458600D01*
X74331723Y-102434552D01*
X74302217Y-102423130D01*
X74206088Y-102364222D01*
X74206089Y-102364222D01*
X74151879Y-102341767D01*
X74144598Y-102338177D01*
X74111562Y-102319104D01*
X74081711Y-102312703D01*
X73980623Y-102270831D01*
X73980611Y-102270827D01*
X73919098Y-102256059D01*
X73911580Y-102253741D01*
X73875851Y-102240191D01*
X73846491Y-102238628D01*
X73743302Y-102213854D01*
X73743300Y-102213853D01*
X73743299Y-102213853D01*
X73675566Y-102208522D01*
X73668022Y-102207459D01*
X73630582Y-102199815D01*
X73602505Y-102202773D01*
X73529011Y-102196989D01*
X73500000Y-102194706D01*
X73499999Y-102194706D01*
X73427492Y-102200412D01*
X73420126Y-102200553D01*
X73382013Y-102199017D01*
X73355908Y-102206046D01*
X73256700Y-102213853D01*
X73256698Y-102213853D01*
X73181234Y-102231971D01*
X73174229Y-102233233D01*
X73136512Y-102237813D01*
X73112956Y-102248363D01*
X73019388Y-102270828D01*
X73019386Y-102270828D01*
X73019381Y-102270830D01*
X72977699Y-102288095D01*
X72976763Y-102288195D01*
X72973411Y-102289786D01*
X72970561Y-102291051D01*
X72943054Y-102302445D01*
X72936573Y-102304718D01*
X72900316Y-102315220D01*
X72879769Y-102328659D01*
X72793910Y-102364223D01*
X72793908Y-102364223D01*
X72752879Y-102389366D01*
X72750617Y-102389977D01*
X72741996Y-102395928D01*
X72739172Y-102397766D01*
X72719085Y-102410075D01*
X72713266Y-102413228D01*
X72679479Y-102429260D01*
X72662257Y-102444900D01*
X72585823Y-102491739D01*
X72546905Y-102524978D01*
X72543512Y-102526498D01*
X72531871Y-102537679D01*
X72529188Y-102540109D01*
X72515078Y-102552161D01*
X72510029Y-102556043D01*
X72479640Y-102577019D01*
X72465919Y-102594146D01*
X72400240Y-102650241D01*
X72364993Y-102691510D01*
X72360764Y-102694270D01*
X72348216Y-102710968D01*
X72345796Y-102713987D01*
X72336285Y-102725123D01*
X72332086Y-102729575D01*
X72305897Y-102754730D01*
X72295714Y-102772627D01*
X72241738Y-102835824D01*
X72211752Y-102884756D01*
X72207046Y-102889012D01*
X72195487Y-102911036D01*
X72193455Y-102914613D01*
X72187350Y-102924578D01*
X72184048Y-102929436D01*
X72162692Y-102957855D01*
X72155943Y-102975829D01*
X72114221Y-103043913D01*
X72091053Y-103099844D01*
X72086278Y-103105768D01*
X72077325Y-103132584D01*
X72075799Y-103136671D01*
X72072145Y-103145494D01*
X72069760Y-103150588D01*
X72053687Y-103181212D01*
X72050137Y-103198626D01*
X72020831Y-103269376D01*
X72020827Y-103269388D01*
X72005951Y-103331350D01*
X72001546Y-103339020D01*
X71996546Y-103369786D01*
X71995640Y-103374298D01*
X71994641Y-103378462D01*
X71993742Y-103382204D01*
X71992265Y-103387366D01*
X71981681Y-103419065D01*
X71980979Y-103435369D01*
X71963853Y-103506700D01*
X71958603Y-103573409D01*
X71955026Y-103582793D01*
X71955026Y-103616434D01*
X71954834Y-103621310D01*
X71954247Y-103628749D01*
X71953636Y-103633822D01*
X71948507Y-103665377D01*
X71950208Y-103680085D01*
X71944706Y-103749999D01*
X27500500Y-103749999D01*
X27500500Y-91799999D01*
X52194506Y-91799999D01*
X52214479Y-92486433D01*
X52214479Y-92486437D01*
X52274329Y-93170513D01*
X52274331Y-93170536D01*
X52373860Y-93850017D01*
X52512726Y-94522539D01*
X52690457Y-95185841D01*
X52690464Y-95185865D01*
X52906459Y-95837704D01*
X53159061Y-96473543D01*
X53160005Y-96475917D01*
X53450225Y-97098296D01*
X53450231Y-97098308D01*
X53450236Y-97098317D01*
X53776135Y-97702735D01*
X53776147Y-97702757D01*
X54136640Y-98287204D01*
X54136650Y-98287218D01*
X54136654Y-98287225D01*
X54530539Y-98849752D01*
X54939427Y-99366875D01*
X54956463Y-99388420D01*
X55412997Y-99901424D01*
X55413013Y-99901441D01*
X55898558Y-100386986D01*
X55898575Y-100387002D01*
X55898578Y-100387005D01*
X56411575Y-100843533D01*
X56950248Y-101269461D01*
X57512775Y-101663346D01*
X57512785Y-101663352D01*
X57512795Y-101663359D01*
X58097242Y-102023852D01*
X58097253Y-102023858D01*
X58701704Y-102349775D01*
X59324083Y-102639995D01*
X59962283Y-102893536D01*
X59962294Y-102893539D01*
X59962295Y-102893540D01*
X60156388Y-102957855D01*
X60614146Y-103109539D01*
X61277466Y-103287275D01*
X61949997Y-103426142D01*
X62629466Y-103525669D01*
X63313572Y-103585521D01*
X64000000Y-103605494D01*
X64686428Y-103585521D01*
X65370534Y-103525669D01*
X66050003Y-103426142D01*
X66722534Y-103287275D01*
X67385854Y-103109539D01*
X68037717Y-102893536D01*
X68675917Y-102639995D01*
X69298296Y-102349775D01*
X69902747Y-102023858D01*
X70487225Y-101663346D01*
X71049752Y-101269461D01*
X71588425Y-100843533D01*
X72101422Y-100387005D01*
X72587005Y-99901422D01*
X73043533Y-99388425D01*
X73469461Y-98849752D01*
X73863346Y-98287225D01*
X74223858Y-97702747D01*
X74549775Y-97098296D01*
X74839995Y-96475917D01*
X75093536Y-95837717D01*
X75309539Y-95185854D01*
X75487275Y-94522534D01*
X75626142Y-93850003D01*
X75725669Y-93170534D01*
X75785521Y-92486428D01*
X75805494Y-91800000D01*
X75805494Y-91799999D01*
X79194506Y-91799999D01*
X79214479Y-92486433D01*
X79214479Y-92486437D01*
X79274329Y-93170513D01*
X79274331Y-93170536D01*
X79373860Y-93850017D01*
X79512726Y-94522539D01*
X79690457Y-95185841D01*
X79690464Y-95185865D01*
X79906459Y-95837704D01*
X80159061Y-96473543D01*
X80160005Y-96475917D01*
X80450225Y-97098296D01*
X80450231Y-97098308D01*
X80450236Y-97098317D01*
X80776135Y-97702735D01*
X80776147Y-97702757D01*
X81136640Y-98287204D01*
X81136650Y-98287218D01*
X81136654Y-98287225D01*
X81530539Y-98849752D01*
X81939427Y-99366875D01*
X81956463Y-99388420D01*
X82412997Y-99901424D01*
X82413013Y-99901441D01*
X82898558Y-100386986D01*
X82898575Y-100387002D01*
X82898578Y-100387005D01*
X83411575Y-100843533D01*
X83950248Y-101269461D01*
X84512775Y-101663346D01*
X84512785Y-101663352D01*
X84512795Y-101663359D01*
X85097242Y-102023852D01*
X85097253Y-102023858D01*
X85701704Y-102349775D01*
X86324083Y-102639995D01*
X86962283Y-102893536D01*
X86962294Y-102893539D01*
X86962295Y-102893540D01*
X87156388Y-102957855D01*
X87614146Y-103109539D01*
X88277466Y-103287275D01*
X88949997Y-103426142D01*
X89629466Y-103525669D01*
X90313572Y-103585521D01*
X91000000Y-103605494D01*
X91686428Y-103585521D01*
X92370534Y-103525669D01*
X93050003Y-103426142D01*
X93722534Y-103287275D01*
X94385854Y-103109539D01*
X95037717Y-102893536D01*
X95675917Y-102639995D01*
X96298296Y-102349775D01*
X96902747Y-102023858D01*
X97487225Y-101663346D01*
X98049752Y-101269461D01*
X98588425Y-100843533D01*
X99101422Y-100387005D01*
X99587005Y-99901422D01*
X100043533Y-99388425D01*
X100469461Y-98849752D01*
X100863346Y-98287225D01*
X101223858Y-97702747D01*
X101549775Y-97098296D01*
X101839995Y-96475917D01*
X102093536Y-95837717D01*
X102309539Y-95185854D01*
X102487275Y-94522534D01*
X102626142Y-93850003D01*
X102725669Y-93170534D01*
X102785521Y-92486428D01*
X102805494Y-91800000D01*
X102785521Y-91113572D01*
X102775585Y-91000004D01*
X227744723Y-91000004D01*
X227749179Y-91050946D01*
X227746427Y-91064636D01*
X227753540Y-91103830D01*
X227754297Y-91109454D01*
X227754509Y-91111857D01*
X227754794Y-91115118D01*
X227755032Y-91120518D01*
X227755032Y-91154324D01*
X227759622Y-91170302D01*
X227763793Y-91217976D01*
X227777882Y-91270556D01*
X227777517Y-91285845D01*
X227792050Y-91324565D01*
X227793895Y-91330318D01*
X227795549Y-91336497D01*
X227796663Y-91341464D01*
X227802383Y-91372985D01*
X227808882Y-91386252D01*
X227820423Y-91429322D01*
X227820425Y-91429330D01*
X227844827Y-91481660D01*
X227847315Y-91498047D01*
X227869156Y-91534602D01*
X227872118Y-91540189D01*
X227873934Y-91544081D01*
X227875495Y-91547429D01*
X227877347Y-91551837D01*
X227887839Y-91579794D01*
X227895424Y-91590167D01*
X227912898Y-91627639D01*
X227912901Y-91627643D01*
X227947918Y-91677654D01*
X227953611Y-91694535D01*
X227982292Y-91727364D01*
X227986386Y-91732590D01*
X227992352Y-91741111D01*
X227994783Y-91744864D01*
X228008685Y-91768132D01*
X228016538Y-91775652D01*
X228038402Y-91806877D01*
X228083929Y-91852404D01*
X228093047Y-91869103D01*
X228127758Y-91896784D01*
X228132946Y-91901421D01*
X228142663Y-91911138D01*
X228145514Y-91914187D01*
X228161081Y-91932005D01*
X228168428Y-91936903D01*
X228193123Y-91961598D01*
X228248599Y-92000443D01*
X228261209Y-92016218D01*
X228300856Y-92037553D01*
X228307036Y-92041361D01*
X228322002Y-92051840D01*
X228325069Y-92054134D01*
X228340190Y-92066193D01*
X228346336Y-92068879D01*
X228372361Y-92087102D01*
X228436770Y-92117136D01*
X228452781Y-92131234D01*
X228496075Y-92145301D01*
X228503116Y-92148074D01*
X228524025Y-92157824D01*
X228524889Y-92158227D01*
X228528067Y-92159821D01*
X228540304Y-92166406D01*
X228544696Y-92167463D01*
X228570663Y-92179572D01*
X228570665Y-92179572D01*
X228570670Y-92179575D01*
X228570675Y-92179576D01*
X228570677Y-92179577D01*
X228642553Y-92198836D01*
X228661711Y-92210513D01*
X228707188Y-92216673D01*
X228714917Y-92218226D01*
X228745275Y-92226360D01*
X228748382Y-92227280D01*
X228755033Y-92229441D01*
X228757282Y-92229577D01*
X228782023Y-92236207D01*
X228859497Y-92242984D01*
X228881390Y-92251548D01*
X228927504Y-92249477D01*
X228935690Y-92249650D01*
X228976493Y-92253220D01*
X228977350Y-92253316D01*
X228977450Y-92253304D01*
X229000000Y-92255277D01*
X229080828Y-92248205D01*
X229104896Y-92253042D01*
X229150065Y-92242733D01*
X229158452Y-92241414D01*
X229217977Y-92236207D01*
X229429330Y-92179575D01*
X229627639Y-92087102D01*
X229806877Y-91961598D01*
X229961598Y-91806877D01*
X230087102Y-91627639D01*
X230179575Y-91429330D01*
X230236207Y-91217977D01*
X230255277Y-91000000D01*
X230255276Y-90999994D01*
X230246207Y-90896329D01*
X230236207Y-90782023D01*
X230201548Y-90652675D01*
X230179577Y-90570677D01*
X230179576Y-90570676D01*
X230179575Y-90570670D01*
X230087102Y-90372362D01*
X230087100Y-90372359D01*
X230087099Y-90372357D01*
X229961599Y-90193124D01*
X229895364Y-90126889D01*
X229806877Y-90038402D01*
X229668978Y-89941844D01*
X229627638Y-89912897D01*
X229502818Y-89854693D01*
X229429330Y-89820425D01*
X229429326Y-89820424D01*
X229429322Y-89820422D01*
X229217977Y-89763793D01*
X229158478Y-89758587D01*
X229150076Y-89757267D01*
X229113004Y-89748805D01*
X229080829Y-89751794D01*
X229000002Y-89744723D01*
X228999993Y-89744723D01*
X228977447Y-89746695D01*
X228977370Y-89746679D01*
X228976415Y-89746786D01*
X228935709Y-89750347D01*
X228927515Y-89750521D01*
X228889340Y-89748806D01*
X228859501Y-89757014D01*
X228782023Y-89763793D01*
X228782017Y-89763794D01*
X228757281Y-89770422D01*
X228755572Y-89770381D01*
X228748352Y-89772727D01*
X228745243Y-89773648D01*
X228714935Y-89781769D01*
X228707202Y-89783322D01*
X228669240Y-89788464D01*
X228642556Y-89801163D01*
X228570674Y-89820423D01*
X228570667Y-89820426D01*
X228544693Y-89832538D01*
X228541306Y-89833052D01*
X228528040Y-89840191D01*
X228524863Y-89841785D01*
X228503134Y-89851917D01*
X228496086Y-89854693D01*
X228459645Y-89866533D01*
X228436774Y-89882862D01*
X228372359Y-89912899D01*
X228346334Y-89931122D01*
X228341519Y-89932745D01*
X228325057Y-89945873D01*
X228321963Y-89948187D01*
X228307053Y-89958628D01*
X228300865Y-89962440D01*
X228267218Y-89980546D01*
X228248600Y-89999555D01*
X228193125Y-90038399D01*
X228168426Y-90063098D01*
X228162560Y-90066300D01*
X228145512Y-90085813D01*
X228142662Y-90088862D01*
X228132942Y-90098581D01*
X228127755Y-90103217D01*
X228098070Y-90126889D01*
X228083931Y-90147592D01*
X228038404Y-90193119D01*
X228016537Y-90224348D01*
X228010105Y-90229488D01*
X227994783Y-90255133D01*
X227992348Y-90258893D01*
X227986396Y-90267394D01*
X227982296Y-90272629D01*
X227957573Y-90300926D01*
X227947920Y-90322344D01*
X227912899Y-90372359D01*
X227912897Y-90372363D01*
X227895424Y-90409833D01*
X227888991Y-90417138D01*
X227877344Y-90448170D01*
X227875486Y-90452590D01*
X227874677Y-90454324D01*
X227872119Y-90459808D01*
X227869158Y-90465391D01*
X227850186Y-90497145D01*
X227844828Y-90518338D01*
X227820424Y-90570672D01*
X227820421Y-90570680D01*
X227808881Y-90613747D01*
X227803056Y-90623301D01*
X227796665Y-90658521D01*
X227795559Y-90663460D01*
X227794438Y-90667653D01*
X227793900Y-90669660D01*
X227792057Y-90675415D01*
X227779331Y-90709322D01*
X227777882Y-90729439D01*
X227763794Y-90782017D01*
X227763793Y-90782023D01*
X227759622Y-90829696D01*
X227755032Y-90841430D01*
X227755032Y-90879637D01*
X227754781Y-90885030D01*
X227754525Y-90887951D01*
X227754239Y-90891019D01*
X227753511Y-90896329D01*
X227747268Y-90930730D01*
X227749179Y-90949052D01*
X227744723Y-90999994D01*
X227744723Y-91000004D01*
X102775585Y-91000004D01*
X102725669Y-90429466D01*
X102626142Y-89749997D01*
X102487275Y-89077466D01*
X102309539Y-88414146D01*
X102093536Y-87762283D01*
X101839995Y-87124083D01*
X101549775Y-86501704D01*
X101223858Y-85897253D01*
X101223852Y-85897242D01*
X100863359Y-85312795D01*
X100863348Y-85312779D01*
X100863346Y-85312775D01*
X100469461Y-84750248D01*
X100043533Y-84211575D01*
X99587005Y-83698578D01*
X99587002Y-83698575D01*
X99586986Y-83698558D01*
X99101441Y-83213013D01*
X99101424Y-83212997D01*
X99101422Y-83212995D01*
X98588425Y-82756467D01*
X98049752Y-82330539D01*
X97487225Y-81936654D01*
X97487218Y-81936650D01*
X97487204Y-81936640D01*
X96902757Y-81576147D01*
X96902735Y-81576135D01*
X96298317Y-81250236D01*
X96298308Y-81250231D01*
X96298296Y-81250225D01*
X95980928Y-81102234D01*
X95675928Y-80960010D01*
X95675924Y-80960008D01*
X95675917Y-80960005D01*
X95675910Y-80960002D01*
X95675898Y-80959997D01*
X95037704Y-80706459D01*
X94385865Y-80490464D01*
X94385841Y-80490457D01*
X93722539Y-80312726D01*
X93050017Y-80173860D01*
X92370536Y-80074331D01*
X92370513Y-80074329D01*
X91686435Y-80014479D01*
X91085803Y-79997002D01*
X91000000Y-79994506D01*
X90999999Y-79994506D01*
X90313566Y-80014479D01*
X90313562Y-80014479D01*
X89629486Y-80074329D01*
X89629463Y-80074331D01*
X88949982Y-80173860D01*
X88277460Y-80312726D01*
X87614158Y-80490457D01*
X87614134Y-80490464D01*
X86962295Y-80706459D01*
X86324101Y-80959997D01*
X86324071Y-80960010D01*
X85701716Y-81250219D01*
X85701682Y-81250236D01*
X85097264Y-81576135D01*
X85097242Y-81576147D01*
X84512795Y-81936640D01*
X84512779Y-81936651D01*
X83950256Y-82330533D01*
X83950251Y-82330536D01*
X83950248Y-82330539D01*
X83799423Y-82449795D01*
X83411579Y-82756463D01*
X82898575Y-83212997D01*
X82898558Y-83213013D01*
X82413013Y-83698558D01*
X82412997Y-83698575D01*
X81956463Y-84211579D01*
X81530533Y-84750256D01*
X81136651Y-85312779D01*
X81136640Y-85312795D01*
X80776147Y-85897242D01*
X80776135Y-85897264D01*
X80450236Y-86501682D01*
X80450219Y-86501716D01*
X80160010Y-87124071D01*
X80159997Y-87124101D01*
X79906459Y-87762295D01*
X79690464Y-88414134D01*
X79690457Y-88414158D01*
X79512726Y-89077460D01*
X79373860Y-89749982D01*
X79274331Y-90429463D01*
X79274329Y-90429486D01*
X79214479Y-91113562D01*
X79214479Y-91113566D01*
X79194506Y-91799999D01*
X75805494Y-91799999D01*
X75785521Y-91113572D01*
X75725669Y-90429466D01*
X75626142Y-89749997D01*
X75487275Y-89077466D01*
X75309539Y-88414146D01*
X75093536Y-87762283D01*
X74839995Y-87124083D01*
X74549775Y-86501704D01*
X74223858Y-85897253D01*
X74223852Y-85897242D01*
X73863359Y-85312795D01*
X73863348Y-85312779D01*
X73863346Y-85312775D01*
X73469461Y-84750248D01*
X73043533Y-84211575D01*
X72587005Y-83698578D01*
X72587002Y-83698575D01*
X72586986Y-83698558D01*
X72101441Y-83213013D01*
X72101424Y-83212997D01*
X72101422Y-83212995D01*
X71588425Y-82756467D01*
X71049752Y-82330539D01*
X70487225Y-81936654D01*
X70487218Y-81936650D01*
X70487204Y-81936640D01*
X69902757Y-81576147D01*
X69902735Y-81576135D01*
X69298317Y-81250236D01*
X69298308Y-81250231D01*
X69298296Y-81250225D01*
X68980928Y-81102234D01*
X68675928Y-80960010D01*
X68675924Y-80960008D01*
X68675917Y-80960005D01*
X68675910Y-80960002D01*
X68675898Y-80959997D01*
X68037704Y-80706459D01*
X67385865Y-80490464D01*
X67385841Y-80490457D01*
X66722539Y-80312726D01*
X66050017Y-80173860D01*
X65370536Y-80074331D01*
X65370513Y-80074329D01*
X64686435Y-80014479D01*
X64000000Y-79994506D01*
X63313566Y-80014479D01*
X63313562Y-80014479D01*
X62629486Y-80074329D01*
X62629463Y-80074331D01*
X61949982Y-80173860D01*
X61277460Y-80312726D01*
X60614158Y-80490457D01*
X60614134Y-80490464D01*
X59962295Y-80706459D01*
X59324101Y-80959997D01*
X59324071Y-80960010D01*
X58701716Y-81250219D01*
X58701682Y-81250236D01*
X58097264Y-81576135D01*
X58097242Y-81576147D01*
X57512795Y-81936640D01*
X57512779Y-81936651D01*
X56950256Y-82330533D01*
X56950251Y-82330536D01*
X56950248Y-82330539D01*
X56799423Y-82449795D01*
X56411579Y-82756463D01*
X55898575Y-83212997D01*
X55898558Y-83213013D01*
X55413013Y-83698558D01*
X55412997Y-83698575D01*
X54956463Y-84211579D01*
X54530533Y-84750256D01*
X54136651Y-85312779D01*
X54136640Y-85312795D01*
X53776147Y-85897242D01*
X53776135Y-85897264D01*
X53450236Y-86501682D01*
X53450219Y-86501716D01*
X53160010Y-87124071D01*
X53159997Y-87124101D01*
X52906459Y-87762295D01*
X52690464Y-88414134D01*
X52690457Y-88414158D01*
X52512726Y-89077460D01*
X52373860Y-89749982D01*
X52274331Y-90429463D01*
X52274329Y-90429486D01*
X52214479Y-91113562D01*
X52214479Y-91113566D01*
X52194506Y-91799999D01*
X27500500Y-91799999D01*
X27500500Y-79749999D01*
X52944706Y-79749999D01*
X52950208Y-79819913D01*
X52947901Y-79830890D01*
X52953636Y-79866176D01*
X52954248Y-79871253D01*
X52954834Y-79878695D01*
X52955026Y-79883567D01*
X52955026Y-79913821D01*
X52958603Y-79926589D01*
X52963853Y-79993300D01*
X52963853Y-79993301D01*
X52980978Y-80064631D01*
X52980360Y-80076974D01*
X52992262Y-80112623D01*
X52993741Y-80117787D01*
X52995636Y-80125681D01*
X52996546Y-80130208D01*
X53001068Y-80158034D01*
X53005951Y-80168645D01*
X53020828Y-80230612D01*
X53020831Y-80230623D01*
X53050136Y-80301372D01*
X53051575Y-80314763D01*
X53069756Y-80349403D01*
X53072138Y-80354489D01*
X53075796Y-80363320D01*
X53077326Y-80367416D01*
X53085467Y-80391801D01*
X53091054Y-80400156D01*
X53114221Y-80456087D01*
X53155942Y-80524169D01*
X53159742Y-80538217D01*
X53184037Y-80570548D01*
X53187335Y-80575398D01*
X53193449Y-80585374D01*
X53195487Y-80588961D01*
X53206054Y-80609095D01*
X53211753Y-80615244D01*
X53239654Y-80660773D01*
X53241741Y-80664179D01*
X53277856Y-80706464D01*
X53295712Y-80727371D01*
X53302094Y-80741615D01*
X53332080Y-80770417D01*
X53336270Y-80774859D01*
X53345810Y-80786028D01*
X53348232Y-80789049D01*
X53359750Y-80804377D01*
X53364994Y-80808490D01*
X53400241Y-80849759D01*
X53465918Y-80905852D01*
X53475015Y-80919788D01*
X53510027Y-80943954D01*
X53515067Y-80947830D01*
X53529200Y-80959900D01*
X53531882Y-80962330D01*
X53542619Y-80972642D01*
X53546906Y-80975023D01*
X53580333Y-81003572D01*
X53585821Y-81008259D01*
X53585824Y-81008261D01*
X53585826Y-81008262D01*
X53662254Y-81055098D01*
X53674091Y-81068181D01*
X53713257Y-81086766D01*
X53719069Y-81089913D01*
X53739174Y-81102234D01*
X53742000Y-81104073D01*
X53749973Y-81109576D01*
X53752881Y-81110634D01*
X53793911Y-81135777D01*
X53793914Y-81135779D01*
X53879767Y-81171340D01*
X53894269Y-81183026D01*
X53936564Y-81195277D01*
X53943040Y-81197548D01*
X53965614Y-81206898D01*
X53970589Y-81208959D01*
X53973447Y-81210228D01*
X53976490Y-81211672D01*
X53977703Y-81211906D01*
X54019375Y-81229168D01*
X54019378Y-81229169D01*
X54019384Y-81229170D01*
X54019388Y-81229172D01*
X54112955Y-81251635D01*
X54129936Y-81261386D01*
X54174214Y-81266762D01*
X54181199Y-81268020D01*
X54256698Y-81286146D01*
X54355907Y-81293953D01*
X54375078Y-81301260D01*
X54420116Y-81299445D01*
X54427468Y-81299585D01*
X54500000Y-81305294D01*
X54602501Y-81297227D01*
X54623473Y-81301632D01*
X54668010Y-81292540D01*
X54675545Y-81291478D01*
X54743302Y-81286146D01*
X54846490Y-81261372D01*
X54868785Y-81262487D01*
X54911576Y-81246258D01*
X54919072Y-81243946D01*
X54980612Y-81229172D01*
X54980617Y-81229170D01*
X54980618Y-81229170D01*
X55081708Y-81187297D01*
X55104766Y-81184817D01*
X55144595Y-81161822D01*
X55151868Y-81158235D01*
X55189517Y-81142641D01*
X55206085Y-81135779D01*
X55206086Y-81135777D01*
X55206089Y-81135777D01*
X55302215Y-81076870D01*
X55325420Y-81070592D01*
X55361174Y-81041401D01*
X55367986Y-81036565D01*
X55404397Y-81014252D01*
X55414173Y-81008263D01*
X55414173Y-81008262D01*
X55414179Y-81008259D01*
X55502432Y-80932883D01*
X55525131Y-80922712D01*
X55555814Y-80888078D01*
X55561956Y-80882045D01*
X55599759Y-80849759D01*
X55758259Y-80664179D01*
X55885777Y-80456089D01*
X55979172Y-80230612D01*
X56036146Y-79993302D01*
X56055294Y-79750000D01*
X56055294Y-79749999D01*
X79944706Y-79749999D01*
X79950208Y-79819913D01*
X79947901Y-79830890D01*
X79953636Y-79866176D01*
X79954248Y-79871253D01*
X79954834Y-79878695D01*
X79955026Y-79883567D01*
X79955026Y-79913821D01*
X79958603Y-79926589D01*
X79963853Y-79993300D01*
X79963853Y-79993301D01*
X79980978Y-80064631D01*
X79980360Y-80076974D01*
X79992262Y-80112623D01*
X79993741Y-80117787D01*
X79995636Y-80125681D01*
X79996546Y-80130208D01*
X80001068Y-80158034D01*
X80005951Y-80168645D01*
X80020828Y-80230612D01*
X80020831Y-80230623D01*
X80050136Y-80301372D01*
X80051575Y-80314763D01*
X80069756Y-80349403D01*
X80072138Y-80354489D01*
X80075796Y-80363320D01*
X80077326Y-80367416D01*
X80085467Y-80391801D01*
X80091054Y-80400156D01*
X80114221Y-80456087D01*
X80155942Y-80524169D01*
X80159742Y-80538217D01*
X80184037Y-80570548D01*
X80187335Y-80575398D01*
X80193449Y-80585374D01*
X80195487Y-80588961D01*
X80206054Y-80609095D01*
X80211753Y-80615244D01*
X80239654Y-80660773D01*
X80241741Y-80664179D01*
X80277856Y-80706464D01*
X80295712Y-80727371D01*
X80302094Y-80741615D01*
X80332080Y-80770417D01*
X80336270Y-80774859D01*
X80345810Y-80786028D01*
X80348232Y-80789049D01*
X80359750Y-80804377D01*
X80364994Y-80808490D01*
X80400241Y-80849759D01*
X80465918Y-80905852D01*
X80475015Y-80919788D01*
X80510027Y-80943954D01*
X80515067Y-80947830D01*
X80529200Y-80959900D01*
X80531882Y-80962330D01*
X80542619Y-80972642D01*
X80546906Y-80975023D01*
X80580333Y-81003572D01*
X80585821Y-81008259D01*
X80585824Y-81008261D01*
X80585826Y-81008262D01*
X80662254Y-81055098D01*
X80674091Y-81068181D01*
X80713257Y-81086766D01*
X80719069Y-81089913D01*
X80739174Y-81102234D01*
X80742000Y-81104073D01*
X80749973Y-81109576D01*
X80752881Y-81110634D01*
X80793911Y-81135777D01*
X80793914Y-81135779D01*
X80879767Y-81171340D01*
X80894269Y-81183026D01*
X80936564Y-81195277D01*
X80943040Y-81197548D01*
X80965614Y-81206898D01*
X80970589Y-81208959D01*
X80973447Y-81210228D01*
X80976490Y-81211672D01*
X80977703Y-81211906D01*
X81019375Y-81229168D01*
X81019378Y-81229169D01*
X81019384Y-81229170D01*
X81019388Y-81229172D01*
X81112955Y-81251635D01*
X81129936Y-81261386D01*
X81174214Y-81266762D01*
X81181199Y-81268020D01*
X81256698Y-81286146D01*
X81355907Y-81293953D01*
X81375078Y-81301260D01*
X81420116Y-81299445D01*
X81427468Y-81299585D01*
X81500000Y-81305294D01*
X81602501Y-81297227D01*
X81623473Y-81301632D01*
X81668010Y-81292540D01*
X81675545Y-81291478D01*
X81743302Y-81286146D01*
X81846490Y-81261372D01*
X81868785Y-81262487D01*
X81911576Y-81246258D01*
X81919072Y-81243946D01*
X81980612Y-81229172D01*
X81980617Y-81229170D01*
X81980618Y-81229170D01*
X82081708Y-81187297D01*
X82104766Y-81184817D01*
X82144595Y-81161822D01*
X82151868Y-81158235D01*
X82189517Y-81142641D01*
X82206085Y-81135779D01*
X82206086Y-81135777D01*
X82206089Y-81135777D01*
X82302215Y-81076870D01*
X82325420Y-81070592D01*
X82361174Y-81041401D01*
X82367986Y-81036565D01*
X82404397Y-81014252D01*
X82414173Y-81008263D01*
X82414173Y-81008262D01*
X82414179Y-81008259D01*
X82502432Y-80932883D01*
X82525131Y-80922712D01*
X82555814Y-80888078D01*
X82561956Y-80882045D01*
X82599759Y-80849759D01*
X82758259Y-80664179D01*
X82885777Y-80456089D01*
X82979172Y-80230612D01*
X83036146Y-79993302D01*
X83055294Y-79750000D01*
X83036146Y-79506698D01*
X82979172Y-79269388D01*
X82927854Y-79145494D01*
X82885777Y-79043910D01*
X82758262Y-78835826D01*
X82758261Y-78835823D01*
X82599758Y-78650240D01*
X82561969Y-78617965D01*
X82555820Y-78611927D01*
X82530719Y-78583593D01*
X82502437Y-78567120D01*
X82414179Y-78491741D01*
X82414177Y-78491739D01*
X82414175Y-78491738D01*
X82414173Y-78491737D01*
X82368002Y-78463443D01*
X82361178Y-78458600D01*
X82331723Y-78434552D01*
X82302217Y-78423130D01*
X82206088Y-78364222D01*
X82206089Y-78364222D01*
X82151879Y-78341767D01*
X82144598Y-78338177D01*
X82111562Y-78319104D01*
X82081711Y-78312703D01*
X81980623Y-78270831D01*
X81980611Y-78270827D01*
X81919098Y-78256059D01*
X81911580Y-78253741D01*
X81875851Y-78240191D01*
X81846491Y-78238628D01*
X81743302Y-78213854D01*
X81743300Y-78213853D01*
X81743299Y-78213853D01*
X81675566Y-78208522D01*
X81668022Y-78207459D01*
X81630582Y-78199815D01*
X81602505Y-78202773D01*
X81529011Y-78196989D01*
X81500000Y-78194706D01*
X81499999Y-78194706D01*
X81427492Y-78200412D01*
X81420126Y-78200553D01*
X81382013Y-78199017D01*
X81355908Y-78206046D01*
X81256700Y-78213853D01*
X81256698Y-78213853D01*
X81181234Y-78231971D01*
X81174229Y-78233233D01*
X81136512Y-78237813D01*
X81112956Y-78248363D01*
X81019388Y-78270828D01*
X81019386Y-78270828D01*
X81019381Y-78270830D01*
X80977699Y-78288095D01*
X80976763Y-78288195D01*
X80973411Y-78289786D01*
X80970561Y-78291051D01*
X80943054Y-78302445D01*
X80936573Y-78304718D01*
X80900316Y-78315220D01*
X80879769Y-78328659D01*
X80793910Y-78364223D01*
X80793908Y-78364223D01*
X80752879Y-78389366D01*
X80750617Y-78389977D01*
X80741996Y-78395928D01*
X80739172Y-78397766D01*
X80719085Y-78410075D01*
X80713266Y-78413228D01*
X80679479Y-78429260D01*
X80662257Y-78444900D01*
X80585823Y-78491739D01*
X80546905Y-78524978D01*
X80543512Y-78526498D01*
X80531871Y-78537679D01*
X80529188Y-78540109D01*
X80515078Y-78552161D01*
X80510029Y-78556043D01*
X80479640Y-78577019D01*
X80465919Y-78594146D01*
X80400240Y-78650241D01*
X80364993Y-78691510D01*
X80360764Y-78694270D01*
X80348216Y-78710968D01*
X80345796Y-78713987D01*
X80336285Y-78725123D01*
X80332086Y-78729575D01*
X80305897Y-78754730D01*
X80295714Y-78772627D01*
X80241738Y-78835824D01*
X80211752Y-78884756D01*
X80207046Y-78889012D01*
X80195487Y-78911036D01*
X80193455Y-78914613D01*
X80187350Y-78924578D01*
X80184048Y-78929436D01*
X80162692Y-78957855D01*
X80155943Y-78975829D01*
X80114221Y-79043913D01*
X80091053Y-79099844D01*
X80086278Y-79105768D01*
X80077325Y-79132584D01*
X80075799Y-79136671D01*
X80072145Y-79145494D01*
X80069760Y-79150588D01*
X80053687Y-79181212D01*
X80050137Y-79198626D01*
X80020831Y-79269376D01*
X80020827Y-79269388D01*
X80005951Y-79331350D01*
X80001546Y-79339020D01*
X79996546Y-79369786D01*
X79995640Y-79374298D01*
X79994641Y-79378462D01*
X79993742Y-79382204D01*
X79992265Y-79387366D01*
X79981681Y-79419065D01*
X79980979Y-79435369D01*
X79963853Y-79506700D01*
X79958603Y-79573409D01*
X79955026Y-79582793D01*
X79955026Y-79616434D01*
X79954834Y-79621310D01*
X79954247Y-79628749D01*
X79953636Y-79633822D01*
X79948507Y-79665377D01*
X79950208Y-79680085D01*
X79944706Y-79749999D01*
X56055294Y-79749999D01*
X56036146Y-79506698D01*
X55979172Y-79269388D01*
X55927854Y-79145494D01*
X55885777Y-79043910D01*
X55758262Y-78835826D01*
X55758261Y-78835823D01*
X55599758Y-78650240D01*
X55561969Y-78617965D01*
X55555820Y-78611927D01*
X55530719Y-78583593D01*
X55502437Y-78567120D01*
X55414179Y-78491741D01*
X55414177Y-78491739D01*
X55414175Y-78491738D01*
X55414173Y-78491737D01*
X55368002Y-78463443D01*
X55361178Y-78458600D01*
X55331723Y-78434552D01*
X55302217Y-78423130D01*
X55206088Y-78364222D01*
X55206089Y-78364222D01*
X55151879Y-78341767D01*
X55144598Y-78338177D01*
X55111562Y-78319104D01*
X55081711Y-78312703D01*
X54980623Y-78270831D01*
X54980611Y-78270827D01*
X54919098Y-78256059D01*
X54911580Y-78253741D01*
X54875851Y-78240191D01*
X54846491Y-78238628D01*
X54743302Y-78213854D01*
X54743300Y-78213853D01*
X54743299Y-78213853D01*
X54675566Y-78208522D01*
X54668022Y-78207459D01*
X54630582Y-78199815D01*
X54602505Y-78202773D01*
X54529011Y-78196989D01*
X54500000Y-78194706D01*
X54499999Y-78194706D01*
X54427492Y-78200412D01*
X54420126Y-78200553D01*
X54382013Y-78199017D01*
X54355908Y-78206046D01*
X54256700Y-78213853D01*
X54256698Y-78213853D01*
X54181234Y-78231971D01*
X54174229Y-78233233D01*
X54136512Y-78237813D01*
X54112956Y-78248363D01*
X54019388Y-78270828D01*
X54019386Y-78270828D01*
X54019381Y-78270830D01*
X53977699Y-78288095D01*
X53976763Y-78288195D01*
X53973411Y-78289786D01*
X53970561Y-78291051D01*
X53943054Y-78302445D01*
X53936573Y-78304718D01*
X53900316Y-78315220D01*
X53879769Y-78328659D01*
X53793910Y-78364223D01*
X53793908Y-78364223D01*
X53752879Y-78389366D01*
X53750617Y-78389977D01*
X53741996Y-78395928D01*
X53739172Y-78397766D01*
X53719085Y-78410075D01*
X53713266Y-78413228D01*
X53679479Y-78429260D01*
X53662257Y-78444900D01*
X53585823Y-78491739D01*
X53546905Y-78524978D01*
X53543512Y-78526498D01*
X53531871Y-78537679D01*
X53529188Y-78540109D01*
X53515078Y-78552161D01*
X53510029Y-78556043D01*
X53479640Y-78577019D01*
X53465919Y-78594146D01*
X53400240Y-78650241D01*
X53364993Y-78691510D01*
X53360764Y-78694270D01*
X53348216Y-78710968D01*
X53345796Y-78713987D01*
X53336285Y-78725123D01*
X53332086Y-78729575D01*
X53305897Y-78754730D01*
X53295714Y-78772627D01*
X53241738Y-78835824D01*
X53211752Y-78884756D01*
X53207046Y-78889012D01*
X53195487Y-78911036D01*
X53193455Y-78914613D01*
X53187350Y-78924578D01*
X53184048Y-78929436D01*
X53162692Y-78957855D01*
X53155943Y-78975829D01*
X53114221Y-79043913D01*
X53091053Y-79099844D01*
X53086278Y-79105768D01*
X53077325Y-79132584D01*
X53075799Y-79136671D01*
X53072145Y-79145494D01*
X53069760Y-79150588D01*
X53053687Y-79181212D01*
X53050137Y-79198626D01*
X53020831Y-79269376D01*
X53020827Y-79269388D01*
X53005951Y-79331350D01*
X53001546Y-79339020D01*
X52996546Y-79369786D01*
X52995640Y-79374298D01*
X52994641Y-79378462D01*
X52993742Y-79382204D01*
X52992265Y-79387366D01*
X52981681Y-79419065D01*
X52980979Y-79435369D01*
X52963853Y-79506700D01*
X52958603Y-79573409D01*
X52955026Y-79582793D01*
X52955026Y-79616434D01*
X52954834Y-79621310D01*
X52954247Y-79628749D01*
X52953636Y-79633822D01*
X52948507Y-79665377D01*
X52950208Y-79680085D01*
X52944706Y-79749999D01*
X27500500Y-79749999D01*
X27500500Y-75001622D01*
X27500585Y-74998377D01*
X27507500Y-74866421D01*
X27517803Y-74682968D01*
X27518464Y-74676791D01*
X27542619Y-74524281D01*
X27570224Y-74361812D01*
X27571451Y-74356196D01*
X27612430Y-74203260D01*
X27657083Y-74048268D01*
X27658766Y-74043247D01*
X27715874Y-73894474D01*
X27716374Y-73893221D01*
X27777370Y-73745962D01*
X27779378Y-73741606D01*
X27852051Y-73598980D01*
X27853003Y-73597187D01*
X27929655Y-73458494D01*
X27931867Y-73454808D01*
X28019311Y-73320156D01*
X28020694Y-73318119D01*
X28112164Y-73189204D01*
X28114486Y-73186143D01*
X28215655Y-73061209D01*
X28217537Y-73058998D01*
X28322773Y-72941239D01*
X28325092Y-72938787D01*
X28438787Y-72825092D01*
X28441239Y-72822773D01*
X28558998Y-72717537D01*
X28561209Y-72715655D01*
X28686143Y-72614486D01*
X28689204Y-72612164D01*
X28818119Y-72520694D01*
X28820156Y-72519311D01*
X28954808Y-72431867D01*
X28958494Y-72429655D01*
X29097187Y-72353003D01*
X29098980Y-72352051D01*
X29241606Y-72279378D01*
X29245962Y-72277370D01*
X29393221Y-72216374D01*
X29394474Y-72215874D01*
X29543247Y-72158766D01*
X29548268Y-72157083D01*
X29703260Y-72112430D01*
X29856196Y-72071451D01*
X29861812Y-72070224D01*
X30024281Y-72042619D01*
X30176791Y-72018464D01*
X30182968Y-72017803D01*
X30366421Y-72007500D01*
X30498379Y-72000584D01*
X30501622Y-72000500D01*
X250498378Y-72000500D01*
X250501620Y-72000584D01*
G37*
%TD.AperFunction*%
%TD*%
M02*
