%TF.GenerationSoftware,KiCad,Pcbnew,7.0.5-0*%
%TF.CreationDate,2024-02-04T17:42:31+01:00*%
%TF.ProjectId,Frontpanel,46726f6e-7470-4616-9e65-6c2e6b696361,rev?*%
%TF.SameCoordinates,Original*%
%TF.FileFunction,Profile,NP*%
%FSLAX46Y46*%
G04 Gerber Fmt 4.6, Leading zero omitted, Abs format (unit mm)*
G04 Created by KiCad (PCBNEW 7.0.5-0) date 2024-02-04 17:42:31*
%MOMM*%
%LPD*%
G01*
G04 APERTURE LIST*
%TA.AperFunction,Profile*%
%ADD10C,0.100000*%
%TD*%
%TA.AperFunction,Profile*%
%ADD11C,0.150000*%
%TD*%
G04 APERTURE END LIST*
D10*
X30500000Y-72000000D02*
G75*
G03*
X27500000Y-75000000I0J-3000000D01*
G01*
D11*
X230250000Y-91000000D02*
G75*
G03*
X230250000Y-91000000I-1250000J0D01*
G01*
D10*
X253500000Y-75000000D02*
X253500000Y-110400000D01*
X83050000Y-79750000D02*
G75*
G03*
X83050000Y-79750000I-1550000J0D01*
G01*
X75050000Y-103750000D02*
G75*
G03*
X75050000Y-103750000I-1550000J0D01*
G01*
X111000000Y-113400000D02*
X120000000Y-113400000D01*
X27500000Y-110400000D02*
X27500000Y-75000000D01*
X30500000Y-72000000D02*
X250500000Y-72000000D01*
X56050000Y-79750000D02*
G75*
G03*
X56050000Y-79750000I-1550000J0D01*
G01*
X224100000Y-97500000D02*
X224100000Y-106500000D01*
X120000000Y-96000000D02*
X120000000Y-107000000D01*
D11*
X102800000Y-91800000D02*
G75*
G03*
X102800000Y-91800000I-11800000J0D01*
G01*
D10*
X111000000Y-96000000D02*
X120000000Y-96000000D01*
X111000000Y-107000000D02*
X111000000Y-96000000D01*
X233900000Y-106500000D02*
X233900000Y-97500000D01*
X224100000Y-97500000D02*
X233900000Y-97500000D01*
D11*
X75800000Y-91800000D02*
G75*
G03*
X75800000Y-91800000I-11800000J0D01*
G01*
D10*
X250500000Y-113400000D02*
G75*
G03*
X253500000Y-110400000I0J3000000D01*
G01*
X250500000Y-113400000D02*
X120000000Y-113400000D01*
X27500000Y-110400000D02*
G75*
G03*
X30500000Y-113400000I3000000J0D01*
G01*
X102050000Y-103750000D02*
G75*
G03*
X102050000Y-103750000I-1550000J0D01*
G01*
X111000000Y-113400000D02*
X30500000Y-113400000D01*
X111000000Y-107000000D02*
X120000000Y-107000000D01*
X253500000Y-75000000D02*
G75*
G03*
X250500000Y-72000000I-3000000J0D01*
G01*
X224100000Y-106500000D02*
X233900000Y-106500000D01*
M02*
