%TF.GenerationSoftware,KiCad,Pcbnew,7.0.5-0*%
%TF.CreationDate,2024-02-04T17:42:31+01:00*%
%TF.ProjectId,Frontpanel,46726f6e-7470-4616-9e65-6c2e6b696361,rev?*%
%TF.SameCoordinates,Original*%
%TF.FileFunction,Legend,Bot*%
%TF.FilePolarity,Positive*%
%FSLAX46Y46*%
G04 Gerber Fmt 4.6, Leading zero omitted, Abs format (unit mm)*
G04 Created by KiCad (PCBNEW 7.0.5-0) date 2024-02-04 17:42:31*
%MOMM*%
%LPD*%
G01*
G04 APERTURE LIST*
%ADD10C,0.150000*%
%ADD11C,10.200000*%
%ADD12C,4.500000*%
%ADD13C,4.100000*%
%ADD14C,24.600000*%
%ADD15C,5.600000*%
G04 APERTURE END LIST*
D10*
X237372493Y-111869819D02*
X237372493Y-112584104D01*
X237372493Y-112584104D02*
X237324874Y-112726961D01*
X237324874Y-112726961D02*
X237229636Y-112822200D01*
X237229636Y-112822200D02*
X237086779Y-112869819D01*
X237086779Y-112869819D02*
X236991541Y-112869819D01*
X238324874Y-112869819D02*
X237848684Y-112869819D01*
X237848684Y-112869819D02*
X237848684Y-111869819D01*
X239229636Y-112774580D02*
X239182017Y-112822200D01*
X239182017Y-112822200D02*
X239039160Y-112869819D01*
X239039160Y-112869819D02*
X238943922Y-112869819D01*
X238943922Y-112869819D02*
X238801065Y-112822200D01*
X238801065Y-112822200D02*
X238705827Y-112726961D01*
X238705827Y-112726961D02*
X238658208Y-112631723D01*
X238658208Y-112631723D02*
X238610589Y-112441247D01*
X238610589Y-112441247D02*
X238610589Y-112298390D01*
X238610589Y-112298390D02*
X238658208Y-112107914D01*
X238658208Y-112107914D02*
X238705827Y-112012676D01*
X238705827Y-112012676D02*
X238801065Y-111917438D01*
X238801065Y-111917438D02*
X238943922Y-111869819D01*
X238943922Y-111869819D02*
X239039160Y-111869819D01*
X239039160Y-111869819D02*
X239182017Y-111917438D01*
X239182017Y-111917438D02*
X239229636Y-111965057D01*
X239943922Y-111869819D02*
X239943922Y-112584104D01*
X239943922Y-112584104D02*
X239896303Y-112726961D01*
X239896303Y-112726961D02*
X239801065Y-112822200D01*
X239801065Y-112822200D02*
X239658208Y-112869819D01*
X239658208Y-112869819D02*
X239562970Y-112869819D01*
X240896303Y-112869819D02*
X240420113Y-112869819D01*
X240420113Y-112869819D02*
X240420113Y-111869819D01*
X241801065Y-112774580D02*
X241753446Y-112822200D01*
X241753446Y-112822200D02*
X241610589Y-112869819D01*
X241610589Y-112869819D02*
X241515351Y-112869819D01*
X241515351Y-112869819D02*
X241372494Y-112822200D01*
X241372494Y-112822200D02*
X241277256Y-112726961D01*
X241277256Y-112726961D02*
X241229637Y-112631723D01*
X241229637Y-112631723D02*
X241182018Y-112441247D01*
X241182018Y-112441247D02*
X241182018Y-112298390D01*
X241182018Y-112298390D02*
X241229637Y-112107914D01*
X241229637Y-112107914D02*
X241277256Y-112012676D01*
X241277256Y-112012676D02*
X241372494Y-111917438D01*
X241372494Y-111917438D02*
X241515351Y-111869819D01*
X241515351Y-111869819D02*
X241610589Y-111869819D01*
X241610589Y-111869819D02*
X241753446Y-111917438D01*
X241753446Y-111917438D02*
X241801065Y-111965057D01*
X242515351Y-111869819D02*
X242515351Y-112584104D01*
X242515351Y-112584104D02*
X242467732Y-112726961D01*
X242467732Y-112726961D02*
X242372494Y-112822200D01*
X242372494Y-112822200D02*
X242229637Y-112869819D01*
X242229637Y-112869819D02*
X242134399Y-112869819D01*
X243467732Y-112869819D02*
X242991542Y-112869819D01*
X242991542Y-112869819D02*
X242991542Y-111869819D01*
X244372494Y-112774580D02*
X244324875Y-112822200D01*
X244324875Y-112822200D02*
X244182018Y-112869819D01*
X244182018Y-112869819D02*
X244086780Y-112869819D01*
X244086780Y-112869819D02*
X243943923Y-112822200D01*
X243943923Y-112822200D02*
X243848685Y-112726961D01*
X243848685Y-112726961D02*
X243801066Y-112631723D01*
X243801066Y-112631723D02*
X243753447Y-112441247D01*
X243753447Y-112441247D02*
X243753447Y-112298390D01*
X243753447Y-112298390D02*
X243801066Y-112107914D01*
X243801066Y-112107914D02*
X243848685Y-112012676D01*
X243848685Y-112012676D02*
X243943923Y-111917438D01*
X243943923Y-111917438D02*
X244086780Y-111869819D01*
X244086780Y-111869819D02*
X244182018Y-111869819D01*
X244182018Y-111869819D02*
X244324875Y-111917438D01*
X244324875Y-111917438D02*
X244372494Y-111965057D01*
X245086780Y-111869819D02*
X245086780Y-112584104D01*
X245086780Y-112584104D02*
X245039161Y-112726961D01*
X245039161Y-112726961D02*
X244943923Y-112822200D01*
X244943923Y-112822200D02*
X244801066Y-112869819D01*
X244801066Y-112869819D02*
X244705828Y-112869819D01*
X246039161Y-112869819D02*
X245562971Y-112869819D01*
X245562971Y-112869819D02*
X245562971Y-111869819D01*
X246943923Y-112774580D02*
X246896304Y-112822200D01*
X246896304Y-112822200D02*
X246753447Y-112869819D01*
X246753447Y-112869819D02*
X246658209Y-112869819D01*
X246658209Y-112869819D02*
X246515352Y-112822200D01*
X246515352Y-112822200D02*
X246420114Y-112726961D01*
X246420114Y-112726961D02*
X246372495Y-112631723D01*
X246372495Y-112631723D02*
X246324876Y-112441247D01*
X246324876Y-112441247D02*
X246324876Y-112298390D01*
X246324876Y-112298390D02*
X246372495Y-112107914D01*
X246372495Y-112107914D02*
X246420114Y-112012676D01*
X246420114Y-112012676D02*
X246515352Y-111917438D01*
X246515352Y-111917438D02*
X246658209Y-111869819D01*
X246658209Y-111869819D02*
X246753447Y-111869819D01*
X246753447Y-111869819D02*
X246896304Y-111917438D01*
X246896304Y-111917438D02*
X246943923Y-111965057D01*
%LPC*%
D11*
%TO.C,J4*%
X208500000Y-86300000D03*
X208500000Y-100300000D03*
D12*
X217500000Y-93300000D03*
%TD*%
D11*
%TO.C,J3*%
X183500000Y-86300000D03*
X183500000Y-100300000D03*
D12*
X192500000Y-93300000D03*
%TD*%
D13*
%TO.C,J2*%
X81500000Y-79750000D03*
D14*
X91000000Y-91750000D03*
D13*
X100500000Y-103750000D03*
%TD*%
%TO.C,J1*%
X54500000Y-79750000D03*
D14*
X64000000Y-91750000D03*
D13*
X73500000Y-103750000D03*
%TD*%
D15*
%TO.C,H4*%
X250500000Y-110400000D03*
%TD*%
%TO.C,H1*%
X30500000Y-110400000D03*
%TD*%
%TO.C,H2*%
X30500000Y-75000000D03*
%TD*%
%TO.C,H3*%
X250500000Y-75000000D03*
%TD*%
%LPD*%
M02*
